<?xml version="1.0" encoding="UTF-8"?>
<svg id="Layer_1" data-name="Layer 1" xmlns="http://www.w3.org/2000/svg" viewBox="0 0 512 512">
  <defs>
    <style>
      .cls-1 {
        fill: #4e4e4e;
      }
    </style>
  </defs>
  <path id="path189" class="cls-1" d="M57.57,363.98c-.5-.12-1.79-.54-2.86-.93-1.82-.66-2.02-.65-2.85.1-.54.49-1.05.64-1.3.39-.22-.23-.47-2.41-.56-4.85-.14-3.95-.07-4.42.63-4.42.47,0,1.17.78,1.75,1.93,1.14,2.27,3.32,4.7,5.04,5.6,2.54,1.33,6.97.45,8.06-1.6,1.62-3.03-.32-5.35-6.07-7.27-5.41-1.8-6.94-2.78-8-5.13-1.96-4.32-.54-8.14,3.87-10.44,2.42-1.26,7.31-1.34,10.36-.16,1.61.62,2.33.71,2.7.34.28-.28.87-.51,1.32-.51.73,0,.82.47.82,4.54,0,5.39-.59,5.89-2.46,2.07-1.44-2.95-3.75-5.1-5.91-5.5-2.12-.4-4.83.93-5.38,2.65-.94,2.91.58,4.49,6.03,6.27,6.75,2.21,9.18,4.46,9.18,8.51,0,3.39-1.61,5.79-5.1,7.57-1.56.8-7.33,1.32-9.3.84h0ZM249.92,363.41c-5.74-1.98-8.77-6.39-8.77-12.77s2.51-10.3,7.56-12.78c2.66-1.31,3.4-1.47,6.68-1.44,2.42.03,4.29.3,5.45.8,1.25.55,1.9.63,2.25.29.27-.27.85-.48,1.3-.48.72,0,.82.44.82,3.74,0,2.06.13,4.2.28,4.76.21.8.08,1.02-.6,1.02-.63,0-1.16-.68-1.88-2.42-3.07-7.4-9.98-8.38-13.23-1.89-1.01,2.03-1.13,2.83-1.13,7.49s.12,5.46,1.13,7.46c1.86,3.69,4.82,5.1,8.86,4.24,2.08-.44,4.9-2.64,6.02-4.67.46-.83.56-.85,1.23-.18.67.67.61.88-.79,2.72-1.77,2.32-3.88,3.85-6.19,4.49-2.48.69-6.36.53-8.98-.38h0ZM446.96,363.84c-4.12-1.14-7.29-3.79-8.88-7.42-1.41-3.23-1.46-8.71-.11-11.73,3.01-6.73,11.49-10.18,18.44-7.49,1.61.62,2.33.71,2.7.34.28-.28.87-.51,1.32-.51.73,0,.82.48.82,4.76,0,5.73-.64,6.25-2.54,2.03-1.98-4.42-5.14-6.47-8.75-5.67-1.93.42-3.89,2.61-4.76,5.31-.98,3.02-.98,9.6-.03,12.5,2.26,6.78,10.02,7.83,14.42,1.95,1.25-1.67,2.55-2.01,2.55-.67,0,1.21-3.02,4.51-5.12,5.59-2.35,1.21-7.5,1.73-10.08,1.01h0ZM90.02,362.9c0-.7.3-.92,1.25-.93,2.6-.03,2.6,0,2.75-10.91.15-11.13,0-11.88-2.62-12.45-.76-.17-1.38-.59-1.38-.95,0-.53,1.29-.64,7.26-.64s7.26.12,7.26.62c0,.37-.71.74-1.77.9-.99.16-1.89.6-2.04,1-.15.4-.28,2.85-.28,5.45,0,3.61.14,4.73.6,4.73.68,0,7.9-7.27,9.16-9.23.7-1.09.73-1.35.18-1.69-.35-.22-1-.41-1.44-.42-.44,0-.79-.31-.79-.69,0-.57.93-.68,5.67-.68s5.67.11,5.67.68c0,.37-.25.68-.57.68-2.3,0-4.35,1.24-8.11,4.86-2.22,2.14-4.03,4.08-4.03,4.32,0,.56,8.06,10.52,10.11,12.5.85.82,2.14,1.65,2.87,1.85.73.19,1.32.64,1.32,1,0,.52-1.04.67-5.06.78l-5.06.13-2.18-3.08c-3.55-5.02-7.49-9.69-7.94-9.41-.52.32-.55,8.83-.04,9.64.21.32.97.75,1.69.94s1.32.65,1.32,1c0,.53-1.29.67-6.92.77-6.69.12-6.92.09-6.92-.79h0ZM136.55,363.36c-.47-.77.19-1.37,1.52-1.37,2.27,0,2.33-.31,2.33-11.61s.04-11.28-2.65-11.82c-.79-.16-1.43-.57-1.43-.91,0-.5,1.44-.62,7.53-.62,5.57,0,7.48.14,7.35.53-.1.29-.98.76-1.97,1.04l-1.79.5-.12,10.85c-.07,6.23.06,11.03.3,11.27.23.23,1.1.56,1.94.73.89.18,1.52.59,1.52.97,0,.55-1.24.68-7.11.79-4.5.08-7.22-.05-7.4-.34h0ZM168.32,363.36c-.43-.7.15-1.38,1.17-1.38.5,0,1.4-.5,2.02-1.11,1.11-1.11,1.11-1.16,1.11-10.18s0-9.07-1.13-10.41c-.62-.74-1.64-1.47-2.27-1.63-.62-.16-1.14-.59-1.14-.96,0-.55.88-.67,4.96-.67h4.96l6.33,7.83c3.48,4.31,6.76,8.34,7.3,8.96l.97,1.13-.12-7.1c-.13-7.83-.41-8.65-3.12-9.25-.72-.16-1.31-.58-1.31-.93,0-.52,1.07-.64,5.67-.64s5.67.11,5.67.68c0,.42-.42.68-1.08.68-.6,0-1.57.39-2.16.87-1.07.87-1.07.89-1.21,12.71l-.14,11.84h-1.68c-1.64,0-1.87-.24-9.85-10.2l-8.17-10.19-.13,7.13c-.16,8.83,0,9.87,1.72,10.76.73.38,1.65.68,2.06.68.46,0,.68.3.58.79-.13.69-.82.81-5.44.92-3.28.08-5.4-.05-5.58-.34h0ZM283.58,363.36c-.47-.76.2-1.37,1.52-1.37,2.27,0,2.33-.31,2.33-11.61s.05-11.03-2.47-11.85c-.73-.24-1.42-.68-1.52-.98-.14-.42,1.58-.52,7.23-.43,4.64.08,7.38.29,7.33.58-.05.25-.68.57-1.4.72-2.42.5-2.37.2-2.37,11.77,0,12.68-.31,12,5.24,11.71,3.82-.19,4.5-.64,6.61-4.32.76-1.33,1.58-2.41,1.82-2.41.26,0,.38,1.72.31,4.2l-.13,4.2-12.11.12c-7.84.08-12.21-.04-12.39-.34h0ZM324.96,363.18c-.33-.87.06-1.19,1.47-1.2,2.51-.03,2.52-.06,2.66-10.75.14-10.96-.03-11.74-2.5-12.57-3.08-1.03-1.72-1.4,5.67-1.52,6.36-.11,7.37-.03,7.37.57,0,.42-.41.69-1.03.69-.57,0-1.49.32-2.04.71-.99.69-1.01.87-1,11.01,0,5.66.18,10.57.4,10.91.21.34,1.08.75,1.92.93.9.18,1.53.59,1.53.98,0,.98-14.07,1.23-14.44.26h0ZM356.64,363.35c-.41-.66.16-1.36,1.1-1.36.45,0,1.36-.42,2.02-.94l1.2-.94v-9.4c0-10.47-.12-10.93-2.95-11.87-.87-.29-1.59-.81-1.59-1.17,0-.52.98-.64,5.11-.62l5.11.03,7.03,8.79c3.87,4.83,7.22,8.67,7.44,8.53.56-.34.03-12.98-.61-14.14-.27-.51-1.31-1.16-2.3-1.46s-1.81-.82-1.81-1.15c0-.48,1.23-.61,5.67-.61,4.74,0,5.67.11,5.67.68,0,.37-.3.68-.66.68-1.4,0-2.95,1.09-3.4,2.4-.28.81-.48,5.8-.48,12.19v10.82h-1.57c-1.5,0-1.94-.46-9.87-10.29l-8.3-10.29-.14,7c-.07,3.85-.03,7.65.13,8.46.29,1.57,2.11,3.31,3.47,3.31.54,0,.85.32.85.91,0,.86-.3.91-5.42.91-3.12,0-5.54-.19-5.7-.45h0ZM404.75,363.35c-.47-.76.21-1.36,1.52-1.36,2.27,0,2.33-.31,2.33-11.61s.04-11.28-2.65-11.82c-.79-.16-1.43-.57-1.43-.91,0-.5,1.4-.62,7.26-.62,6.15,0,7.26.1,7.26.68,0,.42-.43.68-1.13.68-.62,0-1.54.41-2.04.91-.85.85-.91,1.51-.91,10.89s.05,10.04.91,10.89c.5.5,1.42.91,2.04.91.83,0,1.13.24,1.13.91,0,.87-.3.91-7.01.91-4.18,0-7.12-.18-7.29-.45h0ZM362.32,286.63v-27.25l2.12.14,2.12.14,1.03,4.92c2.98,14.25,8.13,24.23,15.28,29.6,9.57,7.19,19.07,10.38,30.95,10.36,7.54,0,10.68-.69,16.95-3.67,5.51-2.62,9.65-6.6,12.02-11.54,2-4.16,2.54-6.48,2.56-10.87.03-7.02-2.71-12.74-9.09-19.03-4.17-4.12-5.05-4.71-19.31-13.12-29.73-17.53-38.31-23.14-43.83-28.64-8.47-8.46-12.18-17-12.18-28.07,0-7.85,1.69-13.91,5.84-20.89,2.2-3.71,6.85-8.8,10.63-11.66,3.55-2.69,10.68-6.15,15.97-7.76,3.89-1.18,4.55-1.24,13.62-1.26,9.37-.03,9.62,0,14.98,1.47,3,.82,8.47,2.7,12.16,4.2,7.65,3.09,10.61,3.48,13.39,1.79,1.52-.93,3-3.55,3.55-6.3.27-1.34.38-1.4,2.49-1.4h2.21v54.46h-4.31l-1.18-6.01c-2.36-12-6.54-20.51-13.57-27.61-8.14-8.23-16.8-11.78-28.75-11.78-6.08,0-9.12.7-14.36,3.31-4.99,2.49-10.04,7.35-12.14,11.7-1.96,4.05-2.65,8.47-1.97,12.52.83,4.88,2.34,7.45,7.55,12.83,4.39,4.53,5.2,5.13,13.89,10.33,5.08,3.03,12.7,7.44,16.94,9.8,17.53,9.74,32.49,19.46,36.41,23.65,5.21,5.57,8.76,11.81,10.63,18.67,1.41,5.18,1.41,14.78,0,19.97-4.39,16.2-17.9,28.56-35.78,32.71-8.57,1.99-21.69,1.6-30.43-.91-7.13-2.05-19.71-5.53-22.78-6.31-3.14-.8-5.31-.34-6.92,1.47-1.11,1.24-1.52,2.27-2.37,6.05-.25,1.13-.47,1.25-2.31,1.25h-2.04v-27.26ZM46.3,309.95c-.16-.17-.3-1.16-.3-2.2v-1.9l3.64-.79c8.08-1.75,12.44-5.28,16.39-13.27,1.33-2.7,15.82-36.16,32.2-74.35l29.78-69.44h4.29l1.28,2.95c.71,1.62,4.18,9.89,7.73,18.38,3.54,8.49,7.73,18.49,9.3,22.24,1.57,3.74,6.78,16.2,11.58,27.68s10.01,23.94,11.58,27.68c1.57,3.74,5.73,13.67,9.24,22.06,8.22,19.64,9.53,22.44,12.37,26.56,2.78,4.02,5.65,6.7,8.78,8.17,5.49,2.58,9.37.18,11.96-7.42l1.2-3.53.14-60.59c.1-43.21,0-61.56-.37-63.99-.93-6.18-3.04-9.2-8.06-11.47-1.71-.77-3.35-1.02-8.05-1.22l-5.9-.25-.14-2.16-.14-2.16h35.76c19.67,0,39.13.21,43.25.45,15.1.91,28.86,3.41,37.49,6.81,15.31,6.04,27.18,17.2,35,32.89,5.62,11.28,8.13,21.54,8.61,35.2.42,11.98-.96,22.06-4.46,32.4-4.01,11.86-9.27,20.13-18.22,28.68-12.65,12.08-30.52,19.6-52.29,22.02-4.26.47-18.68.6-66.49.6h-61.04l-.14-2.16-.14-2.16h1.57c2.32,0,8.2-1.2,9.71-1.98,2.29-1.18,4.55-4.09,4.88-6.26.6-4.04-1.76-11.43-9.42-29.42l-4.73-11.12-30.87-.12-30.87-.12-.92,2.16c-.5,1.19-3.4,7.91-6.43,14.95-5.64,13.1-7.3,18.11-7.3,22.05,0,5.59,3.93,8.26,13.96,9.5l4.2.52v4.39h-24.66c-13.56,0-24.79-.14-24.96-.3h0ZM276.42,300.91c21.58-3.29,39.41-18.82,47.27-41.18,3.61-10.28,4.77-18.45,4.46-31.4-.34-14.04-2.71-24.57-7.82-34.79-3.39-6.77-5.86-10.21-11.49-15.97-9.24-9.45-20.26-14.88-34.79-17.12-4.32-.67-14.6-.65-19.18.04l-3.75.56,3.98,1.96c12.35,6.07,18.39,16.37,22.4,38.27,1.86,10.16,2.6,11.34,9.71,15.5,2.88,1.69,4.13,3.42,3.7,5.15-.14.55-1,1.97-1.91,3.14-1.55,1.99-1.62,2.22-1.09,3.51.65,1.57,2.9,3.63,3.97,3.63s2.38,1.38,2.38,2.6c0,1.6-.69,2.64-2.49,3.76-1.86,1.15-1.76,1.6.47,2.02,2.3.43,3.01,2.08,1.64,3.78-2.71,3.34-2.8,5.22-.51,10.27,1.65,3.65,1.78,6.33.36,7.84-1.2,1.28-3.02,1.35-7.72.33-4.41-.96-9.94-.98-13.1-.05-1.39.41-3.94,1.74-5.67,2.96-4.12,2.9-12.58,11.71-17.51,18.25-4.16,5.52-9.01,13.16-9.01,14.19,0,.97,12.96,3.25,20.65,3.63,4.18.21,10.45-.15,15.08-.86h0ZM249.89,264.52c7.31-10.44,13.37-21.47,15.5-28.22,2.38-7.54,1.42-12.32-3.08-15.33-2.84-1.9-5.32-2.55-8.64-2.25-4.38.39-7.08,3.17-7.08,7.27,0,4.55,3.04,8.36,7.04,8.81,2.74.31,2.58.89-.34,1.25-2.84.35-6.33-.36-8.13-1.64-2.42-1.73-3.32-4.17-3.32-9.02,0-3.79.15-4.62,1.26-6.88.69-1.41,2.61-4.07,4.25-5.9,5.41-6.03,7.12-9.14,8.13-14.85,1.34-7.5.55-13.95-2.48-20.19-2.85-5.89-6.38-9.36-9.53-9.36-4.19,0-8.38,8.55-9.6,19.58-.59,5.38-.33,9.41.98,14.91.9,3.78,3.77,10.44,4.49,10.44,1.22,0,4.67-7.1,5.7-11.73.97-4.37.65-14.16-.7-20.94-.52-2.62-.94-5.15-.94-5.63,0-.83.03-.84.9-.05,2.03,1.84,4.09,10.75,4.09,17.71,0,4.35-1.09,11.15-2.41,14.98-.6,1.75-2.24,5.46-3.64,8.26-5.69,11.34-5.79,17.97-.36,23.84,1.34,1.45,3.66,3.39,5.15,4.31,1.49.92,2.9,2.16,3.12,2.75,1.28,3.36-.59,12.23-4.85,23.02-.71,1.8,1-.15,4.48-5.12h0ZM150.08,246.38c-2.44-5.85-21.53-51.32-23.63-56.29-1.4-3.31-2.69-5.87-2.86-5.67-.17.19-2.05,4.44-4.19,9.43-2.13,4.99-8.11,18.88-13.28,30.86-5.17,11.98-9.5,22.14-9.63,22.58-.21.75,1.29.79,27.03.79h27.26l-.71-1.7Z"/>
</svg>