<?xml version="1.0" encoding="UTF-8"?>
<svg id="Layer_1" data-name="Layer 1" xmlns="http://www.w3.org/2000/svg" xmlns:xlink="http://www.w3.org/1999/xlink" viewBox="0 0 512 512">
  <defs>
    <style>
      .cls-1 {
        fill: url(#linear-gradient);
      }

      .cls-1, .cls-2, .cls-3 {
        isolation: isolate;
      }

      .cls-2 {
        fill: url(#linear-gradient-2);
      }

      .cls-3 {
        fill: url(#linear-gradient-3);
      }

      .cls-4 {
        fill: #010101;
      }
    </style>
    <linearGradient id="linear-gradient" x1="183.37" y1="211.96" x2="282.78" y2="211.96" gradientUnits="userSpaceOnUse">
      <stop offset="0" stop-color="#a7dde2"/>
      <stop offset="1" stop-color="#059496"/>
    </linearGradient>
    <linearGradient id="linear-gradient-2" x1="239.99" y1="179.02" x2="274.5" y2="179.02" xlink:href="#linear-gradient"/>
    <linearGradient id="linear-gradient-3" x1="251.8" y1="240.88" x2="328.63" y2="240.88" xlink:href="#linear-gradient"/>
  </defs>
  <g>
    <path class="cls-4" d="M378.77,372.73c1.52-4.49,1.83-8.89,2.08-9.01.4-.21,1.37-.17,1.69.29.47.68-.54,1.25-.69,1.75l-2.99,10.2c-.21.71-.46,1.42-.84,1.61-.61.31-1.5.12-1.71-.56l-2.42-7.8c-1.61,2.71-1.36,6.05-3.98,9.04l-5.29-14.46h5.47c-1.19,1.79-.48,3.45.07,5.38l.95,3.35c1.44-3.49,2.43-5.84.86-8.73,2.19-.19,3.46-.21,4.83.09-.76,3.43.88,6.22,1.98,8.85Z"/>
    <path class="cls-4" d="M318.88,369.99c-.24.98,2.05,2.67,1.71,3.64-1.71,4.78-5.9,4.23-11.43,3.81.69-4.69.69-8.92,0-13.6l7.38-.16c1.64-.03,2.33,1.27,2.97,2.27.82,1.29-.15,2.14-.62,4.04ZM313.64,369.45c1.29.88,2.97-1.25,2.77-2.53-.16-1.01-1.61-2.91-2.79-2.03-.97.71-1.01,3.86.02,4.57ZM313.57,375.89c2.12,1.31,3.45-1.02,3.12-2.83-.2-1.07-1.06-2.88-2.82-2.12-1.17.5-1.37,4.29-.3,4.95Z"/>
    <path class="cls-4" d="M465.91,377.51c-1.71.27-3.26.23-4.66-.12,1-2.36.65-4.4.52-6.67h-4.02c-.15,2.26-.48,4.33.51,6.68-1.41.34-2.88.27-4.75.11,1.06-4.57,1.07-9.16,0-13.74,1.87-.15,3.33-.18,4.76.12-.97,2.13-.71,3.94-.52,5.98h4c.25-2.21.39-4.1-.57-6.11h4.83c-1.07,4.44-1.05,8.66-.09,13.75Z"/>
    <path class="cls-4" d="M59.7,370.02c1.9,1.15,2.69,2.53,2.26,4.28-.36,1.46-1.55,3.17-3.49,3.2l-7.53.1c1.07-4.69,1.07-9.21,0-13.86l8.31.06c1.26,0,1.83,1.74,2,2.53.25,1.12.07,2.24-1.56,3.69ZM55.05,369.71c1.48,0,2.77-1.05,2.93-2.25.26-1.96-.86-3.03-2.84-3.08l-.09,5.33ZM55.19,376.28c2.92.48,3.41-1.34,3.4-3.17,0-1.23-1.69-2.44-3.43-2.43l.03,5.6Z"/>
    <path class="cls-4" d="M119.65,376.47c-3.07,1.78-6.74,1.14-9.33.97.7-4.84.65-9.13-.02-13.71l7.96.16c2.64.05,3.95,3.28,4.23,5.14.44,2.84-.01,5.8-2.85,7.45ZM117.88,375.57c1.67-2.97,1.42-5.86.82-8.72-.28-1.32-3.34-3.18-3.88-2.01-1.47,3.5-.28,7.6-.6,11.17,1.04.49,3.11.52,3.66-.44Z"/>
    <path class="cls-4" d="M161.07,364.87c-3.35,2.54-2.97,11.55,2.17,12.31.72-2.4.44-4.68-.51-7.14l5.22.06c-.97,1.92-.71,4.74-1.08,6.55-2.72,2.3-7.1,1.7-9.28-.4-2.66-2.58-3.26-6.85-1.32-9.7,2.19-3.22,5.63-4.53,9.49-2.97,1.51.61,1.86,3.2.48,3.57-.71-.06-.86-2.12-1.46-2.45-.75-.42-2.69-.61-3.71.17Z"/>
    <path class="cls-4" d="M284.89,377.15c-.08,1.37-1.86-.24-2.36-.93l-6.08-8.51c-.63,3.73-.3,6.74.33,9.82l-2.26.07c-1.17.04.76-1.27.77-1.66l.21-8.81c.03-1.12-.82-1.9-1.65-2.94,1.16-.83,3.68-.98,4.45,0l5.89,7.58-.85-7.84c.48-.48,2-.51,2.35.08l-.79,13.12Z"/>
    <path class="cls-4" d="M149.21,365.13l-.47,12.95-7.92-9.61c-.25,2.74-.65,5.76.3,8.84-.39.55-2.2.55-2.45-.21.81-4.04,1-8.78-.07-13.05.84-.65,3.07-.74,3.95.45l5.51,7.5c.43-2.72.41-5.64-.25-8.33,1.6-.73,2.31.7,1.41,1.44Z"/>
    <path class="cls-4" d="M222.61,376.58c-2.29,2.17-5.96,2.19-8.06.12-.53-.68-.46-2.38.11-3.28.54,1.3,1.56,2.93,3.18,3.37,1.32.35,2.71-.69,2.83-1.59.48-3.49-7.88-3.26-6.24-8.96.81-2.81,3.7-3.9,6.64-3,.86.26,1.68.7,1.97,1.17.54.87.63,2.1-.15,2.89-.79-1.52-1.31-2.46-2.12-2.82-1.23-.54-3.46-.16-3.63,1.23-.4,3.15,5.33,2.75,6.66,6.32.55,1.46.26,3.18-1.17,4.54Z"/>
    <path class="cls-4" d="M190.48,376.36c-2.53,2.49-6.79,2.2-8.86.1.21-5.36,1.26.14,4.59.42,1.47.12,3.41-2.42,1.82-3.59-2.13-1.56-5.47-1.93-6.21-5.05-.5-2.11,1.38-4.08,2.84-4.73,1.99-.89,4.71-.92,5.93.84.43.62.28,2.17-.31,2.85-.37-1.86-2.19-3.48-4.26-2.62-.91.38-1.1,1.46-.97,2.25.3,1.78,3.9,1.69,5.73,4.24.95,1.32,1.1,3.93-.29,5.3Z"/>
    <path class="cls-4" d="M348.09,372.07c-.18-.84-2.14-1.91-2.82-1.28-.52,1.77-.4,3.89.02,5.4l3.5.08c.76.02,1.21-1.32,1.54-2.45,1.8.74,1.17,3.49.08,3.52l-9.54.28c1.06-4.72,1.08-9.23,0-13.87l9.64-.03c.15,1.24.3,2.19-.24,3.53-.43-1.24-1.01-2.03-1.84-2.55-.87-.54-3.15-.65-3.28.17-.27,1.68-.4,3.7.14,4.86.61.76,2.61-.36,2.86-1.26.48,1.08.65,1.85-.07,3.59Z"/>
    <path class="cls-4" d="M395.39,372.02c-.24-.43-1.38-1.73-2.64-1.34-.78,1.07-.8,4.39-.02,5.42,1.1.46,2.42.13,3.35.19s1.12-1.7,1.58-2.22c1.53.2,1.27,3.28,0,3.31l-9.51.19c1.05-4.65,1.07-9.18,0-13.83l9.64-.02c.15,1.25.3,2.19-.24,3.54-.43-1.24-1.01-2.03-1.84-2.55-.88-.54-3.14-.65-3.28.17-.27,1.69-.4,3.7.14,4.86.61.76,2.61-.36,2.86-1.26.48,1.09.65,1.83-.05,3.54Z"/>
    <path class="cls-4" d="M411.46,377.25l-.97-3.48c-.2-.71-2.58-.58-3.71-.22-2.3.74.2,4.02-1.61,4.1-.69.03-1.43.1-1.69-.4-.42-.79.84-1.48,1.04-1.99l5.22-12.9,6.09,15.02c-.79.31-3,.69-4.35-.13ZM409.65,371.42l-.96-4.3-1.83,4.67c.93.75,2.93.25,2.79-.36Z"/>
    <path class="cls-4" d="M104.83,373.36c.55,1.28.45,2.56.24,4.29l-10.07-.08c.67-4.56.74-8.92,0-13.72,1.62-.29,3.38-.22,5.06.01-.94,4.06-.37,7.69-.41,11.84,0,.71,2.13.8,2.91.41.68-.33,1.11-1.09,2.26-2.76Z"/>
    <path class="cls-4" d="M204.24,376.22c5.05-.25,2.62-12.55,2.42-12.16.14-.26.77-.68,1.89-.3-1.34,6.34,1.47,13.84-5.07,14.28-3.53.23-6.15-2.03-5.94-6,.14-2.67.51-5.38-.45-8.15,1.39-.31,2.8-.29,4.76-.1-1.52,6.1-1.3,12.61,2.4,12.42Z"/>
    <path class="cls-4" d="M251.49,373.3c-1.4-.1-2.83.05-3.2.97-.25.62-.18,1.7-.02,2.87-.08.7-2.19.76-2.63.12,3.25-3.59,3.1-9.78,6.39-14.31,1.39.78,1.83,2.22,2.37,3.76l3.83,10.78-5.05.02c.59-.84.72-1.49.62-2.18-.16-1-.51-1.9-2.31-2.03ZM252.46,371.57c-.41-2.14-.8-2.98-1.8-3.79l-.85,3.71c-.21.91,2.79.81,2.65.08Z"/>
    <path class="cls-4" d="M237.87,377.5l-6.3-.03c1-.94,1.6-1.82,1.57-3.34l-.2-9.62c-1.4-.73-2.98.98-3.46,2.84-.92-1.15-.68-2.26-.46-3.64l11.39.09c.52,1.32,1.77,2.45.07,3.9-.35-2.02-2.32-3.97-3.74-3.15l-.17,10.23c-.02,1.06.56,1.66,1.3,2.73Z"/>
    <path class="cls-4" d="M445.06,377.5l-6.28-.05c.99-.94,1.59-1.8,1.56-3.33l-.2-9.62c-1.4-.73-2.98.97-3.47,2.84-.92-1.16-.68-2.25-.46-3.64l11.67.23c-.04,1.16.54,1.82.63,2.18s-.59,1.03-1.31,1.01c.24-1.71-2.21-3.41-3.22-2.54l-.22,10.2c-.02,1.06.56,1.65,1.3,2.73Z"/>
    <path class="cls-4" d="M299.46,377.22c-.6-.41-.15-2.57-.63-3.13-.96-1.13-5.04-.86-5.2-.28-.41,1.51.4,3.33-.41,3.76-.36.19-1.37.19-1.7-.29-.52-.75.62-1.2.77-1.6l4.72-12.28c.3-.78,1.99.64,2.3,1.49l4.59,12.58c-1.05.16-3.12.66-4.45-.26ZM297.73,371.42l-.97-3.61c-.9.86-1.52,2.09-1.7,3.76-.09.83,2.92.79,2.67-.15Z"/>
    <path class="cls-4" d="M425.26,375.83c.03.71,2.56.55,3.33.29s1.35-1.33,2.22-2.77c.72.7.72,3.09-.07,3.86-3.32.86-6.75.31-9.65.26.68-4.71.7-8.95-.01-13.6,1.25-.28,2.67-.24,4.72-.07-.6,1.64-.91,2.94-.84,4.76l.29,7.27Z"/>
    <path class="cls-4" d="M329.77,375.39c0,1.19,1.98,1.16,3.02.91s1.46-.96,2.65-2.71c.58,1.67-.14,2.46-.4,3.98h-9.45c.98-4.51,1-8.94.22-13.69,1.26-.29,2.66-.27,4.67-.09-1.22,3.66-.72,7.1-.71,11.6Z"/>
    <path class="cls-4" d="M132.67,377.37c-1.5.38-3.41.33-5,.08.71-4.68.7-8.95,0-13.59l5.03-.11c-.67,4.38-.75,8.44-.03,13.62Z"/>
    <path class="cls-4" d="M76.96,364.17c.1-.72,1.81-.78,2.23-.19l-.64,9.16c-.25,3.52-3.41,5.55-6.14,4.9-7.55-1.81-1.67-9.68-5.53-14.18,2.26-.28,3.74-.23,5.45.03-.95,4.93-1.21,10.78.85,12.03.81.49,3.05.17,3.96-.82.36-3.1.46-7.17-.19-10.91Z"/>
    <path class="cls-4" d="M89.57,377.38c-1.42.36-3.07.33-5.39.1,1.31-1.32,1.3-2.52,1.32-4.18l.07-7.43c0-.87-.77-1.4-1.36-2.03l5.38.02c-.7,4.51-.72,8.48-.02,13.52Z"/>
    <path class="cls-4" d="M268.41,377.24c-1.14.63-2.87.47-4.68.25.97-4.4.99-8.89.21-13.62,1.33-.29,3.02-.31,4.36-.01-.71,4.4-.81,8.31.11,13.38Z"/>
    <g>
      <g>
        <path class="cls-4" d="M218.48,332.63c-1.84-2.94-6.73-2.39-9.7-2.19l-.12,13.02,4.82.05-.02,2.82-17.78-.02-.03-2.7,5.55-.11v-28.42s-5.13-.15-5.13-.15c-.82-.02-.74-3.11.33-3.11l20.97.12c5.35.03,11.31,2.76,12.42,8.45.8,4.12-2.93,7.61-6.89,9.05,2.03,1.55,3.75,2.64,4.11,4.88l1.15,7.13c.27,1.65,1.15,2.74,2.52,2.91,3.36.43,2.63-4.14,4.83-4.3.71-.05,1.5.61,1.41,1.58-.35,3.77-3.54,5.65-7.35,5.49-3.21-.14-7.16-.54-8.85-3.71l-2.25-10.77ZM220.56,325.65c1.73-1.76,1.41-7.3-.25-8.78-3.08-2.74-7.76-1.86-11.58-1.8l.02,12.48c3.84-.17,8.67,1.29,11.81-1.9Z"/>
        <path class="cls-4" d="M148.08,346.33h-22.59c-.17-1.05-.15-1.76-.02-2.77l7.5-.05v-27.72s-4.23-.11-4.23-.11c-1.93-.05-3.78.43-5.04,1.58-2.39,2.17-1.36,6.39-2.53,7.87-2.41,3.03-2.76-4.64-1.17-12.88l33.25.02c.8,4.22,1.57,8.8,1.09,12.95-4.15,1.53-1.14-7.03-6.49-9.07-2.25-.86-4.77-.45-7.34-.3v27.64s7.63.07,7.63.07l-.06,2.77Z"/>
        <path class="cls-4" d="M72.74,343.44l-2.48-6.19-12.96.06c-1.13,1.56-2.53,4.04-1.82,5.73.54.51,2.06.58,2.61.65.79.09,1.62,1.57.99,2.54l-12.77.08c-1.65-4.93,3.76-.59,5.68-5.27l11.92-28.94c.34-.83,1.45-1.22,1.97-1.21.57,0,1.55.38,1.9,1.24l12.68,31.02c1.77.64,3.33.48,5.09.35l-.06,2.87-16.92-.1c-.57-.7-.45-2.55.15-2.67.74-.14,1.94.02,4.02-.15ZM68.58,333.73l-4.88-12.11-5.16,12.17,10.05-.06Z"/>
        <path class="cls-4" d="M119.61,332.95l-1.46,13.38-28.83.02v-2.82s4.88-.11,4.88-.11l.04-28.31-4.97-.08.08-3.54c6.45,1.19,12.63,1.11,19.08,0l.1,3.48-6.24.09.03,28.45c3.54.24,7.3.26,10.2-1.61,2.83-1.82,3.7-5.4,4.05-8.48.17-1.47,3.12-1.29,3.03-.45Z"/>
        <path class="cls-4" d="M177.74,331.73c-1.59-1.81-4.34-1.7-6.59-1.32l-.02,13.07c3.78.18,7.22.27,10.66-.38,8.91-1.66,6.89-9.48,8.22-10.39.37-.25,1.26-.43,2.64-.21l-2.29,13.85-32.14-.04-.02-2.76,5.42-.07v-28.41s-5.4-.09-5.4-.09c-.2-1.13-.16-2.08.23-2.68l31.12.06,1.68,11.88c.08.56-1.65.87-2.27.51-1.57-.89-1.05-7.06-4.5-8.33-4.26-1.56-8.69-1.52-13.35-1.36l.02,11.76c1.99.24,4.23.53,5.83-.49,1.5-.95,1.69-3.2,1.94-4.85.99-.2,1.64-.16,2.67-.04v14.34c-1.01.16-1.69.17-2.67-.02-.2-1.24-.19-2.9-1.19-4.04Z"/>
      </g>
      <g>
        <path class="cls-4" d="M331.74,346.43c-8.61-2.27-3.27-12.03-7.38-14.84-2.66-1.82-6.08-1.31-9.21-1.17l-.03,13.06,4.14.09c.75.02,1.21.66,1.34,1.06.19.6-.42,1.63-1.36,1.64l-16.52.07c-.18-1.07-.15-1.77-.02-2.77l4.89-.12v-28.38s-4.92-.07-4.92-.07l.05-3.38,21.74.32c5.48.08,11.23,2.93,11.99,8.79.52,4-2.97,7.2-6.77,8.41,1.06,1.44,3.35,2.47,3.68,4.41l1.44,8.32c.31,1.78,1.53,2.54,2.93,2.54,3.52,0,2.14-4.27,4.17-4.35.61-.02,1.72.31,1.59,1.53-.15,1.43-1.06,4-2.62,4.71-2.79,1.27-6.3.88-9.13.13ZM325.01,327.14c4.06-1.27,4.81-8,1.73-10.36-3.34-2.56-7.64-1.8-11.58-1.72v12.57c3.23-.2,6.34.6,9.85-.5Z"/>
        <path class="cls-4" d="M381.69,329.23c0,10.22-8.28,18.5-18.5,18.5s-18.5-8.28-18.5-18.5,8.28-18.5,18.5-18.5,18.5,8.28,18.5,18.5ZM371.08,318.01c-3.15-5.03-12.12-5.33-15.52-.14-4.35,6.66-3.69,15.92.13,22.56,2.14,3.71,6.97,4.4,10.48,3.26,8.79-2.85,9.22-18.79,4.91-25.68Z"/>
        <path class="cls-4" d="M284.88,342.72c2.03-1.67,2.15-4.95,1.42-7.15-3.14-1.07-6.45.44-7.3-1.46-.25-.56.46-1.68,1.45-1.67l17.06.02c.38.53.46,1.98.17,2.34-.39.48-1.79.54-3.17.26l-.74,10.87c-1.21.92-3.98-.47-5.22-1.81-3.09,2.68-6.48,2.81-10.21,2.95-9.87.37-18.21-5.54-19.47-15.27-1.4-10.85,5.91-19.36,16.64-20.38,4.6-.44,8.78-.02,12.78,2.87.78.56,1.76-1.24,3.69-2.6.45-.31,2.05-.12,2.05.77v12.13c0,.69-1.78,1.2-3,.81-.39-6.84-6.69-12.25-13.74-10.74-8.79,1.89-10.24,6.31-10.27,14.94-.02,3.91.14,7.33,2.77,10.18,4.65,5.05,13.17,4.52,15.08,2.95Z"/>
        <path class="cls-4" d="M448.25,343.65c.42.51.46,1.82.21,2.67h-18.45s-.01-2.74-.01-2.74l5.53-.06v-28.42s-3.59-.09-3.59-.09c-1.35-.03-2.07-.73-2.07-1.72s.73-1.72,2.08-1.7l21.79.36c3.23.05,6.14,1.53,8.12,3.5,2.16,2.15,3.42,5.74,2.32,8.94-1.46,4.23-5.76,7.05-10.12,7.12l-10.98.17v11.84s5.18.14,5.18.14ZM456.41,321.65c.18-3.71-1.64-6.6-5.04-6.62l-8.39-.03v13.86c4.14.29,8.19.4,11.68-1.55,1.82-1.01,1.64-3.47,1.75-5.66Z"/>
        <path class="cls-4" d="M413.63,311.38c7.39,2.5,13.62-1.6,13.45,1.9-.05.98-.7,1.66-2.11,1.72l-3.52.15-.2,22.02c-.03,3.05-2.6,6.17-5.35,7.85-8.15,5-24.12,1-24.19-9.15l-.13-20.85-5.17-.26c-1.76-6,5.33-.68,15.8-3.06,1.15-.26,2.18.03,2.54.92s-.11,2.24-1.36,2.28l-4.28.15.15,22.06c.03,4.96,4.01,6.65,8.37,6.68,4.78.02,10.31-1.72,10.36-7.31l.19-21.42c-2.06-.16-3.6.16-5.05-.4-.31-1.38-.22-2.14.49-3.29Z"/>
      </g>
    </g>
  </g>
  <g>
    <polygon class="cls-1" points="250.92 133.75 183.37 290.17 282.78 265.67 259.42 240.15 227.94 249.67 250.92 133.75"/>
    <polygon class="cls-2" points="274.5 178.03 252.25 206.54 239.99 222.26 255.23 135.78 274.5 178.03"/>
    <polygon class="cls-3" points="328.63 296.65 265.7 231.33 251.8 216.91 251.8 216.71 277.73 185.11 310.3 256.47 328.63 296.65"/>
  </g>
</svg>