<?xml version="1.0" encoding="UTF-8"?>
<svg id="Layer_1" data-name="Layer 1" xmlns="http://www.w3.org/2000/svg" viewBox="0 0 512 512">
  <defs>
    <style>
      .cls-1 {
        fill: #972d33;
      }

      .cls-2 {
        fill: #029f4a;
      }
    </style>
  </defs>
  <path class="cls-1" d="M79.02,284.2c-7.37,0-13.94,3.48-18.14,8.89v-24.09h-4.87v38.22c0,.39.02.78.03,1.17.6,12.15,10.67,21.85,22.99,21.85s23-10.33,23-23.02-10.32-23.02-23-23.02ZM79.02,325.37c-10.01,0-18.14-8.14-18.14-18.14s8.14-18.14,18.14-18.14,18.13,8.14,18.13,18.14-8.14,18.14-18.13,18.14Z"/>
  <path class="cls-1" d="M56.03,308.39h-.03v-1.17c0,.39.02.78.03,1.17Z"/>
  <path class="cls-1" d="M160.76,307.22c0-12.69-10.33-23.02-23.02-23.02s-23.02,10.33-23.02,23.02,10.33,23.02,23.02,23.02c9.55,0,17.76-5.85,21.23-14.15l-4.78-1.23c-2.89,6.21-9.18,10.51-16.46,10.51-9.96,0-18.08-8.07-18.14-18.01h41.16v-.13ZM120.23,302.48c2.08-7.72,9.15-13.4,17.51-13.4s15.43,5.69,17.51,13.4h-35.02Z"/>
  <path class="cls-1" d="M192.34,284.38v4.94c-8.63,1.4-15.22,8.89-15.22,17.9v23.02h-4.87v-23.02c0-11.7,8.79-21.39,20.09-22.84Z"/>
  <path class="cls-1" d="M402.13,304.91v25.24h-4.87v-25.24c0-7.98-6.5-14.47-14.49-14.47s-14.47,6.5-14.47,14.47v25.24h-4.87v-25.24c0-10.67,8.67-19.35,19.35-19.35s19.36,8.67,19.36,19.35Z"/>
  <rect class="cls-1" x="342.5" y="267.32" width="4.87" height="62.83"/>
  <rect class="cls-1" x="208.65" y="285.57" width="4.87" height="44.67"/>
  <path class="cls-1" d="M267.5,304.91v25.24h-4.87v-25.24c0-7.98-6.5-14.47-14.49-14.47s-14.47,6.5-14.47,14.47v25.24h-4.87v-25.24c0-10.67,8.67-19.35,19.35-19.35s19.36,8.67,19.36,19.35Z"/>
  <path class="cls-1" d="M327.48,302.28c-.07-.28-.11-.54-.19-.8-.08-.36-.18-.7-.29-1.06-.18-.58-.39-1.17-.62-1.74-.1-.24-.2-.49-.31-.73-.18-.41-.36-.8-.57-1.19-.13-.26-.28-.54-.42-.8-.49-.88-1.04-1.72-1.64-2.52-.44-.58-.91-1.15-1.4-1.71-1.67-1.84-3.64-3.41-5.82-4.63-.28-.16-.57-.31-.86-.45-.24-.13-.49-.24-.75-.36-.39-.19-.78-.36-1.17-.5-.24-.11-.5-.21-.76-.29-.28-.1-.55-.19-.83-.28-.36-.11-.73-.21-1.09-.31-.37-.1-.75-.18-1.12-.26-.31-.06-.63-.13-.96-.18-1.2-.19-2.42-.29-3.67-.29-.39,0-.8.02-1.19.03-.23.02-.44.02-.67.05-.29.02-.58.05-.88.08-.41.05-.83.11-1.23.18-.08.02-.16.03-.23.05-.34.05-.67.11-.99.21-.08,0-.18.03-.26.06-.31.05-.6.13-.89.23-1.4.39-2.73.91-4,1.56-.36.18-.72.37-1.07.58-.21.11-.44.24-.65.39-.26.15-.5.31-.75.47-.26.16-.5.34-.76.54-.34.24-.68.52-1.01.78-.32.28-.65.55-.97.84-.31.29-.62.58-.91.89-.29.29-.55.58-.83.89-.29.34-.58.68-.86,1.04-3.05,3.9-4.87,8.82-4.87,14.13,0,.39.02.78.03,1.17v.1c.02.21.03.41.05.62.02.36.07.7.11,1.04.07.55.15,1.1.26,1.64.2.97.45,1.93.76,2.86.02.02.02.03.03.05.16.45.32.91.52,1.36.18.42.37.84.57,1.27.23.47.47.93.73,1.36.91,1.59,2.01,3.05,3.25,4.37l.02-.02c.5.54,1.04,1.06,1.59,1.54.02.02.03.03.05.03.29.26.58.49.88.73.31.23.62.47.93.68.34.26.7.49,1.06.71.29.18.58.36.88.52.54.31,1.1.6,1.67.86.29.13.58.26.89.39,1.27.52,2.6.94,3.98,1.22.37.08.76.16,1.14.21.36.06.7.11,1.06.15.84.1,1.69.15,2.57.15.47,0,.94-.02,1.41-.05.34-.02.68-.05,1.01-.08.75-.08,1.48-.2,2.21-.34.93-.18,1.82-.42,2.7-.73.28-.08.54-.18.8-.28.76-.29,1.49-.62,2.23-.99.32-.16.63-.32.94-.5.39-.21.76-.44,1.14-.7.28-.18.54-.36.8-.54.94-.65,1.82-1.4,2.63-2.18.28-.24.55-.52.81-.81.23-.24.45-.49.67-.73.29-.31.55-.62.8-.96v8.8c0,10.01-8.14,18.14-18.13,18.14-7.88,0-14.6-5.05-17.11-12.09l-4.69,1.32c3.07,9.08,11.68,15.64,21.8,15.64,12.69,0,23-10.33,23-23.02v-22.94c0-1.69-.18-3.35-.54-4.94ZM321.68,314.34c-.15.36-.29.7-.47,1.02-.21.44-.45.86-.7,1.27-.21.36-.44.7-.68,1.02,0,.03-.02.05-.03.07-.24.34-.49.67-.75.97-.02.03-.03.05-.05.06-.41.49-.83.96-1.28,1.4-.23.24-.47.45-.71.67-.24.23-.5.44-.76.63-2.18,1.74-4.76,2.97-7.59,3.54-.29.06-.58.11-.88.16-.31.05-.62.08-.91.11-.26.03-.52.05-.8.07-.34.02-.7.03-1.06.03s-.71-.02-1.06-.03c-.28-.02-.54-.03-.8-.07-.31-.03-.6-.06-.91-.11-.28-.03-.54-.08-.81-.15-.21-.03-.42-.08-.63-.13-.29-.08-.6-.15-.89-.24-.28-.08-.55-.16-.83-.26-1.93-.68-3.74-1.67-5.31-2.92-.26-.19-.5-.41-.75-.63-.75-.65-1.43-1.36-2.05-2.13-.28-.31-.52-.65-.76-.99-.02-.02-.03-.03-.03-.05-.24-.32-.47-.67-.68-1.02-.24-.41-.49-.83-.7-1.27-.18-.32-.32-.67-.47-1.02-.94-2.18-1.46-4.58-1.46-7.12,0-10.01,8.14-18.14,18.14-18.14s18.13,8.14,18.13,18.14c0,2.53-.52,4.94-1.46,7.12Z"/>
  <path class="cls-1" d="M328.01,304.91v2.31c0-.78-.03-1.56-.11-2.31h.11Z"/>
  <path class="cls-1" d="M426.22,293.93h-1.27v-9.31h4.31c1.53,0,3.05.53,3.05,2.5.08.94-.43,1.84-1.28,2.25.53.22,1.06.45,1.11,1.75l.08,1.69c0,.52.08.71.47.93v.18h-1.54c-.15-.77-.23-1.55-.22-2.33,0-.77-.16-1.66-1.66-1.66h-3.04l-.02,3.98ZM426.22,288.85h2.91c.92,0,1.89-.23,1.89-1.61s-1.05-1.52-1.68-1.52h-3.13v3.13Z"/>
  <path class="cls-1" d="M428.09,299.96c-5.89,0-10.68-4.79-10.68-10.68s4.79-10.68,10.68-10.68,10.68,4.79,10.68,10.68-4.79,10.68-10.68,10.68ZM428.09,280.22c-5,0-9.06,4.06-9.06,9.06s4.06,9.06,9.06,9.06,9.06-4.06,9.06-9.06-4.06-9.06-9.06-9.06Z"/>
  <g>
    <path class="cls-2" d="M380.85,170.77c-15.26,11.28-9.37,28.37-9.37,28.37,20.16-17.92,9.37-28.37,9.37-28.37Z"/>
    <path class="cls-2" d="M373.39,223.77c3.07-6.14-1.91-12.19-1.91-12.19,0,0-2.99,1.16-5.97,7.05-2.99,5.89-.66,15.93-.66,15.93,0,0,5.47-4.65,8.54-10.78Z"/>
    <path class="cls-2" d="M364.84,261.76c16.34-7.63,11.2-19.08,11.2-19.08-14.6,7.47-11.2,19.08-11.2,19.08Z"/>
    <path class="cls-2" d="M385.87,241.04c17.04-5.91,13.11-17.82,13.11-17.82-15.29,5.92-13.11,17.82-13.11,17.82Z"/>
    <path class="cls-2" d="M383.02,265.99c24.65,2.73,25.52-13.47,25.52-13.47-22.42-1.72-25.52,13.47-25.52,13.47Z"/>
    <path class="cls-2" d="M402.94,244.05c20.81,2.47,21.42-11.03,21.42-11.03-18.92-1.62-21.42,11.03-21.42,11.03Z"/>
    <path class="cls-2" d="M419.11,265.56c32.81,13.94,36.89-6.26,36.89-6.26-29.99-11.71-36.89,6.26-36.89,6.26Z"/>
    <path class="cls-2" d="M401.18,187.22c-26.13,14.13-19.54,35.13-19.54,35.13,29.27-14.5,19.54-35.13,19.54-35.13Z"/>
    <path class="cls-2" d="M419.11,204.45c-16.82,3.9-16.86,15.68-16.86,15.68,18.21-.97,16.86-15.68,16.86-15.68Z"/>
    <path class="cls-2" d="M432.78,214.73c-11.2,2.57-11.94,11.36-11.94,11.36,13.6-.25,11.94-11.36,11.94-11.36Z"/>
    <path class="cls-2" d="M421.58,250.23c20.57,5.72,23.39-11.62,23.39-11.62-17.92-2-23.39,11.62-23.39,11.62Z"/>
    <path class="cls-2" d="M345.68,158.82s-23.55,17.6,0,42.16c23.55-24.55,0-42.16,0-42.16Z"/>
    <path class="cls-2" d="M345.68,206.48s-16.33,12.02,0,28.78c16.33-16.76,0-28.78,0-28.78Z"/>
    <path class="cls-2" d="M345.68,242.52s-11.01,6.32,0,15.14c11.01-8.82,0-15.14,0-15.14Z"/>
    <path class="cls-2" d="M319.89,199.14s5.89-17.09-9.37-28.37c0,0-10.78,10.45,9.37,28.37Z"/>
    <path class="cls-2" d="M319.89,211.58s-4.98,6.06-1.91,12.19c3.07,6.14,8.54,10.78,8.54,10.78,0,0,2.32-10.04-.66-15.93-2.99-5.89-5.97-7.05-5.97-7.05Z"/>
    <path class="cls-2" d="M315.32,242.69s-5.14,11.45,11.2,19.08c0,0,3.4-11.61-11.2-19.08Z"/>
    <path class="cls-2" d="M292.39,223.22s-3.93,11.92,13.11,17.82c0,0,2.19-11.9-13.11-17.82Z"/>
    <path class="cls-2" d="M282.83,252.52s.87,16.21,25.52,13.47c0,0-3.1-15.2-25.52-13.47Z"/>
    <path class="cls-2" d="M267.01,233.02s.61,13.5,21.42,11.03c0,0-2.49-12.64-21.42-11.03Z"/>
    <path class="cls-2" d="M235.37,259.29s4.08,20.2,36.89,6.26c0,0-6.9-17.98-36.89-6.26Z"/>
    <path class="cls-2" d="M290.18,187.22s-9.73,20.64,19.54,35.13c0,0,6.59-21.01-19.54-35.13Z"/>
    <path class="cls-2" d="M289.11,220.12s-.04-11.78-16.86-15.68c0,0-1.35,14.7,16.86,15.68Z"/>
    <path class="cls-2" d="M270.53,226.1s-.75-8.79-11.94-11.36c0,0-1.66,11.12,11.94,11.36Z"/>
    <path class="cls-2" d="M269.78,250.23s-5.47-13.62-23.39-11.62c0,0,2.82,17.35,23.39,11.62Z"/>
  </g>
</svg>