<?xml version="1.0" encoding="UTF-8"?>
<svg id="Layer_1" data-name="Layer 1" xmlns="http://www.w3.org/2000/svg" xmlns:xlink="http://www.w3.org/1999/xlink" viewBox="0 0 512 512">
  <defs>
    <style>
      .cls-1 {
        fill: url(#linear-gradient);
      }
    </style>
    <linearGradient id="linear-gradient" x1="46" y1="256" x2="466" y2="256" gradientUnits="userSpaceOnUse">
      <stop offset="0" stop-color="#5cac5f"/>
      <stop offset="1" stop-color="#186d96"/>
    </linearGradient>
  </defs>
  <path class="cls-1" d="M402.46,260.73h-87.14v-18.69h106.12v13.22l44.57-25.87-44.57-25.87v17.63h-185.02v-13.29h43.78v-20.97h-43.78v.07h-.07c-11.51,0-20.9,9.31-20.9,20.83v13.36h-21.32v-34.26h-20.9v34.26h-106.26c-11.59,0-20.97,9.38-20.97,20.9v62.12c0,11.58,9.38,20.97,20.97,20.97h105.62c11.59,0,20.97-9.38,20.97-20.97v-62.12h21.89v83.09h20.97v-83.09h58v18.69c0,1.14.07,2.2.28,3.27.07.28.07.5.14.71.14.57.28,1.21.43,1.78.14.57.36,1.14.57,1.71.21.5.5,1.07.71,1.63,3.34,6.97,10.52,11.8,18.76,11.8h87.14v22.6h-108.04v20.9h108.04c11.59,0,20.9-9.38,20.9-20.9v-22.6c0-11.59-9.31-20.9-20.9-20.9ZM173.23,289.8c0,7.53-6.11,13.65-13.65,13.65h-79.61c-7.53,0-13.58-6.11-13.58-13.65v-33.41c0-7.53,6.04-13.65,13.58-13.65h79.61c7.53,0,13.65,6.11,13.65,13.65v33.41Z"/>
</svg>