<?xml version="1.0" encoding="UTF-8"?>
<svg id="Layer_1" data-name="Layer 1" xmlns="http://www.w3.org/2000/svg" viewBox="0 0 512 512">
  <defs>
    <style>
      .cls-1 {
        fill: #474b4f;
      }

      .cls-2 {
        fill: #59c5c7;
      }
    </style>
  </defs>
  <path class="cls-2" d="M254.18,124.25c-48.27,0-87.41,39.13-87.41,87.41s39.13,87.41,87.41,87.41,87.41-39.13,87.41-87.41-39.13-87.41-87.41-87.41ZM248.83,242.61c-1.09,3.42-3.48,5.52-7.46,5.52h-34.3v-59.6c0-6.62-.99-11.04-6.96-11.04h-1.99v-2.21h42.36c6.86,0,8.45,4.42,8.45,8.83v8.28h-1.99c0-8.83-4.47-12.69-12.43-12.69h-18.5v28.7h26.85v4.42h-26.85v30.9h17.4c9.05,0,13.82-3.31,16.9-12.14l1.99.55-3.48,10.48ZM289.56,250.01c-10.74,0-22.67-5.19-22.67-13.46v-11.81h1.79c2.29,14.9,8.75,20.86,19.98,20.86,6.76,0,13.03-3.86,13.03-11.26,0-6.51-3.68-10.48-10.94-15.23l-12.23-8.06c-8.45-5.63-11.63-10.71-11.63-18.98,0-11.37,7.76-18.76,19.29-18.76,9.84,0,21.48,4.86,21.48,13.25v11.81h-1.79c-2.29-14.9-8.45-20.64-19.69-20.64-5.87,0-11.53,4.3-11.53,11.15,0,6.4,3.78,9.71,11.04,14.46l12.23,8.06c8.45,5.63,12.33,9.93,12.33,18.21,0,12.36-7.95,20.42-20.68,20.42Z"/>
  <g>
    <path class="cls-1" d="M49.49,332.21c0-2.41-.4-4.02-2.81-4.02h-.68v-.92h3.94c2.81,0,3.62.92,3.62,4.94v19.93h14.14v1.65h-18.2v-21.57Z"/>
    <path class="cls-1" d="M89.87,348.77l-1-2.53h-11.09l-3.25,7.55h-1.89l11.41-26.51h1.36l8.88,21.49c1.21,2.85,2.25,3.94,4.38,4.14v.88c-.44.12-1.08.2-1.69.2-2.05,0-5.34-.6-7.11-5.22ZM88.06,344.59l-4.7-11.37-4.94,11.37h9.64Z"/>
    <path class="cls-1" d="M103.65,349.61v-4.42h.84c.88,5.47,3.49,7.64,8.03,7.64,2.81,0,5.18-1.41,5.18-4.06,0-2.33-1.49-3.77-4.34-5.47l-4.94-2.93c-3.46-2.05-4.78-3.98-4.78-6.99,0-4.14,3.25-6.83,8.11-6.83,4.1,0,8.8,1.77,8.8,4.82v4.42h-.84c-.93-5.47-3.42-7.59-7.83-7.59-2.49,0-4.66,1.57-4.66,4.02s1.57,3.49,4.38,5.19l4.94,2.93c3.49,2.05,5.06,3.7,5.06,6.71,0,4.54-3.33,7.43-8.8,7.43-4.38,0-9.16-1.85-9.16-4.86Z"/>
    <path class="cls-1" d="M131.42,332.21c0-2.41-.4-4.02-2.81-4.02h-.68v-.92h17.27c2.77,0,3.41,1.6,3.41,3.21v3.13h-.93c0-3.3-1.81-4.7-5.02-4.7h-7.19v10.36h10.73v1.65h-10.73v11.21h6.99c3.46,0,5.38-1.2,6.67-4.46l.88.24-1.33,3.66c-.48,1.36-1.37,2.21-3.13,2.21h-14.14v-21.57Z"/>
    <path class="cls-1" d="M169.83,348.36l-4.02-6.79h-2.49v12.21h-4.06v-21.57c0-2.41-.4-4.02-2.81-4.02h-.68v-.92h10.61c3.46,0,10.24.8,10.24,7.23,0,4.5-3.37,6.1-6.43,6.83l4.22,7.03c2.05,3.41,3.49,4.38,5.3,4.58v.85c-.44.2-1.49.4-2.53.4-2.81,0-4.74-1.44-7.35-5.82ZM166.09,340.09c2.41,0,6.11-1.48,6.11-5.66s-3.7-5.7-6.11-5.7c-.72,0-1.85.16-2.77.4v10.97h2.77Z"/>
    <path class="cls-1" d="M198.16,344.65c0-1.86,1.55-2.95,3.22-4.09-.9-.81-2.3-2.39-2.3-4.34,0-2.13,1.55-3.42,4.05-3.42s3.74,1.29,3.74,3.07c0,1.97-1.53,3.2-3.26,4.38l4.32,4.71c.59-.66,1.07-1.31,1.42-1.84.2-.31.37-.59.53-.88l.52.37c-.13.31-.28.61-.48.94-.33.55-.81,1.27-1.45,1.97l1.99,2.17h-2.56l-.88-.92c-.77.59-2.19,1.36-4.05,1.36-3.33,0-4.82-1.54-4.82-3.49ZM206.53,346.2l-4.43-4.82c-.94.83-1.64,1.75-1.64,3.04,0,1.91.96,2.92,2.87,2.92,1.31,0,2.39-.48,3.2-1.14ZM204.82,336.08c0-1.84-.94-2.5-1.69-2.5-.9,0-1.78.66-1.78,2.63,0,1.69,1.29,3,1.56,3.22,1.07-.92,1.91-1.91,1.91-3.35Z"/>
    <path class="cls-1" d="M245.11,348.77l-1-2.53h-11.09l-3.25,7.55h-1.89l11.41-26.51h1.36l8.88,21.49c1.21,2.85,2.25,3.94,4.38,4.14v.88c-.44.12-1.08.2-1.69.2-2.05,0-5.34-.6-7.11-5.22ZM243.3,344.59l-4.7-11.37-4.94,11.37h9.64Z"/>
    <path class="cls-1" d="M260.94,332.21c0-2.41-.4-4.02-2.81-4.02h-.68v-.92h17.27c2.77,0,3.41,1.6,3.41,3.21v3.13h-.92c0-3.3-1.81-4.7-5.02-4.7h-7.19v10.36h10.72v1.65h-10.72v11.21h6.99c3.46,0,5.38-1.2,6.67-4.46l.88.24-1.33,3.66c-.48,1.36-1.37,2.21-3.13,2.21h-14.14v-21.57Z"/>
    <path class="cls-1" d="M286.73,349.61v-4.42h.84c.88,5.47,3.49,7.64,8.03,7.64,2.81,0,5.18-1.41,5.18-4.06,0-2.33-1.49-3.77-4.34-5.47l-4.94-2.93c-3.46-2.05-4.78-3.98-4.78-6.99,0-4.14,3.25-6.83,8.11-6.83,4.1,0,8.8,1.77,8.8,4.82v4.42h-.84c-.92-5.47-3.42-7.59-7.83-7.59-2.49,0-4.66,1.57-4.66,4.02s1.57,3.49,4.38,5.19l4.94,2.93c3.49,2.05,5.06,3.7,5.06,6.71,0,4.54-3.33,7.43-8.8,7.43-4.38,0-9.16-1.85-9.16-4.86Z"/>
    <path class="cls-1" d="M320.4,328.92h-3.41c-3.13,0-4.94,1.36-4.94,4.7h-.88v-3.13c0-1.61.64-3.21,3.41-3.21h18.72v1.65h-8.88v24.86h-4.02v-24.86Z"/>
    <path class="cls-1" d="M341.86,332.21c0-2.41-.4-4.02-2.81-4.02h-.68v-.92h3.94c2.81,0,3.62.92,3.62,4.94v7.07h11.73v-12.01h4.02v21.57c0,2.41.4,4.02,2.81,4.02h.72v.92h-3.94c-2.81,0-3.61-.88-3.61-4.94v-7.92h-11.73v12.86h-4.06v-21.57Z"/>
    <path class="cls-1" d="M374,332.21c0-2.41-.4-4.02-2.81-4.02h-.68v-.92h17.28c2.77,0,3.41,1.6,3.41,3.21v3.13h-.92c0-3.3-1.81-4.7-5.02-4.7h-7.19v10.36h10.73v1.65h-10.73v11.21h6.99c3.46,0,5.38-1.2,6.67-4.46l.88.24-1.33,3.66c-.48,1.36-1.37,2.21-3.13,2.21h-14.14v-21.57Z"/>
    <path class="cls-1" d="M407.75,328.92h-3.41c-3.13,0-4.94,1.36-4.94,4.7h-.88v-3.13c0-1.61.64-3.21,3.42-3.21h18.72v1.65h-8.88v24.86h-4.02v-24.86Z"/>
    <path class="cls-1" d="M428.52,348.85v-21.57h4.06v21.57c0,2.41.4,4.02,2.81,4.02h.68v.92h-3.94c-2.81,0-3.62-.88-3.62-4.94Z"/>
    <path class="cls-1" d="M442.14,340.93c0-8.08,5.63-14.46,12.65-14.46,4.62,0,7.87,1.49,9.32,3.22,1.04,1.29,1.01,3.65,1.01,6.07h-.88c-1.01-5.19-3.78-7.64-8.24-7.64-5.18,0-9.4,3.17-9.4,12.82,0,6.03,2.69,12.01,9.4,12.01,3.94,0,6.87-2.01,9.04-5.66l.96.72c-2.57,4.86-6.19,6.59-11.21,6.59-7.83,0-12.65-6.03-12.65-13.66Z"/>
  </g>
  <g>
    <path class="cls-1" d="M93.06,376.06v.67h-2.14v7.33h-1.6v-7.33h-1.67v-.67h1.67v-.94c0-.43.08-.84.23-1.23.16-.39.37-.72.64-1.01.27-.28.59-.51.95-.68.36-.17.75-.25,1.16-.25.36,0,.67.03.95.11.28.07.51.17.7.29.19.12.33.27.43.43.1.16.15.34.15.53,0,.23-.08.42-.24.55-.16.14-.36.2-.58.2-.2,0-.35-.03-.45-.11-.1-.07-.18-.17-.23-.28-.05-.11-.1-.24-.13-.37-.04-.13-.08-.25-.14-.37s-.14-.21-.26-.28c-.11-.07-.27-.11-.48-.11-.16,0-.31.05-.45.14-.14.09-.25.22-.35.36-.09.15-.17.32-.23.51-.06.19-.08.39-.08.6v1.89h2.14Z"/>
    <path class="cls-1" d="M100.37,384.23c-.62,0-1.19-.1-1.7-.32-.52-.21-.96-.5-1.34-.87-.38-.37-.67-.8-.88-1.29-.21-.49-.31-1.02-.31-1.58,0-.59.11-1.14.31-1.66.21-.52.5-.97.88-1.36.38-.38.82-.69,1.34-.91.52-.22,1.08-.34,1.7-.34s1.16.1,1.68.31c.52.21.96.48,1.34.84.37.35.66.77.88,1.24.21.48.32.99.32,1.54,0,.61-.11,1.18-.32,1.71-.21.53-.5,1-.88,1.4s-.82.72-1.34.94c-.52.23-1.08.34-1.68.34ZM100.67,383.65c.31,0,.6-.08.86-.24.26-.16.48-.38.67-.65.19-.28.34-.59.44-.95.11-.36.16-.75.16-1.15,0-.58-.05-1.12-.15-1.63-.1-.5-.26-.94-.49-1.32-.22-.38-.51-.67-.87-.89-.36-.22-.8-.33-1.32-.33-.27,0-.53.08-.78.24-.25.16-.47.37-.66.63-.19.26-.34.57-.46.93-.11.36-.17.74-.17,1.14,0,.58.06,1.13.19,1.64.13.51.3.96.54,1.34.24.38.52.69.86.91.34.22.73.33,1.17.33Z"/>
    <path class="cls-1" d="M108.29,376.06h1.59v1.51c.16-.22.32-.43.5-.63.18-.2.36-.38.55-.54.19-.16.39-.28.6-.37.21-.09.42-.13.63-.13.17,0,.33.03.49.08.15.05.28.12.39.21s.2.19.26.3c.06.12.09.24.09.37,0,.26-.08.45-.24.59-.16.13-.38.2-.67.2-.18,0-.32-.02-.43-.06s-.21-.08-.29-.13c-.08-.05-.17-.09-.26-.13-.09-.04-.2-.06-.33-.06-.21,0-.42.12-.63.35-.21.23-.43.53-.65.89v5.55h-1.59v-8.01Z"/>
    <path class="cls-1" d="M123.61,373.68h3.29c.54,0,1.05.06,1.52.2.47.13.89.32,1.24.57.35.25.63.56.83.93.2.37.3.79.3,1.26s-.1.88-.29,1.23c-.2.35-.45.64-.77.87-.32.22-.68.4-1.09.51s-.82.17-1.25.17c-.18,0-.37,0-.57-.02-.19-.01-.38-.03-.57-.04-.18-.01-.35-.03-.51-.05-.16-.02-.28-.04-.38-.06v4.8h-1.75v-10.38ZM125.36,378.67c.2.06.41.11.64.16.23.05.45.08.68.08.38,0,.7-.06.98-.17s.52-.27.7-.46c.19-.19.33-.43.42-.69.09-.26.14-.54.14-.84,0-.35-.06-.66-.18-.95-.12-.28-.28-.53-.49-.72-.21-.2-.46-.35-.74-.46-.28-.11-.59-.16-.92-.16h-1.23v4.22Z"/>
    <path class="cls-1" d="M134.98,371.96c.13,0,.25.02.36.06s.2.1.29.18c.08.07.15.16.2.25.05.09.08.2.08.3s-.03.21-.08.31c-.05.1-.11.19-.2.25-.08.07-.18.13-.29.17-.11.04-.23.06-.36.06-.25,0-.46-.08-.64-.23-.18-.16-.27-.35-.27-.57,0-.1.02-.21.07-.3.05-.09.12-.18.2-.25.08-.08.18-.13.29-.18.11-.04.22-.06.34-.06ZM134.21,376.35l1.12-.46h.47v8.17h-1.58v-7.71Z"/>
    <path class="cls-1" d="M147.85,376.47v.67h-1.52c.16.21.28.46.38.73.09.27.14.54.14.82,0,.42-.09.8-.27,1.14-.18.34-.44.63-.77.87s-.72.43-1.18.56c-.45.13-.96.2-1.5.2-.21,0-.41-.02-.62-.05-.21-.03-.39-.07-.55-.13-.15.12-.28.27-.38.43-.11.17-.16.33-.16.5s.09.29.27.39c.18.09.42.15.74.16l2.96.13c.48.02.87.08,1.19.17.32.09.57.22.76.37.19.15.32.33.4.54.08.21.12.45.12.71,0,.47-.11.89-.32,1.26-.22.38-.53.7-.94.97-.41.26-.91.47-1.49.62-.59.14-1.25.22-1.99.22-1.33,0-2.32-.15-2.97-.44-.65-.3-.98-.7-.98-1.2,0-.22.05-.43.16-.63.11-.2.25-.39.42-.58s.36-.36.57-.54c.21-.17.42-.34.62-.49-.3-.1-.55-.23-.74-.39-.2-.16-.3-.35-.3-.58,0-.16.04-.33.13-.5.08-.18.2-.34.35-.5.15-.16.32-.31.52-.44.19-.13.41-.24.63-.31-.54-.23-.96-.55-1.27-.96-.3-.41-.46-.88-.46-1.41,0-.39.09-.76.27-1.11.18-.35.43-.66.74-.92.32-.26.69-.46,1.12-.62.43-.15.89-.23,1.38-.23.24,0,.48.02.71.05.23.03.45.08.65.13s.38.11.54.18c.16.07.28.14.36.22h2.29ZM141.42,384c-.23.18-.41.39-.54.64-.13.25-.19.49-.19.71,0,.18.06.34.19.51.12.16.31.31.56.43.25.13.56.22.94.3.38.07.82.11,1.32.11.53,0,1.01-.04,1.43-.13.42-.08.78-.19,1.07-.33.29-.13.52-.29.67-.46.16-.18.23-.35.23-.52,0-.36-.18-.63-.53-.79-.35-.16-.84-.25-1.46-.25-.38,0-.77,0-1.16-.03s-.76-.04-1.1-.06c-.34-.03-.64-.05-.89-.08-.26-.03-.44-.05-.55-.07ZM143.4,381.05c.23,0,.44-.05.65-.16.21-.1.39-.24.55-.42.16-.18.29-.38.38-.62.1-.24.14-.5.14-.77,0-.39-.05-.75-.16-1.09-.11-.34-.25-.63-.44-.87-.18-.25-.4-.44-.64-.58-.24-.14-.5-.21-.78-.21s-.5.06-.7.16c-.2.11-.36.26-.48.46-.13.2-.22.43-.28.69-.06.26-.09.55-.09.85,0,.36.05.7.13,1.01.09.31.21.59.37.82.16.23.35.41.58.54.23.13.47.2.74.2Z"/>
    <path class="cls-1" d="M151.51,376.06h1.6v1.5c.2-.22.43-.43.69-.63.25-.2.52-.38.79-.53.27-.15.55-.27.82-.36.27-.09.53-.13.77-.13s.47.04.72.13c.25.09.47.2.68.35.2.15.38.33.53.54.14.21.24.44.29.68.13-.24.32-.46.55-.66.23-.21.49-.39.77-.54.28-.15.58-.27.9-.36.31-.09.63-.13.93-.13s.58.06.85.2c.27.13.5.31.7.54.2.23.36.5.47.8.11.31.17.63.17.97v5.65h-1.59v-5.43c0-.22-.04-.43-.12-.63-.08-.2-.18-.38-.31-.53-.13-.15-.28-.27-.46-.36-.17-.09-.36-.13-.55-.13-.21,0-.43.03-.66.09-.23.06-.44.14-.65.25-.21.1-.39.22-.56.36-.17.14-.3.28-.4.44v5.95h-1.59v-5.43c0-.22-.04-.43-.12-.63-.08-.2-.18-.38-.31-.53-.13-.15-.28-.27-.46-.36-.18-.09-.36-.13-.55-.13-.21,0-.42.03-.63.09-.22.06-.43.15-.63.25-.21.11-.4.23-.58.37-.18.14-.32.28-.44.43v5.95h-1.6v-8.01Z"/>
    <path class="cls-1" d="M171.27,384.23c-.54,0-1.05-.1-1.52-.3s-.89-.48-1.25-.83c-.36-.35-.64-.76-.85-1.24-.21-.47-.31-.97-.31-1.51,0-.64.09-1.23.28-1.78.19-.55.45-1.02.8-1.41.34-.4.76-.71,1.24-.93.48-.22,1.02-.34,1.62-.34.52,0,1.01.09,1.44.28.44.19.81.44,1.13.75.31.31.56.67.73,1.07.17.41.26.83.26,1.28h-5.97c0,.54.07,1.04.21,1.5.14.46.33.85.58,1.19.25.34.55.6.89.78.34.19.72.28,1.13.28.35,0,.68-.06,1-.16.31-.11.6-.26.86-.44.26-.18.48-.39.66-.63.18-.23.31-.47.39-.72l.46.2c-.11.41-.3.8-.55,1.16-.25.36-.55.67-.89.94-.34.27-.71.48-1.12.64-.4.16-.81.23-1.22.23ZM172.85,378.63c0-.3-.05-.59-.16-.85-.11-.26-.25-.48-.44-.67-.19-.19-.41-.35-.66-.45-.25-.11-.52-.17-.8-.17-.24,0-.47.06-.69.16-.22.11-.42.26-.58.45-.17.19-.31.42-.43.68-.11.26-.18.54-.2.85h3.97Z"/>
    <path class="cls-1" d="M178.72,376.06h1.6v1.46c.48-.54.98-.94,1.51-1.21.52-.27,1.05-.41,1.59-.41.28,0,.54.06.78.19.24.13.46.3.64.51.18.22.32.47.43.77.11.29.16.61.16.94v5.75h-1.59v-5.47c0-.53-.12-.94-.36-1.21-.24-.27-.55-.41-.92-.41-.34,0-.71.11-1.11.32-.4.22-.78.5-1.14.84v5.93h-1.6v-8.01Z"/>
    <path class="cls-1" d="M193.69,383.04c-.21.37-.5.66-.85.87-.36.22-.79.32-1.3.32-.54,0-.94-.17-1.19-.51-.25-.35-.38-.79-.38-1.35v-5.64h-1.4v-.4c.45,0,.82-.08,1.11-.24.29-.16.53-.38.71-.66.19-.28.33-.6.43-.96.1-.37.19-.75.27-1.16h.46v2.73h1.79v.67h-1.79v5.64c0,.24.08.44.25.61.16.16.37.25.62.25.18,0,.34-.05.49-.13.14-.09.27-.2.39-.33l.39.27Z"/>
    <path class="cls-1" d="M202.73,384.06h-1.6v-1.1c-.18.14-.37.29-.55.44-.18.16-.38.29-.59.41-.21.12-.45.22-.7.3-.26.08-.55.12-.89.12-.31,0-.6-.05-.85-.15-.25-.1-.47-.25-.64-.42s-.31-.38-.41-.63-.14-.5-.14-.79c0-.35.07-.66.21-.93.14-.27.32-.52.56-.74.23-.22.51-.41.82-.58.31-.17.64-.32,1-.45.35-.13.72-.25,1.1-.35.38-.1.74-.2,1.1-.29v-.5c0-.37-.03-.68-.11-.93-.07-.25-.17-.45-.31-.6-.14-.16-.3-.26-.49-.33-.19-.07-.41-.1-.64-.1-.27,0-.49.03-.66.1-.17.07-.3.16-.4.28-.1.12-.16.25-.2.39-.03.14-.05.29-.05.44,0,.14-.01.28-.03.41-.02.13-.06.24-.12.33-.06.1-.14.18-.24.24-.1.06-.23.09-.39.09-.25,0-.45-.09-.6-.27-.15-.18-.23-.4-.23-.67s.09-.51.26-.74c.17-.23.41-.43.7-.6.3-.17.64-.3,1.03-.39.39-.1.8-.15,1.24-.15.52,0,.97.05,1.33.15.36.1.65.24.88.43.22.19.38.41.49.67.1.26.15.55.15.87v6.05ZM201.13,379.4c-.34.11-.7.24-1.07.4-.38.16-.72.34-1.03.55-.31.2-.57.43-.78.67-.21.25-.31.51-.31.79,0,.2.03.39.11.56.07.17.17.33.29.46.12.13.26.24.42.31.16.08.32.12.49.12.35,0,.68-.09.98-.26.3-.17.6-.38.91-.61v-2.99Z"/>
    <path class="cls-1" d="M211.3,383.04c-.21.37-.5.66-.85.87-.36.22-.79.32-1.3.32-.54,0-.94-.17-1.19-.51-.25-.35-.38-.79-.38-1.35v-5.64h-1.4v-.4c.45,0,.82-.08,1.11-.24.29-.16.53-.38.71-.66.19-.28.33-.6.43-.96.1-.37.19-.75.27-1.16h.46v2.73h1.79v.67h-1.79v5.64c0,.24.08.44.25.61.16.16.37.25.62.25.18,0,.34-.05.49-.13.14-.09.27-.2.39-.33l.39.27Z"/>
    <path class="cls-1" d="M215.28,371.96c.13,0,.25.02.36.06.11.04.2.1.29.18.08.07.15.16.2.25.05.09.08.2.08.3s-.03.21-.08.31c-.05.1-.11.19-.2.25-.08.07-.18.13-.29.17-.11.04-.23.06-.36.06-.25,0-.46-.08-.64-.23-.18-.16-.27-.35-.27-.57,0-.1.02-.21.07-.3.05-.09.12-.18.2-.25.08-.08.18-.13.29-.18s.22-.06.34-.06ZM214.51,376.35l1.12-.46h.47v8.17h-1.59v-7.71Z"/>
    <path class="cls-1" d="M224.11,384.23c-.62,0-1.19-.1-1.7-.32-.52-.21-.96-.5-1.34-.87-.38-.37-.67-.8-.88-1.29-.21-.49-.31-1.02-.31-1.58,0-.59.11-1.14.31-1.66.21-.52.5-.97.88-1.36.38-.38.82-.69,1.34-.91.52-.22,1.08-.34,1.7-.34s1.16.1,1.68.31c.52.21.96.48,1.33.84.37.35.66.77.88,1.24.21.48.32.99.32,1.54,0,.61-.11,1.18-.32,1.71-.21.53-.5,1-.88,1.4-.37.4-.82.72-1.33.94-.52.23-1.08.34-1.68.34ZM224.4,383.65c.31,0,.6-.08.86-.24.26-.16.48-.38.67-.65.19-.28.34-.59.44-.95.11-.36.16-.75.16-1.15,0-.58-.05-1.12-.15-1.63-.1-.5-.26-.94-.49-1.32-.22-.38-.51-.67-.87-.89-.36-.22-.8-.33-1.32-.33-.27,0-.53.08-.78.24-.25.16-.47.37-.66.63-.19.26-.35.57-.46.93-.11.36-.17.74-.17,1.14,0,.58.06,1.13.19,1.64.13.51.3.96.54,1.34.24.38.52.69.86.91.34.22.73.33,1.17.33Z"/>
    <path class="cls-1" d="M232.02,376.06h1.6v1.46c.48-.54.98-.94,1.51-1.21.52-.27,1.05-.41,1.59-.41.28,0,.54.06.78.19.24.13.46.3.64.51.18.22.32.47.43.77.11.29.16.61.16.94v5.75h-1.59v-5.47c0-.53-.12-.94-.36-1.21-.24-.27-.55-.41-.92-.41-.34,0-.71.11-1.11.32-.4.22-.78.5-1.14.84v5.93h-1.6v-8.01Z"/>
    <path class="cls-1" d="M256.77,373.68v13.9h-.74v-13.9h.74Z"/>
    <path class="cls-1" d="M274.49,373.68h3.29c.54,0,1.05.06,1.52.2.47.13.89.32,1.24.57.35.25.63.56.83.93.2.37.3.79.3,1.26s-.1.88-.29,1.23c-.2.35-.45.64-.77.87-.32.22-.68.4-1.09.51-.41.11-.82.17-1.25.17-.18,0-.37,0-.57-.02-.19-.01-.38-.03-.57-.04-.18-.01-.35-.03-.51-.05-.16-.02-.28-.04-.38-.06v4.8h-1.75v-10.38ZM276.23,378.67c.2.06.41.11.64.16.23.05.45.08.68.08.38,0,.7-.06.98-.17s.52-.27.7-.46c.19-.19.33-.43.42-.69.09-.26.14-.54.14-.84,0-.35-.06-.66-.18-.95-.12-.28-.28-.53-.49-.72-.21-.2-.46-.35-.74-.46-.28-.11-.59-.16-.92-.16h-1.23v4.22Z"/>
    <path class="cls-1" d="M285.85,371.96c.13,0,.25.02.36.06s.2.1.29.18c.08.07.15.16.2.25.05.09.08.2.08.3s-.03.21-.08.31c-.05.1-.11.19-.2.25-.08.07-.18.13-.29.17-.11.04-.23.06-.36.06-.25,0-.46-.08-.64-.23-.18-.16-.27-.35-.27-.57,0-.1.02-.21.07-.3.05-.09.12-.18.2-.25.08-.08.18-.13.29-.18s.22-.06.34-.06ZM285.08,376.35l1.12-.46h.47v8.17h-1.58v-7.71Z"/>
    <path class="cls-1" d="M290.77,376.06h1.6v1.5c.2-.22.43-.43.69-.63s.52-.38.79-.53c.27-.15.55-.27.82-.36.27-.09.53-.13.77-.13s.47.04.72.13c.25.09.47.2.68.35.2.15.38.33.53.54.14.21.24.44.29.68.13-.24.32-.46.55-.66.23-.21.49-.39.77-.54s.58-.27.9-.36c.31-.09.63-.13.93-.13s.58.06.85.2c.27.13.5.31.7.54.2.23.36.5.47.8.11.31.17.63.17.97v5.65h-1.59v-5.43c0-.22-.04-.43-.12-.63-.08-.2-.18-.38-.31-.53-.13-.15-.28-.27-.46-.36-.17-.09-.36-.13-.55-.13-.21,0-.43.03-.66.09-.23.06-.44.14-.65.25-.21.1-.39.22-.56.36-.17.14-.3.28-.4.44v5.95h-1.59v-5.43c0-.22-.04-.43-.12-.63-.08-.2-.18-.38-.31-.53-.13-.15-.28-.27-.46-.36-.18-.09-.36-.13-.55-.13-.21,0-.42.03-.63.09-.22.06-.43.15-.63.25-.21.11-.4.23-.58.37-.18.14-.32.28-.44.43v5.95h-1.6v-8.01Z"/>
    <path class="cls-1" d="M306.97,376.06h1.6v1.64c.16-.2.33-.41.53-.63.19-.22.41-.41.66-.58.24-.17.5-.31.79-.43.28-.11.6-.16.94-.16.48,0,.91.1,1.29.3.39.2.72.47.99.81.27.34.48.74.63,1.19.15.46.22.94.22,1.46,0,.66-.09,1.27-.27,1.83-.18.56-.44,1.04-.78,1.45-.34.41-.75.72-1.24.95-.48.22-1.03.34-1.63.34-.44,0-.82-.04-1.15-.14-.33-.09-.65-.24-.98-.44v3.79h-1.6v-11.38ZM308.57,381.9c0,.24.05.47.15.68.1.21.25.39.44.55.19.16.41.28.68.38.26.09.55.14.86.14s.58-.08.84-.23c.26-.16.49-.37.69-.65.2-.28.35-.61.46-.99.11-.39.17-.82.17-1.29,0-.59-.05-1.1-.16-1.54-.1-.44-.25-.81-.44-1.1-.19-.29-.41-.51-.67-.66-.25-.15-.53-.22-.83-.22-.23,0-.46.04-.66.11-.21.07-.41.17-.6.29-.19.12-.36.26-.52.41-.16.16-.3.32-.42.49v3.63Z"/>
    <path class="cls-1" d="M319.94,384.06h-1.6v-11.65l1.14-.46h.46v12.1Z"/>
    <path class="cls-1" d="M327.61,384.23c-.54,0-1.05-.1-1.52-.3-.47-.2-.89-.48-1.25-.83-.36-.35-.64-.76-.85-1.24-.21-.47-.31-.97-.31-1.51,0-.64.09-1.23.28-1.78.19-.55.45-1.02.8-1.41.34-.4.76-.71,1.24-.93.48-.22,1.02-.34,1.62-.34.52,0,1.01.09,1.44.28.44.19.81.44,1.13.75.31.31.56.67.73,1.07.17.41.26.83.26,1.28h-5.97c0,.54.07,1.04.21,1.5.14.46.33.85.58,1.19.25.34.55.6.89.78.34.19.72.28,1.13.28.35,0,.68-.06,1-.16.31-.11.6-.26.86-.44.26-.18.48-.39.66-.63.18-.23.31-.47.39-.72l.46.2c-.11.41-.3.8-.55,1.16-.25.36-.55.67-.89.94-.34.27-.71.48-1.12.64-.4.16-.81.23-1.22.23ZM329.19,378.63c0-.3-.05-.59-.16-.85-.11-.26-.25-.48-.44-.67-.19-.19-.41-.35-.66-.45-.25-.11-.52-.17-.8-.17-.24,0-.47.06-.69.16-.22.11-.42.26-.58.45-.17.19-.31.42-.43.68-.11.26-.18.54-.2.85h3.97Z"/>
    <path class="cls-1" d="M349.1,373.68v13.9h-.74v-13.9h.74Z"/>
    <path class="cls-1" d="M366.81,373.68h3.29c.54,0,1.05.06,1.52.2.47.13.89.32,1.24.57.35.25.63.56.83.93.2.37.3.79.3,1.26s-.1.88-.29,1.23c-.2.35-.45.64-.77.87-.32.22-.68.4-1.09.51-.41.11-.82.17-1.25.17-.18,0-.37,0-.57-.02-.19-.01-.38-.03-.57-.04-.18-.01-.35-.03-.51-.05-.16-.02-.28-.04-.38-.06v4.8h-1.75v-10.38ZM368.56,378.67c.2.06.41.11.64.16.23.05.45.08.68.08.38,0,.7-.06.98-.17.28-.11.52-.27.7-.46.19-.19.33-.43.42-.69.09-.26.14-.54.14-.84,0-.35-.06-.66-.18-.95-.12-.28-.28-.53-.49-.72-.21-.2-.46-.35-.74-.46-.28-.11-.59-.16-.92-.16h-1.23v4.22Z"/>
    <path class="cls-1" d="M381.06,384.23c-.62,0-1.19-.1-1.7-.32-.52-.21-.96-.5-1.34-.87-.38-.37-.67-.8-.88-1.29-.21-.49-.31-1.02-.31-1.58,0-.59.11-1.14.31-1.66s.5-.97.88-1.36c.38-.38.82-.69,1.34-.91.52-.22,1.08-.34,1.7-.34s1.16.1,1.68.31c.52.21.96.48,1.34.84.37.35.66.77.88,1.24.21.48.32.99.32,1.54,0,.61-.11,1.18-.32,1.71-.21.53-.5,1-.88,1.4s-.82.72-1.34.94c-.52.23-1.08.34-1.68.34ZM381.36,383.65c.31,0,.6-.08.86-.24.26-.16.48-.38.67-.65.19-.28.34-.59.44-.95.11-.36.16-.75.16-1.15,0-.58-.05-1.12-.15-1.63-.1-.5-.26-.94-.49-1.32-.22-.38-.51-.67-.87-.89-.36-.22-.8-.33-1.32-.33-.27,0-.53.08-.78.24-.25.16-.47.37-.66.63-.19.26-.34.57-.46.93-.11.36-.17.74-.17,1.14,0,.58.06,1.13.19,1.64.13.51.3.96.54,1.34.24.38.52.69.86.91.34.22.73.33,1.17.33Z"/>
    <path class="cls-1" d="M388.98,376.06h1.59v1.51c.16-.22.32-.43.5-.63.18-.2.36-.38.55-.54.19-.16.39-.28.6-.37.21-.09.42-.13.63-.13.17,0,.33.03.49.08.15.05.28.12.39.21s.2.19.26.3c.06.12.09.24.09.37,0,.26-.08.45-.24.59-.16.13-.38.2-.67.2-.18,0-.32-.02-.43-.06s-.21-.08-.29-.13c-.08-.05-.17-.09-.26-.13-.09-.04-.2-.06-.33-.06-.21,0-.42.12-.63.35-.21.23-.43.53-.65.89v5.55h-1.59v-8.01Z"/>
    <path class="cls-1" d="M400.68,384.23c-.54,0-1.05-.1-1.52-.3s-.89-.48-1.25-.83c-.36-.35-.64-.76-.85-1.24-.21-.47-.31-.97-.31-1.51,0-.64.09-1.23.28-1.78.19-.55.45-1.02.8-1.41.34-.4.76-.71,1.24-.93.48-.22,1.02-.34,1.62-.34.52,0,1,.09,1.44.28.44.19.81.44,1.13.75.31.31.56.67.73,1.07.17.41.26.83.26,1.28h-5.97c0,.54.07,1.04.21,1.5.14.46.33.85.58,1.19.25.34.55.6.89.78.34.19.72.28,1.13.28.35,0,.68-.06,1-.16.31-.11.6-.26.86-.44.26-.18.48-.39.66-.63.18-.23.31-.47.39-.72l.46.2c-.11.41-.3.8-.55,1.16-.25.36-.55.67-.89.94-.34.27-.71.48-1.12.64-.4.16-.81.23-1.22.23ZM402.27,378.63c0-.3-.05-.59-.16-.85-.11-.26-.25-.48-.44-.67-.19-.19-.41-.35-.66-.45-.25-.11-.52-.17-.8-.17-.24,0-.47.06-.69.16-.22.11-.42.26-.58.45-.17.19-.31.42-.43.68-.11.26-.18.54-.2.85h3.97Z"/>
    <path class="cls-1" d="M410.7,383.68c.21,0,.41-.03.6-.1.19-.07.34-.16.47-.27.13-.11.23-.24.31-.38.08-.14.11-.28.11-.44,0-.25-.06-.46-.19-.64-.12-.18-.28-.34-.48-.48-.2-.14-.43-.28-.68-.4-.25-.13-.52-.25-.79-.37-.27-.13-.53-.26-.79-.41-.26-.15-.48-.31-.68-.5-.2-.19-.36-.41-.49-.66-.12-.25-.19-.55-.19-.89,0-.32.07-.61.2-.89.13-.27.32-.51.57-.71.24-.2.53-.35.87-.47.33-.12.7-.17,1.1-.17.26,0,.51.02.74.06.23.03.46.1.68.21s.45.26.67.45c.22.19.45.45.69.76l-.58.52c-.31-.49-.64-.86-1.02-1.1-.37-.25-.77-.37-1.2-.37-.23,0-.43.03-.62.08-.19.06-.35.13-.49.23-.14.1-.24.21-.31.34-.07.13-.11.27-.11.41,0,.32.11.59.34.8.23.22.52.41.86.58.34.17.72.34,1.12.5.41.16.78.35,1.12.56.34.21.63.47.86.76.23.3.34.67.34,1.12,0,.34-.06.66-.19.95-.13.29-.31.55-.57.77-.26.22-.58.39-.96.51-.38.13-.83.19-1.34.19-.24,0-.48-.02-.72-.05-.25-.03-.5-.11-.74-.21-.25-.11-.5-.26-.75-.45-.25-.19-.5-.45-.74-.76l.65-.58c.19.27.38.5.55.69.18.19.36.35.54.47.19.12.38.21.58.26.2.06.41.09.64.09Z"/>
  </g>
</svg>