<?xml version="1.0" encoding="UTF-8"?>
<svg id="Layer_1" data-name="Layer 1" xmlns="http://www.w3.org/2000/svg" viewBox="0 0 512 512">
  <defs>
    <style>
      .cls-1 {
        fill: #fbba1b;
      }

      .cls-2 {
        fill: #6f1511;
      }
    </style>
  </defs>
  <g id="Logo">
    <path id="Icon_Logo" data-name="Icon Logo" class="cls-1" d="M253.17,74.59c-18.04,0-5.01,29.71,0,29.71,4.4,0,18.04-29.71,0-29.71ZM254.37,112.28c-58.58,33.82-33.58,94.29-6.61,134.87-7.32,12.46-16.18,26.21-26.71,41.52h41.36l-30.52-4.78s10.06-11.32,21.61-28.43c14.19,19.84,27.32,33.2,27.32,33.2-6.99-12.11-15.58-25.18-23.68-38.7,25.71-39.85,54.38-104.69-2.77-137.68ZM254.26,128.7c26.73,26.73,29.14,55.31-2.65,111.77-21.64-38.22-35.78-79.09,2.65-111.77ZM139.47,153.19c-10.03,0-2.44,16.52,0,16.52,2.78,0,10.03-16.52,0-16.52ZM366.7,153.19c-10.03,0-2.78,16.52,0,16.52,2.44,0,10.03-16.52,0-16.52ZM154.65,176.63c-4.07.05-8.76.76-14.22,2.29-12.51,33.3,22.88,50.76,48.59,36.29,6.04,3.69,13.32,4.47,23.16-1.12-7.56,1.25-12.91-.17-17.1-3.07,7.61-6.34,13.75-16.09,16.52-29.78-4.77,12.01-12.59,20.47-21.13,25.59-9.79-11.17-13.62-30.47-35.82-30.2ZM350.66,176.63c-21.45.24-25.3,19.18-34.97,30.2-8.54-5.12-16.35-13.58-21.13-25.59,2.77,13.69,8.91,23.44,16.52,29.78-4.2,2.9-9.55,4.33-17.1,3.07,9.85,5.59,17.12,4.8,23.17,1.11,25.71,14.47,61.09-2.98,48.58-36.29-5.85-1.64-10.81-2.34-15.07-2.29ZM153.57,185.74c12.63.01,19.81,15.09,29.48,24.67-19.06,7-38.41-1.63-34.12-24.03,1.63-.44,3.17-.64,4.65-.64ZM352.6,185.74c1.47,0,3.01.2,4.65.64,4.29,22.4-15.06,31.03-34.12,24.03,9.67-9.58,16.85-24.66,29.48-24.67ZM101.59,188.79c-13.52,0-3.29,22.25,0,22.25,3.75,0,13.52-22.25,0-22.25ZM404.58,188.79c-13.52,0-3.75,22.25,0,22.25,3.29,0,13.52-22.25,0-22.25ZM115.02,216.62c-4.37-.01-9.21.23-14.56.75-10.46,78.87,45.52,94.12,85.8,67.9,6.84,2.15,15.22,3.4,25.69,3.4-8.31-1.75-15.06-4.14-20.63-6.97,7.96-6.1,15.11-13.91,20.75-23.23-7.7,8.11-16.71,15.01-26.13,20.13-33.18-21.6-15.99-61.81-70.92-61.98ZM391.15,216.62c-54.93.17-37.74,40.38-70.92,61.98-9.41-5.13-18.43-12.03-26.13-20.13,5.63,9.32,12.79,17.13,20.75,23.23-5.57,2.83-12.33,5.22-20.64,6.97,10.47,0,18.85-1.26,25.69-3.4,40.28,26.22,96.26,10.97,85.81-67.9-5.35-.52-10.18-.76-14.56-.75ZM113.67,228.54c42.59-.17,33.6,38.09,64.92,53.66-33.75,14.73-69.44,5.38-66.2-53.64.43,0,.86-.01,1.28-.01h0ZM392.51,228.54c.42,0,.85,0,1.28.01,3.23,59.02-32.46,68.37-66.2,53.64,31.32-15.56,22.34-53.83,64.92-53.66h0Z"/>
    <path id="Text_Logo_2" data-name="Text Logo 2" class="cls-2" d="M400.13,414.69c-1.74,0-3.3.28-4.71.82-1.4.55-2.59,1.32-3.59,2.32-.98.99-1.74,2.19-2.28,3.58-.53,1.4-.79,2.94-.79,4.64s.27,3.21.81,4.6c.55,1.4,1.31,2.6,2.28,3.6.97.99,2.13,1.77,3.47,2.32,1.34.55,2.82.82,4.43.82.92,0,1.77-.05,2.56-.15.79-.09,1.52-.24,2.2-.44.69-.21,1.34-.46,1.94-.76.61-.3,1.19-.65,1.75-1.05v-8.53h-6.82v1.71c0,.17.06.3.17.42.12.11.28.17.48.17h3.45v4.9c-.39.21-.79.39-1.18.56-.39.16-.81.29-1.26.4-.44.11-.92.21-1.42.27-.5.05-1.05.07-1.65.07-1.2,0-2.29-.2-3.29-.6-.99-.4-1.85-.99-2.57-1.75-.72-.77-1.29-1.69-1.69-2.79-.39-1.11-.59-2.36-.59-3.77s.19-2.56.58-3.63c.38-1.09.93-2.01,1.64-2.76.71-.77,1.58-1.35,2.59-1.75,1.01-.41,2.15-.62,3.4-.62.86,0,1.6.07,2.22.2.63.13,1.17.3,1.63.5.47.19.86.38,1.18.59.32.21.61.38.87.52.2.11.38.17.54.17.28,0,.5-.14.68-.42l.85-1.36c-.48-.43-.98-.82-1.53-1.16-.55-.35-1.15-.64-1.8-.88-.64-.25-1.34-.44-2.1-.56-.75-.13-1.57-.2-2.45-.2h0ZM95.76,414.93v22.23h3v-8.32h3.57c1.33,0,2.51-.17,3.55-.51,1.03-.35,1.9-.84,2.59-1.46.7-.62,1.24-1.36,1.6-2.22.36-.86.54-1.81.54-2.84s-.17-1.99-.52-2.84c-.33-.85-.84-1.57-1.52-2.17-.68-.6-1.54-1.06-2.59-1.38-1.03-.33-2.25-.5-3.66-.5h-6.56ZM114.41,414.93v22.23h13.7v-2.45h-10.67v-7.58h8.64v-2.36h-8.64v-7.38h10.67v-2.45h-13.7ZM132.43,414.93v22.23h2.63v-16.33c0-.22,0-.46-.03-.72,0-.26-.03-.52-.06-.79l7.79,13.94c.26.47.62.7,1.08.7h.44c.47,0,.82-.23,1.08-.7l7.62-13.89c-.02.26-.04.51-.05.76,0,.25-.01.48-.01.7v16.33h2.63v-22.23h-2.22c-.27,0-.47.03-.62.08-.14.05-.28.19-.42.43l-7.52,13.66c-.14.27-.28.54-.39.81-.11.26-.22.53-.32.82-.1-.28-.21-.55-.33-.82-.1-.28-.23-.54-.37-.79l-7.68-13.68c-.13-.24-.27-.38-.42-.43-.14-.05-.35-.08-.62-.08h-2.22ZM161.27,414.93v22.23h3v-8.32h3.57c1.33,0,2.52-.17,3.55-.51,1.03-.35,1.89-.84,2.59-1.46.7-.62,1.24-1.36,1.6-2.22s.54-1.81.54-2.84c0-1.04-.17-1.99-.51-2.84-.33-.85-.84-1.57-1.52-2.17-.68-.6-1.54-1.06-2.59-1.38-1.03-.33-2.25-.5-3.66-.5h-6.56ZM179.92,414.93v22.23h13.7v-2.45h-10.67v-7.58h8.64v-2.36h-8.64v-7.38h10.67v-2.45h-13.7ZM198.25,414.93v22.23h3v-10.18h1.36c.25,0,.45.02.62.05.18.02.33.06.45.13.13.06.25.14.34.23.1.08.21.19.33.31l7.68,8.83c.08.09.16.18.24.26.08.08.17.15.27.2.1.05.22.1.36.13.13.03.3.05.5.05h2.61l-8.84-10.53c-.24-.28-.47-.51-.68-.7-.22-.19-.47-.32-.76-.42.22-.1.42-.24.6-.4.2-.17.4-.37.62-.6l8.47-9.57h-2.56c-.33,0-.6.06-.82.17-.21.1-.42.28-.65.54l-7.4,8.38c-.21.24-.43.41-.67.51-.23.09-.54.14-.93.14h-1.13v-9.74h-3ZM225.36,414.93v22.23h3v-8.32h3.57c1.33,0,2.51-.17,3.55-.51,1.03-.35,1.9-.84,2.59-1.46.7-.62,1.24-1.36,1.6-2.22s.54-1.81.54-2.84-.17-1.99-.52-2.84c-.33-.85-.84-1.57-1.52-2.17-.68-.6-1.54-1.06-2.59-1.38-1.03-.33-2.25-.5-3.66-.5h-6.56ZM248.21,414.93l-8.89,22.23h2.32c.26,0,.48-.08.65-.22.18-.14.3-.31.37-.49l2.08-5.37h9.97l2.08,5.37c.08.21.2.38.37.51.17.13.38.2.65.2h2.33l-8.89-22.23h-3.06ZM262.95,414.93v22.23h12.63v-2.53h-9.62v-19.7h-3.01ZM278.9,414.93v22.23h13.7v-2.45h-10.67v-7.58h8.64v-2.36h-8.64v-7.38h10.67v-2.45h-13.7ZM296.92,414.93v22.23h2.63v-16.33c0-.22-.01-.46-.03-.72,0-.26-.03-.52-.06-.79l7.79,13.94c.26.47.62.7,1.09.7h.44c.47,0,.82-.23,1.08-.7l7.62-13.89c-.02.26-.04.51-.05.76,0,.25-.01.48-.01.7v16.33h2.63v-22.23h-2.22c-.27,0-.47.03-.62.08-.14.05-.29.19-.42.43l-7.52,13.66c-.14.27-.27.54-.38.81-.11.26-.22.53-.33.82-.1-.28-.21-.55-.32-.82-.1-.28-.23-.54-.37-.79l-7.67-13.68c-.13-.24-.28-.38-.42-.43-.14-.05-.35-.08-.62-.08h-2.22ZM325.46,414.93v22.23h7.86c1.24,0,2.34-.15,3.3-.45.97-.31,1.79-.74,2.45-1.3.67-.56,1.18-1.23,1.52-2,.35-.78.53-1.63.53-2.57,0-1.39-.41-2.5-1.24-3.35-.83-.85-2.05-1.43-3.67-1.75.7-.22,1.31-.5,1.83-.84.53-.34.96-.73,1.3-1.16.35-.43.61-.9.78-1.41.18-.51.26-1.03.26-1.58,0-.9-.15-1.71-.46-2.42-.3-.72-.77-1.34-1.42-1.83-.63-.5-1.44-.88-2.43-1.15-.98-.27-2.16-.4-3.52-.4h-7.09ZM351.87,414.93l-8.89,22.23h2.32c.26,0,.48-.08.65-.22.18-.14.3-.31.37-.49l2.08-5.37h9.97l2.08,5.37c.08.21.2.38.37.51.17.13.38.2.65.2h2.32l-8.89-22.23h-3.05ZM366.62,414.93v22.23h2.64v-15.84c0-.21,0-.43-.02-.68,0-.25-.02-.5-.04-.76l12.86,16.73c.16.2.31.33.46.42.17.08.37.13.6.13h1.52v-22.23h-2.63v15.74c0,.24,0,.48.01.74,0,.25.03.51.06.78l-12.87-16.75c-.17-.21-.32-.34-.45-.4-.12-.07-.32-.11-.59-.11h-1.55ZM98.76,417.31h3.57c1.77,0,3.08.4,3.95,1.2.88.8,1.32,1.9,1.32,3.32,0,.68-.11,1.31-.34,1.88-.23.57-.56,1.06-1.01,1.47-.44.4-1,.72-1.66.95-.65.23-1.41.34-2.26.34h-3.57v-9.15ZM164.27,417.31h3.57c1.77,0,3.09.4,3.96,1.2.88.8,1.32,1.9,1.32,3.32,0,.68-.11,1.31-.34,1.88-.23.57-.56,1.06-1.01,1.47-.44.4-1,.72-1.66.95-.65.23-1.41.34-2.26.34h-3.57v-9.15ZM228.35,417.31h3.57c1.77,0,3.08.4,3.95,1.2.88.8,1.32,1.9,1.32,3.32,0,.68-.11,1.31-.34,1.88-.23.57-.56,1.06-1.01,1.47-.44.4-1,.72-1.66.95-.65.23-1.41.34-2.26.34h-3.57v-9.15ZM328.47,417.31h4.08c1.65,0,2.87.31,3.66.92s1.18,1.57,1.18,2.87c0,.56-.1,1.08-.3,1.55-.2.47-.5.86-.91,1.19-.4.33-.91.59-1.53.78-.62.19-1.36.28-2.2.28h-3.97v-7.58ZM249.72,417.77c.22.84.44,1.53.67,2.09l3.49,9.04h-8.3l3.49-9.02c.1-.27.21-.58.31-.93.11-.36.23-.75.34-1.18ZM353.39,417.77c.22.84.44,1.53.67,2.09l3.49,9.04h-8.3l3.49-9.02c.1-.27.21-.58.31-.93.11-.36.23-.75.34-1.18ZM328.47,427.03h4.79c1.64,0,2.87.34,3.67,1.01.82.66,1.23,1.57,1.23,2.71,0,.59-.1,1.13-.28,1.63-.19.49-.48.91-.89,1.27-.39.35-.9.62-1.52.82-.61.2-1.34.3-2.2.3h-4.8v-7.74Z"/>
    <path id="Text_Logo_1" data-name="Text Logo 1" class="cls-2" d="M173.31,322.73c-2.53.02-5.02.42-7.13.98,3.18.85,8.71,6.56,8.71,11v58.86h4.86l-.33-55.48,49.22,55.5,4.14-.02v-70.81h-4.5l.02,51.58-43.63-47.52c-2.81-3.11-7.14-4.13-11.35-4.1h0ZM339.25,322.73c-2.53.02-5.02.42-7.13.98,3.18.85,8.71,6.56,8.71,11v58.86h4.86l-.33-55.48,49.22,55.5,4.14-.02v-70.81h-4.5l.02,51.58-43.63-47.52c-2.81-3.11-7.14-4.13-11.35-4.1h0ZM80.21,322.77c-.52,0-1.05,0-1.59.02-17.38.36-32.61,13.7-32.62,34.82.13,18.79,11.46,35.77,37.42,35.99,23,0,23.74-7.26,23.74-7.26v-20.13c0-7.07-7.02-11.24-16.29-9.81,2.85,1.64,4.27,3.52,4.27,11.45v17.04c-3.6,2.08-10.94,3.45-13.98,3.45s-22.2.1-22.2-30.73,22.45-31.65,29.72-29.71c7.26,1.95,13.07,3.51,13.07,15.36l3.3,1.48,1-12.52c-5.42-5.42-9.77-9.53-25.84-9.46h0ZM439.04,322.77c-.52,0-1.05,0-1.59.02-17.38.36-32.61,13.7-32.62,34.82.13,18.79,11.46,35.77,37.42,35.99,23,0,23.74-7.26,23.74-7.26v-20.13c0-7.07-7.02-11.24-16.29-9.81,2.85,1.64,4.27,3.52,4.27,11.45v17.04c-3.6,2.08-10.94,3.45-13.98,3.45s-22.2.1-22.2-30.73,22.45-31.65,29.72-29.71c7.26,1.95,13.07,3.51,13.07,15.36l3.3,1.48,1-12.52c-5.42-5.42-9.77-9.53-25.84-9.46h0ZM108.9,322.79c4.26,2.46,7.27,4.74,7.27,8.86v61.95h39.49c7.44,0,8.6-8.03,6.96-14.16-2.32,4.01-4.6,8.04-9.62,8.04h-24.73v-27.92h27.84v-5.69h-27.84v-25.57h24.85c5.88,0,7.75,4.51,9.5,7.54,1.74-6.48.12-13.04-8.34-13.04h-45.38ZM241.14,322.79c1.44,1.65,2.26,2.79,2.26,5.19v65.62h28.98c18.82-.11,35.72-15.49,35.84-35.99-.18-27-27.48-37.39-53.95-29.48-.65-2.44-1.97-5.15-8.03-5.34h-5.1ZM316.62,322.79v60.56c0,3.48-1.28,10.25,5.27,10.25h9.65c-2.11-.57-4.63-2.41-4.63-6.7v-64.11h-10.29ZM254.69,330.48h13.57c11.98.08,26.24,7.74,26.66,27.13.42,19.39-13.79,31.45-26.66,31.63h-13.57v-58.76Z"/>
  </g>
</svg>