<?xml version="1.0" encoding="UTF-8"?>
<svg id="Layer_1" data-name="Layer 1" xmlns="http://www.w3.org/2000/svg" viewBox="0 0 512 512">
  <defs>
    <style>
      .cls-1 {
        fill: #fff;
      }

      .cls-2 {
        fill: #ec2227;
      }
    </style>
  </defs>
  <path class="cls-2" d="M150.77,404.53v35.04h-12.9v-78.14h12.9v29.6h24.07v-29.6h12.92v78.14h-12.92v-35.04h-24.07ZM209.14,439.57h-13.6l22.02-78.14h14.87l21.74,78.14h-13.98l-4-16.1h-22.74l-4.3,16.1ZM216.88,409.97h15.73l-7.65-30.9h-.18l-7.9,30.9ZM274.3,439.57h-12.9v-78.14h12.9v78.14ZM306.11,416.17h-23.95v-14.14h24l-.05,14.14ZM341.88,359.36c8.16,0,29.66,4.46,29.66,41.14s-21.5,41.14-29.66,41.14-29.66-4.46-29.66-41.14,21.5-41.14,29.66-41.14h0ZM341.88,427.81c6.96,0,16.8-5.44,16.8-27.32s-9.8-27.31-16.8-27.31-16.8,5.44-16.8,27.31,9.83,27.32,16.8,27.32ZM317.96,295.05c-29.66,16.4-56.8,21.77-84.55,11.04,0,0,16.41-10.73,20.8-20.5s-6.62-20.19-18.3-16.41c-11.67,3.78-19.88,10.4-40.07,20.5-16.41,8.21-28.65,11.41-37.23,12.8,54.13,50.53,138.98,47.62,189.52-6.52,2.56-2.74,5.01-5.6,7.33-8.55-4.59-2.09-15.94-4.3-37.5,7.63Z"/>
  <path class="cls-2" d="M195.86,271.71c32.5-14.2,49.27-26.78,72.25-19.25,21.46,7.04,18.62,30.6-3.78,45.11,0,0,23.76-1.6,45.74-19.56,28.25-23.08,41.3-27.74,64.74-24.11,27.28-68.85-6.42-146.78-75.27-174.06-68.85-27.28-146.78,6.42-174.06,75.27-15.53,39.19-11.73,83.41,10.27,119.37,9.96,2.94,34.94,8.22,60.1-2.77h0Z"/>
  <path class="cls-1" d="M310.07,278.01c-21.98,17.97-45.74,19.56-45.74,19.56,22.4-14.51,25.25-38.07,3.78-45.11-22.98-7.54-39.75,5.05-72.25,19.25-25.17,10.99-50.14,5.71-60.13,2.77,6.34,10.33,14.04,19.77,22.9,28.04,8.58-1.42,20.8-4.62,37.23-12.8,20.19-10.1,28.4-16.72,40.07-20.5s22.71,6.62,18.3,16.41-20.8,20.5-20.8,20.5c27.77,10.73,54.9,5.36,84.55-11.04,21.56-11.93,32.9-9.72,37.52-7.6,8.04-10.19,14.55-21.49,19.34-33.55-23.47-3.66-36.52,1-64.77,24.08h0Z"/>
  <path class="cls-2" d="M368.72,94.93c0,7.77,6.3,14.06,14.06,14.06,7.77,0,14.06-6.3,14.06-14.06s-6.3-14.06-14.06-14.06c0,0,0,0,0,0-7.76.01-14.05,6.3-14.06,14.06ZM370.32,94.93c0-6.87,5.57-12.43,12.43-12.43,6.87,0,12.43,5.57,12.43,12.43,0,6.87-5.57,12.43-12.43,12.43,0,0,0,0,0,0-6.85-.03-12.39-5.58-12.39-12.43h-.03Z"/>
  <path class="cls-2" d="M378.65,104.03h-2.4v-17.6h8.15c2.89,0,5.78,1,5.78,4.73.15,1.78-.81,3.47-2.42,4.26,1.01.42,2.01.86,2.1,3.3l.15,3.2c0,.98.14,1.35.88,1.77v.34h-2.91c-.29-1.45-.43-2.92-.42-4.4,0-1.45-.3-3.14-3.14-3.14h-5.75l-.03,7.54ZM378.65,94.43h5.5c1.74,0,3.58-.44,3.58-3.04s-1.98-2.88-3.17-2.88h-5.92v5.92Z"/>
  <path class="cls-1" d="M242.16,198.93s7.68-.42,19.56,3.37c7.15-5.67,13.76-11.97,19.78-18.82,9.35-10.83,18.09-21.98,23.34-26.4,5.26-4.42,9.02-9.05,28.58-13.05,18.15-3.7,43.12-8.62,62.47-13.04,19.35-4.42,44.17-12.41,65.6-19.77,0,0-28,48.52-127.2,66.88,0,0-4.63.63-12.42,8s-20.3,17.78-39.2,24.09c0,0,12.62,4.1,20.72,11.46,0,0-5.37,6.94-18.82,10.3,0,0-5.37-9.26-14.2-10.3-8.83-1.05-16.21,3.98-29.07,2.1-8.8-1.26-12.95-5.14-16.8-6.73-7.68-3.15-13.14-.42-20.09.42,0,0,1.06-16,20.4-17.46,0,0-5.78-8.8-20.93-11.1-15.14-2.3-30.02,1.93-55.26-3.12-25.24-5.05-72.06-25.12-97.14-72.28,0,0,48.69,31.38,85.92,37.06,37.23,5.68,39.12,6.31,55.52,8.8s30.08,9.34,38.28,20.22c0,.04,6.96,9.68,10.96,19.35h0Z"/>
  <path class="cls-2" d="M460.84,109.3c-28,9.6-49.39,16.06-65.41,19.71-15.2,3.47-33.76,7.2-50.1,10.53l-12.32,2.5c-18.24,3.73-23.24,8.06-28.07,12.25l-1.43,1.23c-3.86,3.25-9.34,9.75-15.66,17.31-2.56,3.05-5.2,6.2-7.91,9.34-5.7,6.47-11.94,12.45-18.66,17.86-5.76-1.85-11.75-2.91-17.79-3.15-2.97-6.46-6.52-12.64-10.62-18.45-8.33-11.05-22.02-18.32-39.6-21.02-6.34-.97-10.53-1.66-15.38-2.47-7.71-1.28-17.3-2.87-40.14-6.4-36.37-5.54-84.66-36.45-85.17-36.76l-6.56-4.24,3.68,6.9c11.31,21.28,27.86,39.01,49.2,52.7,22,14.12,41.82,19.14,49.32,20.63,15.2,3.04,26.56,2.77,36.6,2.52,6.85-.16,12.76-.3,18.75.62,8.8,1.34,14.26,5.03,17.1,7.58-8.23,1.6-12.69,6.02-15.03,9.67-1.79,2.75-2.91,5.88-3.26,9.14l-.17,2.46,2.45-.3c1.86-.22,3.6-.58,5.28-.92,4.64-.94,8.66-1.75,13.78.36,1.13.5,2.22,1.08,3.28,1.71,4.27,2.67,9.05,4.43,14.03,5.15,7.48,1.06,13.18-.07,18.2-1.07,3.9-.8,7.26-1.46,10.87-1.02,7.69.91,12.62,9.22,12.67,9.3l.8,1.32,1.49-.37c13.96-3.49,19.68-10.69,19.92-11.02l1.15-1.49-1.4-1.26c-5.07-4.62-11.74-7.96-16.29-9.9,12.98-5.21,24.81-12.9,34.83-22.65,7.05-6.67,11.27-7.46,11.31-7.46h.06c22.78-4.22,43.7-10.4,62.17-18.33,13.99-5.91,27.25-13.43,39.5-22.4,19.52-14.51,26.67-26.66,26.97-27.2l2.73-4.72-5.16,1.82ZM262.96,203.92c7.25-5.74,13.97-12.13,20.06-19.09,2.73-3.16,5.38-6.32,7.95-9.38,6.21-7.39,11.57-13.77,15.16-16.8l1.48-1.28c4.44-3.84,9.02-7.82,26.22-11.33l12.34-2.5c16.37-3.31,34.92-7.06,50.2-10.55,14.96-3.42,34.6-9.25,59.78-17.76-3.84,4.8-10.98,12.58-22.5,21.11-12.01,8.73-24.98,16.04-38.67,21.78-18.14,7.78-38.7,13.83-61.1,17.98-.85.14-5.73,1.22-13.44,8.51-7.57,7.16-19.79,17.41-38.46,23.63l-5.88,1.95,5.89,1.92c.12,0,10.72,3.54,18.4,9.66-2.13,1.96-6.89,5.54-14.95,7.81-1.96-2.8-7.15-9.06-14.85-9.98-4.25-.5-8.09.26-12.15,1.07-4.94.99-10.04,2.01-16.8,1.04-4.47-.67-8.75-2.26-12.58-4.66-1.21-.72-2.46-1.37-3.75-1.94-6.28-2.58-11.3-1.56-16.14-.58l-2.17.42c1.21-4.18,5.17-12,18.01-12.95l3.46-.26-1.91-2.9c-.26-.38-6.46-9.6-22.32-12-6.35-.98-12.72-.8-19.46-.66-9.83.23-20.98.5-35.7-2.45-7.27-1.46-26.5-6.32-47.92-20.06-18.4-11.8-33.11-26.69-43.87-44.31,5.24,3.11,13.12,7.62,22.34,12.32,22.53,11.46,41.88,18.47,57.54,20.86,22.82,3.48,32.39,5.07,40.09,6.35,4.87.8,9.08,1.5,15.44,2.49,16.5,2.54,29.27,9.26,36.94,19.42.24.33,6.89,9.66,10.7,18.87l.54,1.34,1.45-.07c.07,0,7.51-.34,18.83,3.27l1.02.32.83-.63Z"/>
</svg>