<?xml version="1.0" encoding="UTF-8"?>
<svg id="Layer_1" data-name="Layer 1" xmlns="http://www.w3.org/2000/svg" viewBox="0 0 512 512">
  <defs>
    <style>
      .cls-1, .cls-2, .cls-3, .cls-4, .cls-5 {
        stroke: #fff;
        stroke-width: 1.27px;
      }

      .cls-1, .cls-2, .cls-4 {
        stroke-miterlimit: 10;
      }

      .cls-1, .cls-3, .cls-6, .cls-5 {
        fill: #010101;
      }

      .cls-2 {
        fill: #ffcc09;
      }

      .cls-3, .cls-5 {
        stroke-linejoin: round;
      }

      .cls-4 {
        fill: #ec2226;
      }

      .cls-5 {
        stroke-linecap: round;
      }
    </style>
  </defs>
  <path id="path119959" class="cls-5" d="M192.66,267.33c6.72-.72,11.45-2.66,14.7-6.02,2.53-2.62,3.48-5.1,3.83-10.01.1-1.37.15-9.78.15-22.75v-20.58h-15.76l-.06,20.63c-.06,21.51-.06,21.66-.69,23.93-.87,3.15-2.6,4.33-6.88,4.7-1.77.15-4.06,0-5.47-.36-3.36-.86-4.58-2.76-5.01-7.82-.08-.98-.14-9.82-.14-21.38v-19.71h-15.77v21.06c0,12.52.06,21.74.15,22.75.4,4.75,1.56,7.43,4.36,10.06,3.68,3.45,8.92,5.25,16.74,5.72,2.54.16,7.36.05,9.85-.22h0ZM239.44,267.4c5.73-.68,10.17-2.54,13.47-5.65,2.15-2.02,3.43-4.2,4.26-7.22.34-1.23.37-1.62.38-4.12.01-3.34-.21-4.41-1.46-6.94-.78-1.57-.87-1.69-2.7-3.47-2.14-2.08-3.84-3.36-8.34-6.29-7.14-4.65-8.81-6.29-9.29-9.12-.3-1.76.25-3.28,1.62-4.52,1.37-1.24,3-1.86,5.35-2.02,2.2-.15,4.83.35,9.23,1.78,1.22.39,2.24.72,2.28.72.03,0,.06-2.34.06-5.21v-5.21l-1.84-.67c-6.24-2.27-11.89-2.79-17.73-1.64-2.12.42-3.61.91-5.53,1.83-4.65,2.23-7.77,5.8-9.01,10.3-.34,1.25-.38,1.62-.39,4.13,0,2.46.03,2.9.33,4.03,1.34,5.05,5.03,8.89,14.13,14.73,4.12,2.64,5.72,4.08,6.62,5.97.63,1.32.59,2.79-.12,4.15-1.29,2.5-4.89,3.77-9.55,3.38-2.8-.23-5.96-1.28-8.71-2.88-.73-.43-1.37-.78-1.41-.78s-.08,2.74-.08,6.1v6.1l.98.43c2.5,1.11,6.23,1.98,9.59,2.23,1.88.14,6.06.07,7.84-.14h0ZM63.74,254.11v-12.88h17.8l.04,12.85.04,12.85,7.92.04,7.92.04v-59.03h-15.92v21.8h-17.8v-21.8h-15.77v29.42c0,16.18.04,29.46.1,29.51.05.05,3.6.09,7.89.09h7.79v-12.88ZM119.14,266.67c.06-.18.63-2.5,1.26-5.17l1.15-4.85h8c4.4,0,8,.02,8,.04,0,.02.61,2.33,1.34,5.13l1.33,5.1,7.92.04c6.29.03,7.92,0,7.92-.14,0-.1-3.96-13.36-8.8-29.48l-8.8-29.3-8.34-.04-8.34-.04-.65,2.02c-1.19,3.71-17.72,56.23-17.82,56.62l-.1.39h15.81l.12-.32ZM124.52,247.27c0-.1.39-2.03.86-4.28.98-4.68,2.4-11.87,3.56-18.08.44-2.35.82-4.29.85-4.31.02-.02.13.55.22,1.27.99,7.33,2.77,16.74,4.36,22.93.31,1.22.57,2.32.57,2.44,0,.19-.61.22-5.21.22-4.17,0-5.21-.04-5.21-.18h0ZM289.76,242.92v-24.06h12.15v-10.9h-40.37v10.9h12.15v23.97c0,13.18.04,24.01.1,24.06.05.05,3.67.09,8.03.09h7.93v-24.06ZM343.37,261.18v-5.73l-9.08-.04-9.08-.04v-13.87h16.5v-10.76h-16.5v-11.89h18.23v-10.9h-33.57v59.03l16.75-.04,16.75-.04v-5.73ZM369.49,254.86c0-6.67.05-12.08.11-12.02.06.06,3.01,5.5,6.55,12.09l6.44,11.99,8.3.04c7.86.03,8.3.02,8.23-.21-.04-.14-3.4-6.14-7.48-13.34-4.08-7.2-7.42-13.14-7.44-13.2-.01-.06.73-.36,1.66-.66,4.71-1.56,7.81-4.1,9.44-7.76,1.43-3.21,1.75-8.27.75-12.11-1.64-6.33-6.81-9.86-16.29-11.14-3.51-.47-6.05-.56-16.03-.56h-9.59s0,29.51,0,29.51v29.51h15.34v-12.13ZM369.49,231.23c0-1.31.04-5.02.1-8.24l.1-5.86,2.69.07c2.09.05,2.94.13,3.8.36,3.13.82,4.8,2.46,5.42,5.31.31,1.42.19,4.24-.22,5.37-.96,2.63-2.71,4.13-5.76,4.93-.87.23-1.71.32-3.63.37l-2.5.07v-2.39h0ZM123.45,201.19c1.18-.4,2.46-1.37,3.24-2.45,1.9-2.64,1.4-6.01-1.22-8.15-2.38-1.95-5.89-2-8.21-.13-.86.7-1.79,1.88-2.11,2.72-.37.94-.36,3.34.02,4.3.61,1.55,2.27,3.14,3.86,3.68,1,.34,3.46.36,4.42.04h0ZM141.37,201.16c1.75-.58,3.28-2.01,3.92-3.67.5-1.29.53-2.91.09-4.18-.59-1.68-2.5-3.46-4.29-3.98-.4-.12-1.28-.21-1.97-.22-2.63-.01-4.94,1.49-6,3.92-.36.83-.43,1.18-.42,2.27,0,1.06.08,1.45.43,2.27.7,1.63,1.94,2.82,3.69,3.53,1.03.42,3.37.45,4.55.06h0Z"/>
  <g>
    <polygon class="cls-1" points="413.35 222.77 434.29 266.99 413.35 266.99 413.35 222.77"/>
    <polygon class="cls-4" points="435.67 207.96 463.62 266.99 443.11 266.99 415.16 207.96 435.67 207.96"/>
    <polygon class="cls-2" points="464.03 207.96 464.03 249.24 444.49 207.96 464.03 207.96"/>
  </g>
  <g>
    <path class="cls-3" d="M409.07,312.06l-.08.53c-.31,1.84-2.5,2.07-3.18.33-.09-.24-.21-1.11-.24-1.95l-.09-1.51h7.18l-.09-2.17c-.17-3.83-.7-5.49-2.05-6.5-.91-.67-1.74-.89-3.27-.89-2.86.01-4.3,1.26-4.96,4.32-.1.48-.17,2.17-.17,4.38,0,2.92.05,3.79.24,4.57.35,1.33.85,2.23,1.64,2.91.99.86,1.57,1.01,3.54.97,1.47-.04,1.75-.09,2.39-.42,1.35-.68,2.33-2.18,2.48-3.8l.08-.84-1.71.04-1.73.04ZM405.55,305.65c.12-2.04.57-2.73,1.78-2.73s1.65.71,1.78,2.81l.08,1.31h-3.71l.08-1.39Z"/>
    <path class="cls-3" d="M183.26,300.11v1.01l-.61-.5c-.73-.62-1.51-.84-2.59-.76-.99.09-1.8.49-2.47,1.21-1.06,1.13-1.42,2.92-1.42,6.83.01,3.74.32,5.39,1.24,6.57.72.91,1.69,1.35,2.99,1.35,1.15,0,1.51-.11,2.2-.71l.51-.45v1.81c0,2.08-.13,2.7-.66,3.19-.3.26-.54.34-1.08.34-.82,0-1.38-.4-1.52-1.12-.21-1-.08-.93-1.89-.93h-1.65v.54c0,1.27.73,2.71,1.82,3.5,1.25.93,3.5,1.2,5.28.6,1.22-.42,2.28-1.4,2.76-2.59l.35-.86.04-9.51.05-9.52h-3.35ZM183.08,308.07l-.04,3.92-.42.42c-.58.55-1.17.65-1.82.34-.93-.45-1.07-.98-1.13-4.14-.09-4.17.17-5.24,1.34-5.63.7-.23,1.4.05,1.82.71.28.44.3.65.26,4.4Z"/>
    <path class="cls-3" d="M57.53,316.87c1.58-.45,2.92-1.7,3.56-3.32.21-.54.26-1.27.3-4.85l.05-4.21-2.94.04-2.94.04-.04,1.45-.04,1.45h2.35l-.05,2.37c-.04,2.13-.08,2.43-.38,2.97-.39.72-1.03,1.08-1.93,1.08-1.15,0-1.68-.5-2.11-2.04-.23-.81-.26-1.56-.26-6.3s.03-5.49.26-6.3c.44-1.57.95-2.04,2.22-2.04s1.99.78,2.18,2.31l.09.73h3.58v-.49c0-1.41-.71-3.17-1.69-4.2-1.54-1.61-4.72-2.08-6.93-1.02-.93.45-2.04,1.56-2.5,2.52-.76,1.59-.81,2.1-.81,8.5,0,5.18.03,6.07.25,6.9.61,2.32,1.8,3.68,3.86,4.43.73.26,2.97.25,3.92-.02h0Z"/>
    <path class="cls-3" d="M72.14,312.37c0,1.28-1.33,2.12-2.45,1.55-.66-.33-.91-1.06-.99-2.86l-.08-1.6h7.17l-.1-2.09c-.14-2.7-.4-4.12-.94-5.21-.48-.94-1.03-1.45-2.15-1.94-.54-.24-.95-.3-2.06-.3-1.62-.01-2.37.18-3.21.81-1.75,1.31-2.23,3.25-2.1,8.58.09,4.18.39,5.35,1.67,6.57,1.03,1,1.76,1.23,3.72,1.2,1.45-.04,1.67-.08,2.46-.47.57-.29,1.03-.65,1.39-1.13.59-.74,1.13-2.19,1.13-2.98v-.48h-3.48v.37ZM68.69,305.67c.09-2.07.58-2.8,1.82-2.77,1.15.04,1.61.83,1.67,2.86l.04,1.22-1.79.04-1.79.04.05-1.39Z"/>
    <path class="cls-3" d="M121.78,316.95l-.05-6.83c-.04-6.68-.05-6.85-.36-7.49-.52-1.11-1.17-1.79-2.19-2.28-.86-.42-1.06-.45-2.33-.44-1.09,0-1.56.08-2.24.33-1.6.62-2.78,2.17-2.94,3.84l-.08.86,1.71-.05,1.73-.04.08-.52c.12-.69.46-1.17.99-1.39.64-.25,1.38-.08,1.82.44.35.4.37.52.37,2.02v1.6l-1.62.08c-2.64.14-3.9.79-4.85,2.54-.37.71-.4.84-.4,2.59,0,1.62.05,1.93.35,2.58.39.84,1.53,1.94,2.24,2.14.81.23,2.42.18,3.06-.11.31-.14.79-.49,1.04-.78l.48-.52v1.42h3.19ZM118.29,311.07c0,1.88-.19,2.49-.88,2.85-.54.28-1.44.26-1.85-.03-.73-.5-1-2.32-.49-3.3.41-.78.89-1.03,2.12-1.11l1.09-.06v1.65Z"/>
    <path class="cls-3" d="M222.07,312h-1.73l-.09.57c-.21,1.23-1.49,1.9-2.51,1.28-.62-.38-.91-1.36-.91-3.09v-1.31h6.99l-.08-2.52c-.12-3.43-.48-4.74-1.6-5.81-1-.96-1.79-1.23-3.58-1.23-1.27,0-1.64.05-2.24.33-1.34.6-2.12,1.56-2.61,3.21-.32,1.12-.46,7.17-.21,8.89.37,2.53,1.34,3.93,3.14,4.56.76.26,3,.26,3.94-.01,1.43-.42,2.67-1.88,3.03-3.58.31-1.39.4-1.3-1.55-1.3ZM216.85,305.59c.05-1.13.12-1.56.35-1.94.59-1,2.12-1.02,2.72-.04.26.44.62,3.04.45,3.31-.04.06-.86.11-1.83.11h-1.74l.05-1.45Z"/>
    <path class="cls-3" d="M234.26,312.39c-.17.77-.49,1.3-.95,1.52-.91.47-2-.03-2.3-1.06-.08-.28-.18-1.16-.23-1.95l-.09-1.45h7.17l-.08-2.17c-.1-2.47-.27-3.6-.71-4.74-.41-1.07-1.39-2.03-2.45-2.39-.95-.31-2.92-.35-3.91-.08-.99.29-2.01,1.1-2.47,2-.76,1.45-.9,2.52-.89,6.51,0,3.26.03,3.72.31,4.74.39,1.37.85,2.17,1.65,2.83.89.74,1.64.93,3.51.88,1.39-.04,1.69-.09,2.33-.42,1.47-.74,2.2-1.94,2.58-4.18l.09-.45h-3.46l-.09.39ZM231.08,303.85c.26-.62.81-.94,1.55-.93,1.17.01,1.71,1.03,1.71,3.22v.89h-1.74c-1.45,0-1.75-.03-1.83-.21-.13-.35.08-2.44.31-2.97Z"/>
    <path class="cls-3" d="M260.55,312h-1.71l-.1.57c-.19,1.23-1.49,1.9-2.5,1.28-.63-.38-.91-1.36-.91-3.09v-1.31h7.07l-.06-.74c-.03-.42-.09-1.55-.13-2.52-.1-2.76-.53-4.09-1.62-5.13-.95-.89-1.76-1.17-3.51-1.17-1.27,0-1.64.05-2.24.33-1.31.58-2.15,1.62-2.61,3.21-.32,1.12-.48,7.17-.22,8.89.39,2.53,1.34,3.92,3.14,4.57.86.3,3.55.2,4.39-.18,1.26-.58,2.25-1.89,2.59-3.43.3-1.39.4-1.3-1.56-1.3ZM255.35,305.59c.04-1.13.12-1.56.35-1.94.59-1,2.12-1.02,2.7-.04.27.44.63,3.04.45,3.31-.04.06-.86.11-1.82.11h-1.75l.06-1.45Z"/>
    <path class="cls-3" d="M272.69,294.17v6.91l-.4-.35c-1.36-1.25-3.68-1.17-5.02.14-1.27,1.25-1.62,3.29-1.49,8.78.09,3.43.26,4.66.75,5.58.32.59,1.11,1.32,1.75,1.6.7.31,2.33.35,3.01.08.26-.11.72-.4,1-.65l.54-.45v1.16h3.32v-22.78h-3.46ZM271.83,313.9c-.52.26-.98.28-1.44.04-.99-.5-1.24-1.85-1.15-6.32.06-2.7.1-3.12.37-3.72.33-.76.72-1.01,1.52-1.01.44,0,.67.1,1.02.45l.46.44.04,4.53c.05,4.97.03,5.15-.82,5.58Z"/>
    <path class="cls-3" d="M305.7,301.12c-.81-.81-1.66-1.13-3.21-1.25-2.25-.16-3.9.62-4.75,2.23-.77,1.49-.94,2.82-.85,7.07.06,3.68.19,4.61.76,5.69.51.96,1.53,1.76,2.67,2.1.64.19,2.95.14,3.72-.08.94-.28,1.94-1.15,2.42-2.1.64-1.27.84-2.67.85-6.11.01-4.65-.33-6.27-1.61-7.56ZM303.88,309.95c-.12,2.52-.27,3.32-.72,3.74-.41.38-1.33.52-1.82.26-.19-.1-.48-.4-.64-.68-.28-.47-.3-.72-.3-4.75,0-3.79.03-4.29.26-4.75.14-.28.41-.59.62-.69.77-.42,1.79-.13,2.19.6.31.6.53,3.79.41,6.26Z"/>
    <path class="cls-3" d="M363.55,316.86c1.7-.54,2.69-1.95,3.11-4.4l.08-.46h-3.44l-.1.58c-.14.81-.72,1.4-1.44,1.49-.73.08-1.2-.15-1.58-.79-.28-.46-.3-.76-.34-4.28-.03-2.44,0-4.06.12-4.55.26-1.24,1.03-1.77,2.13-1.47.57.15.99.73,1.14,1.56l.09.55,1.69-.04,1.69-.04-.04-.35c-.34-3.15-2.09-4.81-5.1-4.81s-4.6,1.51-5.06,4.65c-.21,1.44-.17,7.12.06,8.39.41,2.27,1.44,3.55,3.27,4.1.69.21,2.97.14,3.75-.1h0Z"/>
    <path class="cls-3" d="M438.6,316.63c1.35-.69,2.25-2.09,2.46-3.86l.09-.78h-3.51v.46c0,1.41-1.78,2.18-2.74,1.18-.49-.51-.59-1.16-.68-4.19-.12-4.11.16-5.95.99-6.38,1.02-.53,2.19.1,2.4,1.29l.11.63,1.72.04,1.72.04-.09-.88c-.11-1.07-.73-2.41-1.41-3.08-1.07-1.05-3.03-1.5-4.96-1.15-3.13.58-4.2,3.23-3.95,9.84.14,3.71.57,5.13,1.92,6.28.95.82,1.67,1.01,3.6.96,1.4-.03,1.68-.09,2.34-.42h0Z"/>
    <path class="cls-3" d="M83.14,311.11c0-5.36.02-5.89.27-6.41.49-1.07,1.6-1.62,3.21-1.62h.57v-3.29l-.76.09c-.97.12-2.14.67-2.87,1.35l-.57.53v-1.65h-3.33v16.84h3.47v-5.84h0Z"/>
    <path class="cls-3" d="M93.99,310.65c0-6.77.02-6.99.74-7.48.56-.38,1.49-.3,2.04.18l.47.41.07,6.56.07,6.56,1.7.04,1.7.04v-6.14c0-3.38.04-6.35.09-6.59.14-.71.83-1.28,1.52-1.28.83,0,1.35.32,1.63.99.2.5.24,1.39.24,6.8v6.23l1.7-.04,1.7-.04.04-6.3c.04-6.78-.03-7.89-.62-8.87-1.27-2.12-4.33-2.53-6.25-.84l-.72.63-.39-.4c-1.46-1.49-3.84-1.67-5.25-.39l-.62.56v-1.17h-3.33v16.84h3.47v-6.3Z"/>
    <path class="cls-3" d="M129.73,310.58c0-6.86,0-6.9.75-7.42.55-.37,1.48-.29,2.03.19l.47.41.07,6.56.07,6.56,1.7.04,1.7.04v-6.72c0-4.3-.06-6.98-.16-7.44-.6-2.73-4.13-3.92-6.17-2.08l-.62.56v-1.17h-3.33v16.84h3.47v-6.38Z"/>
    <polygon class="cls-3" points="157.94 315.33 157.94 313.7 154.9 313.7 151.86 313.7 151.86 310.37 151.86 307.04 154.47 307.04 157.07 307.04 157.07 305.42 157.07 303.79 154.47 303.79 151.86 303.79 151.86 300.6 151.86 297.42 154.9 297.42 157.94 297.42 157.94 295.79 157.94 294.16 153.09 294.16 148.25 294.16 148.25 305.56 148.25 316.95 153.09 316.95 157.94 316.95 157.94 315.33"/>
    <path class="cls-3" d="M165.47,310.32l.07-6.56.47-.41c.55-.48,1.48-.57,2.04-.18.72.49.74.71.74,7.48v6.3h3.49l-.04-7.11c-.04-6.87-.05-7.13-.35-7.75-.37-.77-1.05-1.46-1.85-1.87-.46-.24-.86-.31-1.76-.31-1.28,0-1.75.16-2.52.92l-.45.44v-1.15h-3.33v16.85l1.7-.04,1.7-.04.07-6.56Z"/>
    <path class="cls-3" d="M194.55,308.74v-8.21h-3.47v8.12c0,4.46.04,8.16.1,8.21.05.05.83.09,1.74.09h1.64v-8.21Z"/>
    <path class="cls-3" d="M202.54,310.55c.05-6.96.05-7,.86-7.41.83-.42,1.92-.14,2.3.6.17.33.22,1.56.25,6.81l.04,6.41,1.69-.04,1.69-.04v-6.94c0-6.86-.01-6.95-.34-7.74-1-2.46-4.26-3.16-6.21-1.35l-.47.44v-1.19h-3.33v8.33c0,4.58.04,8.37.1,8.42.05.05.83.09,1.73.09h1.63l.04-6.41Z"/>
    <path class="cls-3" d="M245.19,311.33c0-3.68.06-5.82.16-6.19.36-1.27,1.23-1.88,2.89-2.01l1-.08v-1.61c0-1.85.04-1.81-1.45-1.38-.94.27-1.34.5-2.14,1.24l-.61.57v-1.76h-3.33v16.84h3.47v-5.63s0,0,0,0Z"/>
    <path class="cls-3" d="M291.82,310.05l.04-6.9,1.19-.04,1.19-.04v-2.54h-2.46v-.74c0-1.41.51-2.41,1.33-2.57.19-.04.52-.1.74-.15l.4-.08v-2.97h-.64c-1.65,0-3.18.61-4.1,1.63-.77.86-1.05,1.68-1.15,3.43l-.08,1.45h-1.69v2.55h1.74v6.84c0,3.76.04,6.88.1,6.94.05.05.83.09,1.73.09h1.64l.04-6.9h0Z"/>
    <path class="cls-3" d="M314.79,311.33c0-3.68.06-5.82.16-6.19.36-1.27,1.23-1.88,2.89-2.01l1-.08v-1.61c0-1.6,0-1.61-.35-1.61-.19,0-.77.13-1.29.29-.71.22-1.15.46-1.75,1.01l-.8.72v-1.73h-3.33v16.84h3.47v-5.63s0,0,0,0Z"/>
    <path class="cls-3" d="M339.22,315.29l.04-1.59h-6.09v-6.65h5.22l-.04-1.59-.04-1.59-2.57-.04-2.57-.04v-6.36h6.08v-3.26h-9.84v11.3c0,6.22.04,11.34.1,11.4.05.05,2.25.08,4.88.06l4.79-.04.04-1.59Z"/>
    <path class="cls-3" d="M346.74,314.37c.59-1.38,1.13-2.48,1.18-2.45.06.03.58,1.18,1.16,2.54l1.06,2.48h1.86c1.34,0,1.86-.05,1.86-.17,0-.09-.88-2-1.95-4.23-1.07-2.23-1.95-4.12-1.95-4.2s.85-1.93,1.88-4.11c1.03-2.18,1.88-4.01,1.88-4.06s-.86-.07-1.91-.05l-1.91.04-.95,2.36c-.52,1.3-.99,2.4-1.03,2.44-.05.05-.53-1.03-1.07-2.4l-.98-2.48h-1.94c-1.8,0-1.93.02-1.8.25.46.86,3.64,7.85,3.64,8.01,0,.11-.88,2.06-1.95,4.33-1.07,2.28-1.95,4.17-1.95,4.2s.86.05,1.9.02l1.9-.04,1.08-2.51Z"/>
    <path class="cls-3" d="M390.04,315.41v-1.54l-.57-.09c-.74-.12-1.41-.68-1.6-1.34-.09-.33-.15-3.78-.15-9.4v-8.88h-3.47v9.03c0,5.91.05,9.32.16,9.87.41,2.17,1.81,3.45,4.08,3.74,1.72.22,1.55.37,1.55-1.39h0Z"/>
    <path class="cls-3" d="M399.15,315.4v-1.56h-.37c-.2,0-.62-.12-.92-.28-1.05-.52-1.03-.27-1.03-10.41v-8.99h-3.48l.04,9.59c.05,10.84,0,10.3,1.21,11.62.74.8,1.71,1.26,3.01,1.43,1.71.22,1.54.37,1.54-1.41h0Z"/>
    <path class="cls-3" d="M419.99,310.65c0-6.77.02-6.99.74-7.48.56-.38,1.49-.3,2.04.18l.47.41.07,6.56.07,6.56,1.71.04,1.71.04-.04-7.19-.04-7.19-.34-.67c-1.09-2.14-4.08-2.76-5.88-1.22l-.66.57v-1.16h-3.33v16.84h3.47v-6.3Z"/>
    <polygon class="cls-3" points="194.69 296.15 194.69 294.31 192.81 294.31 190.93 294.31 190.93 296.15 190.93 297.99 192.81 297.99 194.69 297.99 194.69 296.15"/>
    <path class="cls-3" d="M376.87,312.06l-.08.53c-.31,1.84-2.5,2.07-3.18.33-.09-.24-.21-1.11-.24-1.95l-.09-1.51h7.18l-.09-2.17c-.17-3.83-.7-5.49-2.05-6.5-.91-.67-1.74-.89-3.27-.89-2.86.01-4.3,1.26-4.96,4.32-.1.48-.17,2.17-.17,4.38,0,2.92.05,3.79.24,4.57.35,1.33.85,2.23,1.64,2.91.99.86,1.57,1.01,3.54.97,1.47-.04,1.75-.09,2.39-.42,1.35-.68,2.33-2.18,2.48-3.8l.08-.84-1.71.04-1.73.04ZM373.36,305.65c.12-2.04.57-2.73,1.78-2.73s1.65.71,1.78,2.81l.08,1.31h-3.71l.08-1.39Z"/>
    <path class="cls-3" d="M451.38,312.06l-.08.53c-.31,1.84-2.5,2.07-3.18.33-.09-.24-.21-1.11-.24-1.95l-.09-1.51h7.18l-.09-2.17c-.17-3.83-.7-5.49-2.05-6.5-.91-.67-1.74-.89-3.27-.89-2.86.01-4.3,1.26-4.96,4.32-.1.48-.17,2.17-.17,4.38,0,2.92.05,3.79.24,4.57.35,1.33.85,2.23,1.64,2.91.99.86,1.57,1.01,3.54.97,1.47-.04,1.75-.09,2.39-.42,1.35-.68,2.33-2.18,2.48-3.8l.08-.84-1.71.04-1.73.04ZM447.86,305.65c.12-2.04.57-2.73,1.78-2.73s1.65.71,1.78,2.81l.08,1.31h-3.71l.08-1.39Z"/>
  </g>
  <g>
    <path class="cls-6" d="M409.07,312.06l-.08.53c-.31,1.84-2.5,2.07-3.18.33-.09-.24-.21-1.11-.24-1.95l-.09-1.51h7.18l-.09-2.17c-.17-3.83-.7-5.49-2.05-6.5-.91-.67-1.74-.89-3.27-.89-2.86.01-4.3,1.26-4.96,4.32-.1.48-.17,2.17-.17,4.38,0,2.92.05,3.79.24,4.57.35,1.33.85,2.23,1.64,2.91.99.86,1.57,1.01,3.54.97,1.47-.04,1.75-.09,2.39-.42,1.35-.68,2.33-2.18,2.48-3.8l.08-.84-1.71.04-1.73.04ZM405.55,305.65c.12-2.04.57-2.73,1.78-2.73s1.65.71,1.78,2.81l.08,1.31h-3.71l.08-1.39Z"/>
    <path class="cls-6" d="M183.26,300.11v1.01l-.61-.5c-.73-.62-1.51-.84-2.59-.76-.99.09-1.8.49-2.47,1.21-1.06,1.13-1.42,2.92-1.42,6.83.01,3.74.32,5.39,1.24,6.57.72.91,1.69,1.35,2.99,1.35,1.15,0,1.51-.11,2.2-.71l.51-.45v1.81c0,2.08-.13,2.7-.66,3.19-.3.26-.54.34-1.08.34-.82,0-1.38-.4-1.52-1.12-.21-1-.08-.93-1.89-.93h-1.65v.54c0,1.27.73,2.71,1.82,3.5,1.25.93,3.5,1.2,5.28.6,1.22-.42,2.28-1.4,2.76-2.59l.35-.86.04-9.51.05-9.52h-3.35ZM183.08,308.07l-.04,3.92-.42.42c-.58.55-1.17.65-1.82.34-.93-.45-1.07-.98-1.13-4.14-.09-4.17.17-5.24,1.34-5.63.7-.23,1.4.05,1.82.71.28.44.3.65.26,4.4Z"/>
    <path class="cls-6" d="M57.53,316.87c1.58-.45,2.92-1.7,3.56-3.32.21-.54.26-1.27.3-4.85l.05-4.21-2.94.04-2.94.04-.04,1.45-.04,1.45h2.35l-.05,2.37c-.04,2.13-.08,2.43-.38,2.97-.39.72-1.03,1.08-1.93,1.08-1.15,0-1.68-.5-2.11-2.04-.23-.81-.26-1.56-.26-6.3s.03-5.49.26-6.3c.44-1.57.95-2.04,2.22-2.04s1.99.78,2.18,2.31l.09.73h3.58v-.49c0-1.41-.71-3.17-1.69-4.2-1.54-1.61-4.72-2.08-6.93-1.02-.93.45-2.04,1.56-2.5,2.52-.76,1.59-.81,2.1-.81,8.5,0,5.18.03,6.07.25,6.9.61,2.32,1.8,3.68,3.86,4.43.73.26,2.97.25,3.92-.02h0Z"/>
    <path class="cls-6" d="M72.14,312.37c0,1.28-1.33,2.12-2.45,1.55-.66-.33-.91-1.06-.99-2.86l-.08-1.6h7.17l-.1-2.09c-.14-2.7-.4-4.12-.94-5.21-.48-.94-1.03-1.45-2.15-1.94-.54-.24-.95-.3-2.06-.3-1.62-.01-2.37.18-3.21.81-1.75,1.31-2.23,3.25-2.1,8.58.09,4.18.39,5.35,1.67,6.57,1.03,1,1.76,1.23,3.72,1.2,1.45-.04,1.67-.08,2.46-.47.57-.29,1.03-.65,1.39-1.13.59-.74,1.13-2.19,1.13-2.98v-.48h-3.48v.37ZM68.69,305.67c.09-2.07.58-2.8,1.82-2.77,1.15.04,1.61.83,1.67,2.86l.04,1.22-1.79.04-1.79.04.05-1.39Z"/>
    <path class="cls-6" d="M121.78,316.95l-.05-6.83c-.04-6.68-.05-6.85-.36-7.49-.52-1.11-1.17-1.79-2.19-2.28-.86-.42-1.06-.45-2.33-.44-1.09,0-1.56.08-2.24.33-1.6.62-2.78,2.17-2.94,3.84l-.08.86,1.71-.05,1.73-.04.08-.52c.12-.69.46-1.17.99-1.39.64-.25,1.38-.08,1.82.44.35.4.37.52.37,2.02v1.6l-1.62.08c-2.64.14-3.9.79-4.85,2.54-.37.71-.4.84-.4,2.59,0,1.62.05,1.93.35,2.58.39.84,1.53,1.94,2.24,2.14.81.23,2.42.18,3.06-.11.31-.14.79-.49,1.04-.78l.48-.52v1.42h3.19ZM118.29,311.07c0,1.88-.19,2.49-.88,2.85-.54.28-1.44.26-1.85-.03-.73-.5-1-2.32-.49-3.3.41-.78.89-1.03,2.12-1.11l1.09-.06v1.65Z"/>
    <path class="cls-6" d="M222.07,312h-1.73l-.09.57c-.21,1.23-1.49,1.9-2.51,1.28-.62-.38-.91-1.36-.91-3.09v-1.31h6.99l-.08-2.52c-.12-3.43-.48-4.74-1.6-5.81-1-.96-1.79-1.23-3.58-1.23-1.27,0-1.64.05-2.24.33-1.34.6-2.12,1.56-2.61,3.21-.32,1.12-.46,7.17-.21,8.89.37,2.53,1.34,3.93,3.14,4.56.76.26,3,.26,3.94-.01,1.43-.42,2.67-1.88,3.03-3.58.31-1.39.4-1.3-1.55-1.3ZM216.85,305.59c.05-1.13.12-1.56.35-1.94.59-1,2.12-1.02,2.72-.04.26.44.62,3.04.45,3.31-.04.06-.86.11-1.83.11h-1.74l.05-1.45Z"/>
    <path class="cls-6" d="M234.26,312.39c-.17.77-.49,1.3-.95,1.52-.91.47-2-.03-2.3-1.06-.08-.28-.18-1.16-.23-1.95l-.09-1.45h7.17l-.08-2.17c-.1-2.47-.27-3.6-.71-4.74-.41-1.07-1.39-2.03-2.45-2.39-.95-.31-2.92-.35-3.91-.08-.99.29-2.01,1.1-2.47,2-.76,1.45-.9,2.52-.89,6.51,0,3.26.03,3.72.31,4.74.39,1.37.85,2.17,1.65,2.83.89.74,1.64.93,3.51.88,1.39-.04,1.69-.09,2.33-.42,1.47-.74,2.2-1.94,2.58-4.18l.09-.45h-3.46l-.09.39ZM231.08,303.85c.26-.62.81-.94,1.55-.93,1.17.01,1.71,1.03,1.71,3.22v.89h-1.74c-1.45,0-1.75-.03-1.83-.21-.13-.35.08-2.44.31-2.97Z"/>
    <path class="cls-6" d="M260.55,312h-1.71l-.1.57c-.19,1.23-1.49,1.9-2.5,1.28-.63-.38-.91-1.36-.91-3.09v-1.31h7.07l-.06-.74c-.03-.42-.09-1.55-.13-2.52-.1-2.76-.53-4.09-1.62-5.13-.95-.89-1.76-1.17-3.51-1.17-1.27,0-1.64.05-2.24.33-1.31.58-2.15,1.62-2.61,3.21-.32,1.12-.48,7.17-.22,8.89.39,2.53,1.34,3.92,3.14,4.57.86.3,3.55.2,4.39-.18,1.26-.58,2.25-1.89,2.59-3.43.3-1.39.4-1.3-1.56-1.3ZM255.35,305.59c.04-1.13.12-1.56.35-1.94.59-1,2.12-1.02,2.7-.04.27.44.63,3.04.45,3.31-.04.06-.86.11-1.82.11h-1.75l.06-1.45Z"/>
    <path class="cls-6" d="M272.69,294.17v6.91l-.4-.35c-1.36-1.25-3.68-1.17-5.02.14-1.27,1.25-1.62,3.29-1.49,8.78.09,3.43.26,4.66.75,5.58.32.59,1.11,1.32,1.75,1.6.7.31,2.33.35,3.01.08.26-.11.72-.4,1-.65l.54-.45v1.16h3.32v-22.78h-3.46ZM271.83,313.9c-.52.26-.98.28-1.44.04-.99-.5-1.24-1.85-1.15-6.32.06-2.7.1-3.12.37-3.72.33-.76.72-1.01,1.52-1.01.44,0,.67.1,1.02.45l.46.44.04,4.53c.05,4.97.03,5.15-.82,5.58Z"/>
    <path class="cls-6" d="M305.7,301.12c-.81-.81-1.66-1.13-3.21-1.25-2.25-.16-3.9.62-4.75,2.23-.77,1.49-.94,2.82-.85,7.07.06,3.68.19,4.61.76,5.69.51.96,1.53,1.76,2.67,2.1.64.19,2.95.14,3.72-.08.94-.28,1.94-1.15,2.42-2.1.64-1.27.84-2.67.85-6.11.01-4.65-.33-6.27-1.61-7.56ZM303.88,309.95c-.12,2.52-.27,3.32-.72,3.74-.41.38-1.33.52-1.82.26-.19-.1-.48-.4-.64-.68-.28-.47-.3-.72-.3-4.75,0-3.79.03-4.29.26-4.75.14-.28.41-.59.62-.69.77-.42,1.79-.13,2.19.6.31.6.53,3.79.41,6.26Z"/>
    <path class="cls-6" d="M363.55,316.86c1.7-.54,2.69-1.95,3.11-4.4l.08-.46h-3.44l-.1.58c-.14.81-.72,1.4-1.44,1.49-.73.08-1.2-.15-1.58-.79-.28-.46-.3-.76-.34-4.28-.03-2.44,0-4.06.12-4.55.26-1.24,1.03-1.77,2.13-1.47.57.15.99.73,1.14,1.56l.09.55,1.69-.04,1.69-.04-.04-.35c-.34-3.15-2.09-4.81-5.1-4.81s-4.6,1.51-5.06,4.65c-.21,1.44-.17,7.12.06,8.39.41,2.27,1.44,3.55,3.27,4.1.69.21,2.97.14,3.75-.1h0Z"/>
    <path class="cls-6" d="M438.6,316.63c1.35-.69,2.25-2.09,2.46-3.86l.09-.78h-3.51v.46c0,1.41-1.78,2.18-2.74,1.18-.49-.51-.59-1.16-.68-4.19-.12-4.11.16-5.95.99-6.38,1.02-.53,2.19.1,2.4,1.29l.11.63,1.72.04,1.72.04-.09-.88c-.11-1.07-.73-2.41-1.41-3.08-1.07-1.05-3.03-1.5-4.96-1.15-3.13.58-4.2,3.23-3.95,9.84.14,3.71.57,5.13,1.92,6.28.95.82,1.67,1.01,3.6.96,1.4-.03,1.68-.09,2.34-.42h0Z"/>
    <path class="cls-6" d="M83.14,311.11c0-5.36.02-5.89.27-6.41.49-1.07,1.6-1.62,3.21-1.62h.57v-3.29l-.76.09c-.97.12-2.14.67-2.87,1.35l-.57.53v-1.65h-3.33v16.84h3.47v-5.84h0Z"/>
    <path class="cls-6" d="M93.99,310.65c0-6.77.02-6.99.74-7.48.56-.38,1.49-.3,2.04.18l.47.41.07,6.56.07,6.56,1.7.04,1.7.04v-6.14c0-3.38.04-6.35.09-6.59.14-.71.83-1.28,1.52-1.28.83,0,1.35.32,1.63.99.2.5.24,1.39.24,6.8v6.23l1.7-.04,1.7-.04.04-6.3c.04-6.78-.03-7.89-.62-8.87-1.27-2.12-4.33-2.53-6.25-.84l-.72.63-.39-.4c-1.46-1.49-3.84-1.67-5.25-.39l-.62.56v-1.17h-3.33v16.84h3.47v-6.3Z"/>
    <path class="cls-6" d="M129.73,310.58c0-6.86,0-6.9.75-7.42.55-.37,1.48-.29,2.03.19l.47.41.07,6.56.07,6.56,1.7.04,1.7.04v-6.72c0-4.3-.06-6.98-.16-7.44-.6-2.73-4.13-3.92-6.17-2.08l-.62.56v-1.17h-3.33v16.84h3.47v-6.38Z"/>
    <polygon class="cls-6" points="157.94 315.33 157.94 313.7 154.9 313.7 151.86 313.7 151.86 310.37 151.86 307.04 154.47 307.04 157.07 307.04 157.07 305.42 157.07 303.79 154.47 303.79 151.86 303.79 151.86 300.6 151.86 297.42 154.9 297.42 157.94 297.42 157.94 295.79 157.94 294.16 153.09 294.16 148.25 294.16 148.25 305.56 148.25 316.95 153.09 316.95 157.94 316.95 157.94 315.33"/>
    <path class="cls-6" d="M165.47,310.32l.07-6.56.47-.41c.55-.48,1.48-.57,2.04-.18.72.49.74.71.74,7.48v6.3h3.49l-.04-7.11c-.04-6.87-.05-7.13-.35-7.75-.37-.77-1.05-1.46-1.85-1.87-.46-.24-.86-.31-1.76-.31-1.28,0-1.75.16-2.52.92l-.45.44v-1.15h-3.33v16.85l1.7-.04,1.7-.04.07-6.56Z"/>
    <path class="cls-6" d="M194.55,308.74v-8.21h-3.47v8.12c0,4.46.04,8.16.1,8.21.05.05.83.09,1.74.09h1.64v-8.21Z"/>
    <path class="cls-6" d="M202.54,310.55c.05-6.96.05-7,.86-7.41.83-.42,1.92-.14,2.3.6.17.33.22,1.56.25,6.81l.04,6.41,1.69-.04,1.69-.04v-6.94c0-6.86-.01-6.95-.34-7.74-1-2.46-4.26-3.16-6.21-1.35l-.47.44v-1.19h-3.33v8.33c0,4.58.04,8.37.1,8.42.05.05.83.09,1.73.09h1.63l.04-6.41Z"/>
    <path class="cls-6" d="M245.19,311.33c0-3.68.06-5.82.16-6.19.36-1.27,1.23-1.88,2.89-2.01l1-.08v-1.61c0-1.85.04-1.81-1.45-1.38-.94.27-1.34.5-2.14,1.24l-.61.57v-1.76h-3.33v16.84h3.47v-5.63s0,0,0,0Z"/>
    <path class="cls-6" d="M291.82,310.05l.04-6.9,1.19-.04,1.19-.04v-2.54h-2.46v-.74c0-1.41.51-2.41,1.33-2.57.19-.04.52-.1.74-.15l.4-.08v-2.97h-.64c-1.65,0-3.18.61-4.1,1.63-.77.86-1.05,1.68-1.15,3.43l-.08,1.45h-1.69v2.55h1.74v6.84c0,3.76.04,6.88.1,6.94.05.05.83.09,1.73.09h1.64l.04-6.9h0Z"/>
    <path class="cls-6" d="M314.79,311.33c0-3.68.06-5.82.16-6.19.36-1.27,1.23-1.88,2.89-2.01l1-.08v-1.61c0-1.6,0-1.61-.35-1.61-.19,0-.77.13-1.29.29-.71.22-1.15.46-1.75,1.01l-.8.72v-1.73h-3.33v16.84h3.47v-5.63s0,0,0,0Z"/>
    <path class="cls-6" d="M339.22,315.29l.04-1.59h-6.09v-6.65h5.22l-.04-1.59-.04-1.59-2.57-.04-2.57-.04v-6.36h6.08v-3.26h-9.84v11.3c0,6.22.04,11.34.1,11.4.05.05,2.25.08,4.88.06l4.79-.04.04-1.59Z"/>
    <path class="cls-6" d="M346.74,314.37c.59-1.38,1.13-2.48,1.18-2.45.06.03.58,1.18,1.16,2.54l1.06,2.48h1.86c1.34,0,1.86-.05,1.86-.17,0-.09-.88-2-1.95-4.23-1.07-2.23-1.95-4.12-1.95-4.2s.85-1.93,1.88-4.11c1.03-2.18,1.88-4.01,1.88-4.06s-.86-.07-1.91-.05l-1.91.04-.95,2.36c-.52,1.3-.99,2.4-1.03,2.44-.05.05-.53-1.03-1.07-2.4l-.98-2.48h-1.94c-1.8,0-1.93.02-1.8.25.46.86,3.64,7.85,3.64,8.01,0,.11-.88,2.06-1.95,4.33-1.07,2.28-1.95,4.17-1.95,4.2s.86.05,1.9.02l1.9-.04,1.08-2.51Z"/>
    <path class="cls-6" d="M390.04,315.41v-1.54l-.57-.09c-.74-.12-1.41-.68-1.6-1.34-.09-.33-.15-3.78-.15-9.4v-8.88h-3.47v9.03c0,5.91.05,9.32.16,9.87.41,2.17,1.81,3.45,4.08,3.74,1.72.22,1.55.37,1.55-1.39h0Z"/>
    <path class="cls-6" d="M399.15,315.4v-1.56h-.37c-.2,0-.62-.12-.92-.28-1.05-.52-1.03-.27-1.03-10.41v-8.99h-3.48l.04,9.59c.05,10.84,0,10.3,1.21,11.62.74.8,1.71,1.26,3.01,1.43,1.71.22,1.54.37,1.54-1.41h0Z"/>
    <path class="cls-6" d="M419.99,310.65c0-6.77.02-6.99.74-7.48.56-.38,1.49-.3,2.04.18l.47.41.07,6.56.07,6.56,1.71.04,1.71.04-.04-7.19-.04-7.19-.34-.67c-1.09-2.14-4.08-2.76-5.88-1.22l-.66.57v-1.16h-3.33v16.84h3.47v-6.3Z"/>
    <polygon class="cls-6" points="194.69 296.15 194.69 294.31 192.81 294.31 190.93 294.31 190.93 296.15 190.93 297.99 192.81 297.99 194.69 297.99 194.69 296.15"/>
    <path class="cls-6" d="M376.87,312.06l-.08.53c-.31,1.84-2.5,2.07-3.18.33-.09-.24-.21-1.11-.24-1.95l-.09-1.51h7.18l-.09-2.17c-.17-3.83-.7-5.49-2.05-6.5-.91-.67-1.74-.89-3.27-.89-2.86.01-4.3,1.26-4.96,4.32-.1.48-.17,2.17-.17,4.38,0,2.92.05,3.79.24,4.57.35,1.33.85,2.23,1.64,2.91.99.86,1.57,1.01,3.54.97,1.47-.04,1.75-.09,2.39-.42,1.35-.68,2.33-2.18,2.48-3.8l.08-.84-1.71.04-1.73.04ZM373.36,305.65c.12-2.04.57-2.73,1.78-2.73s1.65.71,1.78,2.81l.08,1.31h-3.71l.08-1.39Z"/>
    <path class="cls-6" d="M451.38,312.06l-.08.53c-.31,1.84-2.5,2.07-3.18.33-.09-.24-.21-1.11-.24-1.95l-.09-1.51h7.18l-.09-2.17c-.17-3.83-.7-5.49-2.05-6.5-.91-.67-1.74-.89-3.27-.89-2.86.01-4.3,1.26-4.96,4.32-.1.48-.17,2.17-.17,4.38,0,2.92.05,3.79.24,4.57.35,1.33.85,2.23,1.64,2.91.99.86,1.57,1.01,3.54.97,1.47-.04,1.75-.09,2.39-.42,1.35-.68,2.33-2.18,2.48-3.8l.08-.84-1.71.04-1.73.04ZM447.86,305.65c.12-2.04.57-2.73,1.78-2.73s1.65.71,1.78,2.81l.08,1.31h-3.71l.08-1.39Z"/>
  </g>
</svg>