<?xml version="1.0" encoding="UTF-8"?>
<svg id="Layer_1" data-name="Layer 1" xmlns="http://www.w3.org/2000/svg" xmlns:xlink="http://www.w3.org/1999/xlink" viewBox="0 0 512 512">
  <defs>
    <style>
      .cls-1 {
        fill: url(#linear-gradient-2);
      }

      .cls-2 {
        fill: #1990bd;
      }

      .cls-3 {
        fill: url(#linear-gradient);
      }
    </style>
    <linearGradient id="linear-gradient" x1="44.38" y1="274.09" x2="94.41" y2="242.68" gradientUnits="userSpaceOnUse">
      <stop offset="0" stop-color="#a6c372"/>
      <stop offset="1" stop-color="#4b8db2"/>
    </linearGradient>
    <linearGradient id="linear-gradient-2" x1="455.02" y1="215.22" x2="462.07" y2="215.22" xlink:href="#linear-gradient"/>
  </defs>
  <path class="cls-3" d="M88.5,242.42s-2.85-5.61-11.01-5.61-16.72,10.4-3.11,17.84c13.61,7.44,30.73-.1,30.73-16.05s-15.95-23.14-28.54-23.14-30.17,6.37-30.17,23.65,17.82,35.33,21.15,41.87c1.86,3.66,5.2,15.01-8.31,15.01s-.82-14.52,4.03-16.46c0,0-17.28.51-17.28,13.91s33.02,15.95,33.02-2.34c0-14.09-16.26-29.3-21.71-42.3-5.45-13,5.96-24.92,19.77-24.92s21.25,7.19,21.25,14.83-6.55,12.15-12.26,12.15-8.26-1.94-8.26-4.2,2.7-4.46,5.53-4.46,5.15.23,5.15.23Z"/>
  <path class="cls-2" d="M202.45,222.6c-9.29,0-16.82,6.93-16.82,15.46s7.53,15.46,16.82,15.46,16.83-6.93,16.83-15.46-7.54-15.46-16.83-15.46ZM202.45,247c-4.12,0-7.46-4-7.46-8.94s3.33-8.94,7.46-8.94,7.47,4,7.47,8.94-3.34,8.94-7.47,8.94Z"/>
  <path class="cls-2" d="M259.03,233.4v19.62h-9.83v-14.97s.56-8.6-6.04-8.6c-6.22,0-6.4,6.63-6.4,7.42v16.16h-9.84v-29.46h9.84v6.77c1.09-1.5,3.07-4.04,4.97-5.42,2.79-2.06,7.47-1.35,7.47-1.35,2.71,0,5.17,1.1,6.95,2.88,1.79,1.79,2.88,4.24,2.88,6.96Z"/>
  <path class="cls-2" d="M177.1,224.22v6.96s-8.75-2.59-14.1-2.59-6.46,5.64.99,5.64,15.29,2.24,15.29,9.48-5.75,10.4-15.12,10.4-12.9-1.85-12.9-1.85v-6.8s5.83,2.77,12.36,2.77,6.98-2.75,6.98-3.69-.97-3.38-8.62-3.38-11.24-2.29-11.24-9.21,4.97-9.06,13.78-9.06,12.58,1.34,12.58,1.34Z"/>
  <path class="cls-2" d="M444.18,224.22v6.96s-8.75-2.59-14.1-2.59-6.46,5.64.99,5.64,15.29,2.24,15.29,9.48-5.75,10.4-15.12,10.4-12.9-1.85-12.9-1.85v-6.8s5.83,2.77,12.36,2.77,6.98-2.75,6.98-3.69-.97-3.38-8.62-3.38-11.24-2.29-11.24-9.21,4.97-9.06,13.78-9.06,12.58,1.34,12.58,1.34Z"/>
  <rect class="cls-2" x="453.41" y="223.9" width="10.27" height="29.23"/>
  <ellipse class="cls-2" cx="458.55" cy="215.22" rx="7.45" ry="7.38"/>
  <ellipse class="cls-1" cx="458.55" cy="215.22" rx="3.52" ry="3.49"/>
  <path class="cls-2" d="M377.38,243.07v-19.62h9.83v14.97s-.56,8.6,6.04,8.6c6.22,0,6.4-6.63,6.4-7.42v-16.16h9.84v29.46h-9.84v-6.77c-1.09,1.5-3.07,4.04-4.97,5.42-2.79,2.06-7.47,1.35-7.47,1.35-2.71,0-5.17-1.1-6.95-2.88-1.79-1.79-2.88-4.24-2.88-6.96Z"/>
  <path class="cls-2" d="M347.75,234.37v18.65h-.3v-16.16c0-.28.02-1.3.3-2.5Z"/>
  <path class="cls-2" d="M367.64,233.4v19.62h-8.91v-14.97s.51-8.6-5.48-8.6c-3.63,0-4.99,2.75-5.5,4.92-.28,1.2-.3,2.22-.3,2.5v16.16h-8.92v-14.97s.02-.34,0-.87c-.06-2.2-.7-7.73-5.67-7.73-5.83,0-6,6.63-6,7.42v16.16h-9.22v-29.46h9.22v6.77c1.03-1.5,2.88-4.04,4.66-5.42,2.62-2.06,7.01-1.35,7.01-1.35,2.55,0,4.85,1.1,6.52,2.88.59.63,1.1,1.35,1.51,2.14.2.35.37.73.51,1.11,1.36-1.59,3.54-3.7,4.9-4.78,2.54-2.06,6.77-1.35,6.77-1.35,2.47,0,4.69,1.1,6.3,2.88,1.63,1.79,2.61,4.24,2.61,6.96Z"/>
  <path class="cls-2" d="M338.53,238.05v-.87c.02.53,0,.87,0,.87Z"/>
  <path class="cls-2" d="M288.79,224.05c-2.52-.76-5.23-1.12-7.67-1.12-7.19,0-12.1,1.2-12.1,1.2v7.87c0-.1.08-3.62,11.14-3.62,5.13,0,7.53,1.71,8.63,3.56,1.3,2.19.77,4.58.77,4.58,0,0-.23-.15-.77-.37-1.43-.55-5.03-1.53-12.41-1.25-10.07.38-10.12,9.27-10.12,9.45,0,4.95,2.28,9.61,11.68,9.61,3.68,0,7.54-2.05,10.85-4.99v2.96h9.02v-18.61c0-4.82-4.14-7.8-9.02-9.28ZM276.21,243.54c0-6.96,12.45-3.86,12.45-3.86,0,9.48-12.45,10.82-12.45,3.86Z"/>
  <path class="cls-2" d="M128.01,222.91c-19.1,0-17.12,17.67-17.12,17.67,0,0,.75,13.31,18.31,13.31,6.15,0,11.52-.88,14.43-2.03v-7.5c-1.05.8-6.4,3.68-13.54,3.68-8.3,0-9.72-4.13-9.72-7.48h23.89s2.83-17.67-16.26-17.67ZM135.06,235.39h-14.12s-.94-6.8,7.06-6.8,7.06,6.8,7.06,6.8Z"/>
</svg>