<?xml version="1.0" encoding="UTF-8"?>
<svg id="Layer_1" data-name="Layer 1" xmlns="http://www.w3.org/2000/svg" viewBox="0 0 512 512">
  <defs>
    <style>
      .cls-1 {
        fill: #fff;
      }

      .cls-2 {
        fill: #bf2828;
      }
    </style>
  </defs>
  <path class="cls-2" d="M456,256.57c-.31,110.45-90.1,199.76-200.57,199.43-110.45-.32-199.74-90.13-199.42-200.59.31-110.45,90.12-199.74,200.57-199.42,110.46.32,199.75,90.12,199.43,200.58"/>
  <path class="cls-2" d="M152.01,416.13l-67.2,21.3c-9.85,3.12-15.2-2.33-11.88-12.12l22.59-66.63"/>
  <polygon class="cls-1" points="361.34 222 405.3 214.25 413.61 293.47 380.79 299.26 361.34 222"/>
  <path class="cls-1" d="M422.42,323.98c1.93,10.94-5.38,21.38-16.33,23.31-10.94,1.93-21.38-5.37-23.31-16.32-1.93-10.95,5.38-21.39,16.32-23.31,10.95-1.93,21.38,5.38,23.32,16.32"/>
  <polygon class="cls-1" points="189.29 253.67 174.5 296.55 145.93 261.32 99.5 269.5 160.56 347.18 167.99 389.3 169.67 389 210.81 381.75 212.48 381.45 205.01 339.04 235.7 245.49 189.29 253.67"/>
  <path class="cls-1" d="M297.89,331.4l-5.17-.87,8.02-47.71,7.35.87-10.19,47.71ZM288.66,319.51l-5.13-.08-1.48-48.42,7.33.12-.72,48.38ZM302.19,233.76l-40.97,7.22h0s-29.88,137.14-29.88,137.14l61.08-10.77-.63-3.55c-9.66-2.81-17.39-10.85-19.26-21.43h0s53.7-9.47,53.7-9.47c1.85,10.51-2.6,20.65-10.62,26.62l.64,3.63,28.68-5.06,32.24-5.69-74.99-118.65Z"/>
  <polygon class="cls-1" points="387.17 176.68 371.79 176.68 371.79 195 355.62 176.68 355.26 176.68 339.78 176.68 339.79 224.45 355.62 224.45 355.62 204.01 372.92 224.43 372.92 224.45 372.94 224.45 373.3 224.45 385.69 224.45 387.18 224.45 387.17 176.68"/>
  <polygon class="cls-1" points="306.54 206.52 326.38 206.52 326.38 194.59 306.53 194.59 306.53 188.61 331.34 188.61 331.34 176.68 306.53 176.68 306.53 176.68 291.15 176.68 291.15 176.68 291.15 188.61 291.15 188.61 291.15 194.59 291.15 194.59 291.15 206.52 291.15 206.52 291.15 212.51 291.15 212.51 291.15 224.44 291.16 224.44 306.54 224.44 306.54 224.43 331.34 224.43 331.34 212.5 306.54 212.51 306.54 206.52"/>
  <polygon class="cls-1" points="265.69 176.68 265.69 176.69 252.86 191.2 240.04 176.69 240.04 176.68 224.66 176.68 224.67 224.43 240.05 224.43 240.04 199.13 252.86 213.47 265.68 199.13 265.68 224.43 281.06 224.43 281.07 176.68 265.69 176.68"/>
  <path class="cls-1" d="M149.68,207.06c4.88-2.85,8.17-8.15,8.17-14.21,0-9.07-7.38-16.45-16.45-16.45h-12.13s-15.61,0-15.61,0v48.04h15.92v-15.15s3.49,0,3.49,0l8.34,15.15h18.69l-10.42-17.39ZM137.05,195.25h-7.44v-5.98h7.43s0,0,0,0c1.65,0,2.99,1.34,2.99,2.99s-1.33,2.99-2.99,2.99"/>
  <path class="cls-1" d="M187.44,205.63l4.35-10.94,4.34,10.94h-8.69ZM199.42,176.7h-15.28l-19.58,47.73h18.24l2.72-6.43h12.53l2.72,6.43h18.24l-19.58-47.73Z"/>
  <polygon class="cls-1" points="132.99 146.03 133.33 146.03 133.33 145.68 133.33 142.61 133.33 142.27 132.99 142.27 114.45 142.27 114.11 142.27 114.11 142.61 114.11 145.68 114.11 146.03 114.45 146.03 132.99 146.03"/>
  <path class="cls-1" d="M113.71,147.97h-.34v3.87h16.1c-.61,2.43-1.86,4.25-3.72,5.41-2,1.25-5.26,2.01-9.71,2.25l-.4.02.09.4.72,3.16.06.28h.28c2.32-.08,4.58-.37,6.72-.85,2.17-.49,4.14-1.41,5.85-2.73,1.73-1.34,2.99-3.04,3.75-5.06.75-1.99,1.15-4.15,1.18-6.41v-.34s-.34,0-.34,0h-20.22Z"/>
  <polygon class="cls-1" points="138.72 150.56 138.38 150.56 138.38 150.9 138.38 154.14 138.38 154.48 138.72 154.48 161.09 154.48 161.43 154.48 161.43 154.14 161.43 150.9 161.43 150.56 161.09 150.56 138.72 150.56"/>
  <path class="cls-1" d="M180.17,152.25c1.91-3.09,3.19-6.52,3.79-10.18l.06-.36-.36-.04-3.82-.43-.32-.04-.05.32c-.44,2.77-1.45,5.52-3.03,8.19-2.05-1.29-4.5-2.68-7.29-4.13l-.24-.12-.18.21-2.16,2.59-.26.32.36.2c3.42,1.93,5.87,3.39,7.29,4.34-1.32,1.44-2.88,2.76-4.65,3.92-1.87,1.24-3.76,2.13-5.6,2.66l-.4.11.19.37,1.55,3.02.13.25.27-.08c4.82-1.38,8.9-3.95,12.15-7.61,2.32,1.75,4.07,3.26,5.19,4.49l.25.28.25-.27,2.69-2.92.24-.26-.26-.23c-1.95-1.7-3.89-3.25-5.77-4.61"/>
  <path class="cls-1" d="M210,148.05l-.3-.2-.18.31c-1.15,1.94-2.22,3.42-3.17,4.38-.96.98-2.14,1.95-3.51,2.9-1.35.94-2.96,1.71-4.78,2.29-1.82.58-4.13,1-6.87,1.25l-.4.03.09.39.83,3.4.07.29.29-.03c5.12-.5,9.41-1.77,12.75-3.79,3.36-2.02,6.12-5,8.2-8.84l.15-.28-.26-.17-2.93-1.95Z"/>
  <path class="cls-1" d="M197.26,148.68c.92.52,1.99,1.17,3.19,1.94l.27.17.19-.26,2.23-3.02.23-.31-.33-.19c-3.98-2.3-7.29-3.99-9.85-5.01l-.25-.1-.16.22-1.92,2.79-.22.32.35.18c3.31,1.67,5.36,2.74,6.28,3.26"/>
  <path class="cls-1" d="M229.18,150.74h4.51l-1.15.49c.3.27.68.63,1.11,1.09-1.26.07-3.11.12-5.55.17.41-.63.78-1.21,1.09-1.75M231.75,159.01h6.91v-2.55h-6.91v-1.6c1.66-.11,2.99-.22,4.01-.32l1.22,1.32,3.12-1.28c-.87-.96-2.18-2.24-3.93-3.84h3.75v-2.52h-18.37v2.52h4.03c-.36.67-.7,1.27-1.01,1.8l-2.99.03.31,2.68c1.58,0,3.64-.06,6.19-.18v1.4h-6.5v2.55h6.5v1.47h-8.37v2.65l20.35.1v-2.75h-8.29v-1.47Z"/>
  <path class="cls-1" d="M220.92,143.39h14.87v1.45h-14.87v-1.45ZM220.89,151.29v-4.34h18.09v-5.79h-21.51v11.17c0,1.58-.17,3.24-.52,4.99-.35,1.74-.89,3.33-1.61,4.75l2.68,1.43c.7-.98,1.36-2.62,1.96-4.92.6-2.3.91-4.73.92-7.3"/>
</svg>