<?xml version="1.0" encoding="UTF-8"?>
<svg id="Layer_1" data-name="Layer 1" xmlns="http://www.w3.org/2000/svg" viewBox="0 0 512 512">
  <defs>
    <style>
      .cls-1, .cls-2 {
        fill: #231f20;
      }

      .cls-3 {
        letter-spacing: 0em;
      }

      .cls-4 {
        letter-spacing: .02em;
      }

      .cls-5, .cls-2 {
        isolation: isolate;
      }

      .cls-2 {
        font-family: Ravise-Regular, Ravise;
        font-size: 70.86px;
      }
    </style>
  </defs>
  <g id="g10">
    <g id="text9" class="cls-5">
      <text class="cls-2" transform="translate(131.85 408.64)"><tspan x="0" y="0">r</tspan><tspan class="cls-4" x="33.94" y="0">e</tspan><tspan class="cls-3" x="66.68" y="0">d</tspan><tspan class="cls-4" x="104.31" y="0">og</tspan><tspan x="177.72" y="0">go</tspan></text>
    </g>
    <path id="path10" class="cls-1" d="M158.18,86v3.59c3.6,0,6.6,1.56,9,4.68,2.4,3.12,3.6,6.48,3.6,10.07v200.38c0,7.91-1.2,14.87-3.6,20.86-2.4,5.76-5.4,8.63-9,8.63v3.6h31.09c-.13-77.86,38.06-70.84,38.96-138.87-.12-9.77-1.43-20.9-2.93-29.72-.41-2.42-.72-5.25-2.24-5.22-1.52.03-1.9,3.83-2.04,6.16-.5,8.15-.56,15.61-1.87,20.78-2.34,10.83-21.32,10.64-27.53.84-2.67-4.21-.83-8.67.62-12.47,1.45-3.81,10.91-18.91,12.95-24.62,2.03-5.71,5.21-18.13,8.41-23.39,10.26-16.85,37.55-23.09,47.48-16.84,4.46,2.81,6.53,12.13,8.5,18.34,1.97,6.21,11.56,2.37,13.74,1.64,5.62-1.89,7.53-3.57,17.13-6.51.9-2.24,3.33-3.7,7.35-4.04,4.02-.33,10,1.4,10.29,7.81.29,6.41-2.2,6.08-1.36,7.37,5.94,16.72-6.61,29.41-21.03,34.91-17.7,6.31-39.83-1.23-41.76,7.85-.97,9.89,1.15,19.65,6.07,28.37,8.44,11.91,17.01,24.22,20.45,38.63,9.86,38.47,5.11,88.96,58.5,88.96h30.38v-3.6c-3.6,0-7.91-2.52-12.95-7.56-4.8-5.04-9-11.27-12.59-18.71-3.6-7.19-7.19-14.87-10.79-23.02-3.36-8.39-7.08-16.43-11.15-24.1-3.84-7.67-8.15-14.63-12.95-20.86-4.56-6.48-9.71-11.4-15.46-14.75,4.8-2.16,10.07-5.27,15.83-9.35,5.76-4.32,11.15-9.48,16.19-15.47,5.04-6.24,9.23-13.19,12.59-20.86,3.6-7.91,5.4-16.67,5.4-26.26,0-10.55-2.4-20.03-7.2-28.42-4.56-8.39-10.91-15.47-19.07-21.23-8.15-5.76-17.51-10.07-28.06-12.95-10.55-3.12-21.82-4.68-33.82-4.68h-97.13ZM253.96,135.17c-.11,0-.21,0-.32.02-3.44.25-5.84,5.77-5.58,9.21.25,3.44,6.39,1.81,6.39,1.81,0,0,6.13-1.81,5.88-5.25-.24-3.33-3.06-5.86-6.36-5.79h0Z"/>
  </g>
</svg>