<?xml version="1.0" encoding="UTF-8"?>
<svg id="Layer_1" data-name="Layer 1" xmlns="http://www.w3.org/2000/svg" viewBox="0 0 512 512">
  <defs>
    <style>
      .cls-1 {
        fill: #fff;
      }

      .cls-2 {
        fill: #010101;
      }

      .cls-3 {
        fill: #ec2227;
      }
    </style>
  </defs>
  <g id="g28186-9">
    <g id="g28040-7">
      <path id="path28038-4" class="cls-2" d="M53.99,331.45c4.13,0,6.2-1.49,6.2-4.47,0-1.4-.48-2.46-1.43-3.2-.73-.6-2.34-.9-4.83-.9h-5.13v8.56h5.2ZM60.56,343.91l-6.66-9.96h-5.1v9.96h-2.8v-23.52h7.23c3.02,0,5.12.23,6.29.7,2.42.95,3.63,2.93,3.63,5.93,0,3.8-2.13,5.99-6.4,6.56l7.16,10.33h-3.37"/>
    </g>
    <g id="g28044-4">
      <path id="path28042-6" class="cls-2" d="M67.52,343.91v-23.52h15.42v2.6h-12.53v7.53h11.43v2.57h-11.43v8.23h13.29v2.6h-16.19"/>
    </g>
    <g id="g28048-9">
      <path id="path28046-3" class="cls-2" d="M93.77,341.38c3.66,0,6.1-.74,7.3-2.23,1.42-1.76,2.13-4.15,2.13-7.2,0-5.26-1.74-8.21-5.23-8.83-.78-.15-2-.23-3.66-.23h-4.06v18.49h3.53ZM87.41,320.39h6.6c3.51,0,5.96.35,7.36,1.04,1.49.73,2.66,2.04,3.53,3.93.86,1.87,1.3,4.04,1.3,6.53,0,4-1.02,7.05-3.07,9.16-.93,1-2.02,1.7-3.26,2.1-1.51.51-3.58.77-6.2.77h-6.26v-23.52"/>
    </g>
    <g id="g28052-8">
      <path id="path28050-6" class="cls-2" d="M110.62,343.91v-23.52h15.42v2.6h-12.53v7.53h11.43v2.57h-11.43v8.23h13.29v2.6h-16.19"/>
    </g>
    <g id="g28056-5">
      <path id="path28054-9" class="cls-2" d="M130.51,343.91v-23.52h15.36v2.6h-12.49v7.33h11.26v2.6h-11.26v10.99h-2.86"/>
    </g>
    <path id="path28058-6" class="cls-2" d="M149.83,343.91h2.83v-23.52h-2.83v23.52Z"/>
    <g id="g28062-7">
      <path id="path28060-6" class="cls-2" d="M173.35,343.91l-12.66-19.65c.07,1.6.1,8.15.1,19.65h-2.73v-23.52h3.3c7.11,11.06,11.29,17.63,12.56,19.72-.07-4.6-.1-11.17-.1-19.72h2.77v23.52h-3.23"/>
    </g>
    <g id="g28066-3">
      <path id="path28064-4" class="cls-2" d="M181.98,343.91v-23.52h15.43v2.6h-12.53v7.53h11.43v2.57h-11.43v8.23h13.29v2.6h-16.19"/>
    </g>
    <g id="g28070-8">
      <path id="path28068-4" class="cls-2" d="M214.82,343.91v-20.92h-6.99v-2.6h16.92v2.6h-7.03v20.92h-2.9"/>
    </g>
    <g id="g28074-8">
      <path id="path28072-7" class="cls-2" d="M243.81,343.91v-10.96h-12.53v10.96h-2.8v-23.52h2.8v10.03h12.53v-10.03h2.83v23.52h-2.83"/>
    </g>
    <g id="g28078-5">
      <path id="path28076-7" class="cls-2" d="M252.04,343.91v-23.52h15.43v2.6h-12.53v7.53h11.42v2.57h-11.42v8.23h13.29v2.6h-16.19"/>
    </g>
    <g id="g28082-7">
      <path id="path28080-0" class="cls-2" d="M292.88,320.4c3.22,11.99,4.98,18.6,5.26,19.82.67-3.09,2.31-9.69,4.93-19.82h2.8l-6.26,23.52h-2.77c-2.93-10.39-4.68-16.91-5.26-19.55-.78,3.38-2.53,9.89-5.26,19.55h-2.8l-6.46-23.52h2.93c2.46,9.39,4.17,16.01,5.13,19.85,1.13-4.71,2.83-11.33,5.1-19.85h2.66"/>
    </g>
    <g id="g28086-6">
      <path id="path28084-4" class="cls-2" d="M318.79,335.15c-2.07-5.71-3.48-9.63-4.23-11.76-.31.91-1.73,4.83-4.26,11.76h8.49ZM321.89,343.91l-2.27-6.33h-10.23l-2.26,6.33h-3.07l9.1-23.52h3.03l8.79,23.52h-3.1"/>
    </g>
    <g id="g28090-9">
      <path id="path28088-7" class="cls-2" d="M330.55,343.91v-9.8l-8.46-13.72h3.33c3.46,5.93,5.67,9.78,6.63,11.56.85-1.6,3.13-5.45,6.86-11.56h3.1l-8.63,13.72v9.8h-2.83"/>
    </g>
    <g id="g28094-3">
      <path id="path28092-9" class="cls-2" d="M367.23,325.09c-1.29-1.75-3.04-2.63-5.27-2.63s-4.06.83-5.4,2.5c-1.33,1.67-2,3.95-2,6.86,0,3.07.69,5.5,2.06,7.3,1.36,1.78,3.18,2.66,5.46,2.66,2.15,0,3.87-.84,5.16-2.53,1.29-1.69,1.93-4,1.93-6.93,0-3.04-.66-5.45-1.97-7.23ZM355.47,342.05c-2.6-2.29-3.9-5.66-3.9-10.13,0-3.66.94-6.58,2.83-8.76,1.89-2.15,4.43-3.23,7.63-3.23s5.54,1.07,7.3,3.2c1.93,2.38,2.9,5.44,2.9,9.19s-.9,6.65-2.7,8.83c-1.8,2.15-4.25,3.23-7.36,3.23-2.71,0-4.94-.78-6.7-2.33"/>
    </g>
    <g id="g28098-9">
      <path id="path28096-6" class="cls-2" d="M376.65,343.91v-23.52h15.36v2.6h-12.49v7.33h11.26v2.6h-11.26v10.99h-2.87"/>
    </g>
    <g id="g28102-0">
      <path id="path28100-0" class="cls-2" d="M403.61,343.91v-23.52h2.83v20.92h12.03v2.6h-14.86"/>
    </g>
    <path id="path28104-9" class="cls-2" d="M422.26,343.91h2.83v-23.52h-2.83v23.52Z"/>
    <g id="g28108-9">
      <path id="path28106-1" class="cls-2" d="M430.49,343.91v-23.52h15.36v2.6h-12.49v7.33h11.26v2.6h-11.26v10.99h-2.86"/>
    </g>
    <g id="g28112-9">
      <path id="path28110-8" class="cls-2" d="M449.81,343.91v-23.52h15.43v2.6h-12.53v7.53h11.43v2.57h-11.43v8.23h13.29v2.6h-16.19"/>
    </g>
    <g id="g28116-8">
      <path id="path28114-1" class="cls-3" d="M379.44,290.76c0,6.45-5.24,11.67-11.67,11.67h-223.86c-6.45,0-11.68-5.21-11.68-11.67v-1.18c0-6.47,5.23-11.68,11.68-11.68h223.86c6.43,0,11.67,5.21,11.67,11.68v1.18"/>
    </g>
    <g id="g28120-0">
      <path id="path28118-1" class="cls-1" d="M156.04,296.23l2.86-13.66h1.81l-2.86,13.66h-1.81"/>
    </g>
    <g id="g28124-8">
      <path id="path28122-1" class="cls-1" d="M193.39,296.23l2.53-12.13h-4.59l.35-1.53h10.83l-.32,1.53h-4.46l-2.52,12.13h-1.82"/>
    </g>
    <g id="g28128-7">
      <path id="path28126-4" class="cls-1" d="M227.58,296.23l7.74-13.66h2.2l2.23,13.66h-1.79l-.63-3.93h-5.54l-2.21,3.93h-2ZM232.59,290.86h4.5l-.53-3.4c-.21-1.38-.35-2.49-.4-3.42-.3.78-.76,1.71-1.35,2.8l-2.22,4.02"/>
    </g>
    <g id="g28132-7">
      <path id="path28130-0" class="cls-1" d="M270.27,296.23l2.85-13.66h1.82l-2.53,12.13h7.06l-.34,1.53h-8.86"/>
    </g>
    <g id="g28136-9">
      <path id="path28134-6" class="cls-1" d="M309.92,296.23l2.86-13.66h1.83l-2.86,13.66h-1.82"/>
    </g>
    <g id="g28140-5">
      <path id="path28138-0" class="cls-1" d="M342.49,296.23l7.74-13.66h2.18l2.24,13.66h-1.8l-.63-3.93h-5.54l-2.18,3.93h-2ZM347.48,290.86h4.51l-.52-3.4c-.22-1.38-.34-2.49-.39-3.42-.32.78-.77,1.71-1.36,2.8l-2.24,4.02"/>
    </g>
    <g id="g28144-0">
      <path id="path28142-5" class="cls-2" d="M133.29,198.1h12.62v37.36s-.68,17.59,12.65,17.59h8.38s20.19-.69,20.19-20.88v-34.08h14.14v64h-12.9v-10.28s-7.17,11.29-25.29,11.29c-19.85,0-29.27-9.99-29.27-20.58,0-10.59-.52-44.44-.52-44.44"/>
    </g>
    <g id="g28148-4">
      <path id="path28146-4" class="cls-2" d="M252.79,196.67s4.67,9.32,12.36,18.45l.34.39c4.46,4.91,7.71,9.86,7.71,16.76,0,12.26-9.88,22.17-22.06,22.17s-22.04-9.91-22.04-22.17c0-5.67,2.11-10.85,5.62-14.78h-.06c7.39-8.78,13.08-19.81,13.56-20.76-15.71,1.28-26.21,12.93-26.21,12.93v-41.46h-13.47v93.36h13.47v-9.85l.59.57c8.27,8.26,16.87,10.72,27.84,10.72,12.39,0,38.85-4.92,38.85-32.76s-24.39-33-36.5-33.59"/>
    </g>
    <g id="g28152-1">
      <path id="path28150-3" class="cls-2" d="M293.02,168.81s-7.1,16.57,1.34,26.05c8.44,9.47,20.71,6.07,20.71,6.07,0,0-24.05-.65-22.05-32.12"/>
    </g>
    <g id="g28156-8">
      <path id="path28154-9" class="cls-2" d="M294.19,198.93s5.7,6.02,12.99,5.16v57.48h-13.61l.62-62.63"/>
    </g>
    <g id="g28160-4">
      <path id="path28158-2" class="cls-2" d="M264.18,218.43s8.94,6.74,3.69,21.85c-5.22,15.1-23.48,11.13-23.48,11.13,0,0,13.99.42,19.78-12.36,5.36-11.81,0-20.61,0-20.61"/>
    </g>
    <g id="g28164-1">
      <path id="path28162-1" class="cls-2" d="M352.63,196.88c-16.49,0-26.28,11.29-27.81,13.17l-.11-12.03s-3.1,6.93-12.05,6.12v57.43h13.73v-37.63c0-6.19,6.45-18,23.64-18s17.3,12.23,17.3,12.23v43.41h11.94v-46.98c0-8.38-8.65-17.7-26.64-17.7"/>
    </g>
    <g id="g28168-0">
      <path id="path28166-3" class="cls-2" d="M421.31,252.51c-25.42-.17-25.83-20.33-25.83-20.33h63.05c0-27.07-17.57-36.67-36.68-36.67s-39.41,12.21-39.41,33.37,19.07,33.1,39.97,33.1c23.35,0,33.24-13.06,33.24-13.06l-6.86-5.88s-6.58,9.59-27.47,9.47M421.84,205.11c21.03,0,24.73,17.72,24.73,17.72h-50.81s5.09-17.72,26.08-17.72"/>
    </g>
    <g id="g28172-0">
      <path id="path28170-1" class="cls-2" d="M99.32,217.91s28.62.13,28.62-24.59c0-26.65-35.84-25.69-35.84-25.69l-38.86.19v93.61h13.51v-42.88h17.65l31.28,43.03h16.53l-32.89-43.66ZM66.94,208.61v-30.36h24.89s21.21,0,21.21,15.28-18.3,15.07-18.3,15.07h-27.8"/>
    </g>
    <g id="g28176-1">
      <path id="path28174-9" class="cls-2" d="M437.6,185.75v-11.39h-4.23v-1.51h10.2v1.51h-4.25v11.39h-1.72"/>
    </g>
    <g id="g28180-7">
      <path id="path28178-9" class="cls-2" d="M445.62,185.75v-12.9h2.58l3.06,9.13c.29.86.49,1.5.63,1.92.14-.48.38-1.15.7-2.06l3.14-8.99h2.25v12.9h-1.66v-10.79l-3.8,10.79h-1.5l-3.73-10.96v10.96h-1.66"/>
    </g>
    <path id="path28182-7" class="cls-2" d="M51.78,290.12h80.64v-1.63H51.78v1.63Z"/>
    <path id="path28184-0" class="cls-2" d="M377.88,290.12h80.64v-1.63h-80.64v1.63Z"/>
  </g>
</svg>