<?xml version="1.0" encoding="UTF-8"?>
<svg id="Layer_1" data-name="Layer 1" xmlns="http://www.w3.org/2000/svg" viewBox="0 0 512 512">
  <defs>
    <style>
      .cls-1 {
        fill: #ef4623;
      }

      .cls-2 {
        fill: #fff;
      }

      .cls-3 {
        fill: #ef4123;
      }
    </style>
  </defs>
  <path class="cls-3" d="M256,467.53c-56.1,0-108.83-22.01-148.5-61.96-39.66-39.95-61.5-93.07-61.5-149.57s21.84-109.62,61.5-149.57c39.66-39.96,92.4-61.96,148.5-61.96s108.83,22.01,148.5,61.96c39.66,39.95,61.5,93.07,61.5,149.57s-21.84,109.62-61.5,149.57c-39.66,39.96-92.4,61.96-148.5,61.96ZM256,48.98c-113.31,0-205.49,92.87-205.49,207.02s92.18,207.02,205.49,207.02,205.49-92.87,205.49-207.02S369.31,48.98,256,48.98Z"/>
  <g>
    <path class="cls-1" d="M201.09,368.52c0,3.72-.95,7.06-2.85,10.02-1.9,2.96-4.68,5.28-8.35,6.96-3.66,1.68-8.01,2.52-13.03,2.52-6.02,0-10.99-1.15-14.9-3.44-2.78-1.65-5.03-3.85-6.77-6.6-1.73-2.75-2.6-5.43-2.6-8.03,0-1.51.52-2.8,1.56-3.88,1.04-1.08,2.37-1.61,3.98-1.61,1.3,0,2.41.42,3.31,1.26s1.67,2.08,2.31,3.73c.78,1.96,1.62,3.59,2.52,4.91.9,1.31,2.17,2.4,3.81,3.25,1.64.85,3.79,1.28,6.45,1.28,3.66,0,6.64-.86,8.93-2.58,2.29-1.72,3.43-3.87,3.43-6.44,0-2.04-.62-3.7-1.85-4.97-1.23-1.27-2.83-2.24-4.79-2.91-1.96-.67-4.57-1.38-7.85-2.14-4.39-1.03-8.06-2.24-11.01-3.63-2.96-1.38-5.3-3.27-7.03-5.66-1.73-2.39-2.6-5.36-2.6-8.91s.92-6.39,2.75-9.02c1.83-2.63,4.48-4.65,7.95-6.06,3.47-1.41,7.55-2.12,12.24-2.12,3.75,0,6.99.47,9.72,1.4,2.73.94,5,2.18,6.81,3.73,1.8,1.55,3.12,3.18,3.95,4.89.83,1.71,1.25,3.37,1.25,4.99,0,1.48-.52,2.82-1.56,4.01s-2.34,1.78-3.89,1.78c-1.42,0-2.49-.36-3.23-1.07-.74-.71-1.53-1.88-2.39-3.5-1.11-2.32-2.44-4.13-4-5.43-1.56-1.3-4.05-1.95-7.49-1.95-3.19,0-5.77.71-7.72,2.12-1.96,1.41-2.94,3.11-2.94,5.1,0,1.23.33,2.29,1,3.19.67.9,1.58,1.66,2.75,2.31,1.17.64,2.34,1.15,3.54,1.51,1.19.36,3.16.9,5.91,1.59,3.44.81,6.56,1.71,9.35,2.68,2.79.98,5.16,2.17,7.12,3.56,1.96,1.4,3.48,3.17,4.58,5.31,1.1,2.14,1.64,4.76,1.64,7.86Z"/>
    <path class="cls-1" d="M212.08,380.43v-48.44c0-2.52.57-4.4,1.71-5.66,1.14-1.26,2.61-1.89,4.41-1.89s3.37.62,4.52,1.87,1.73,3.14,1.73,5.68v48.44c0,2.54-.58,4.45-1.73,5.7s-2.66,1.89-4.52,1.89-3.24-.64-4.39-1.91c-1.15-1.27-1.73-3.17-1.73-5.68Z"/>
    <path class="cls-1" d="M277.32,380.01l-2.91-7.72h-24.81l-2.91,7.88c-1.14,3.08-2.11,5.15-2.91,6.23s-2.12,1.61-3.95,1.61c-1.55,0-2.93-.57-4.12-1.72-1.19-1.15-1.79-2.45-1.79-3.9,0-.84.14-1.71.42-2.6.28-.89.73-2.14,1.37-3.73l15.61-39.92c.44-1.15.98-2.52,1.6-4.13.62-1.61,1.29-2.94,2-4,.71-1.06,1.64-1.92,2.79-2.58,1.15-.66,2.57-.99,4.27-.99s3.16.33,4.31.99c1.15.66,2.08,1.5,2.79,2.54.71,1.03,1.3,2.15,1.79,3.33.48,1.19,1.1,2.78,1.85,4.76l15.94,39.67c1.25,3.02,1.87,5.21,1.87,6.58s-.59,2.73-1.77,3.92c-1.18,1.19-2.6,1.78-4.27,1.78-.97,0-1.8-.18-2.5-.52-.69-.35-1.28-.82-1.75-1.43-.47-.6-.98-1.52-1.52-2.77-.54-1.24-1.01-2.34-1.4-3.29ZM252.84,362.94h18.23l-9.2-25.37-9.03,25.37Z"/>
    <path class="cls-1" d="M320.19,377.7l-9.78-39.17v42.44c0,2.35-.52,4.11-1.56,5.28-1.04,1.17-2.42,1.76-4.14,1.76s-3.03-.58-4.08-1.74c-1.05-1.16-1.58-2.93-1.58-5.31v-48.65c0-2.68.69-4.49,2.08-5.43,1.39-.94,3.26-1.4,5.62-1.4h3.83c2.3,0,3.98.21,5.02.63s1.81,1.17,2.31,2.26c.5,1.09,1.07,2.87,1.71,5.33l8.87,33.67,8.87-33.67c.64-2.46,1.21-4.24,1.71-5.33.5-1.09,1.27-1.84,2.31-2.26,1.04-.42,2.71-.63,5.02-.63h3.83c2.36,0,4.23.47,5.62,1.4,1.39.94,2.08,2.75,2.08,5.43v48.65c0,2.35-.52,4.11-1.56,5.28-1.04,1.17-2.43,1.76-4.18,1.76-1.64,0-2.98-.59-4.04-1.76-1.06-1.17-1.58-2.94-1.58-5.28v-42.44l-9.78,39.17c-.64,2.54-1.16,4.41-1.56,5.6-.4,1.19-1.14,2.27-2.23,3.25s-2.58,1.47-4.5,1.47c-1.44,0-2.66-.32-3.66-.94-1-.63-1.78-1.43-2.33-2.41-.56-.98-.99-2.06-1.31-3.25-.32-1.19-.64-2.43-.98-3.71Z"/>
  </g>
  <g>
    <path class="cls-1" d="M196.15,162.96h-9.03v-2.65c-2.08-4.95-5.81-11.34-11.21-19.2-5.39-7.85-9.18-11.78-11.37-11.78-1.47,0-2.2,1.19-2.2,3.57v11.21h.43c2.58,0,4.8.94,6.67,2.82,1.86,1.88,2.79,4.12,2.79,6.71s-.93,4.84-2.79,6.71c-1.86,1.88-4.08,2.82-6.67,2.82s-4.8-.94-6.66-2.82c-1.86-1.88-2.79-4.12-2.79-6.71v-20.74c0-7.18,2.94-10.78,8.81-10.78,2.36,0,4.68.9,6.96,2.71,2.28,1.81,5.72,5.94,10.35,12.4,4.62,6.46,7.18,10.45,7.69,11.97v-25.29c0-2.17-.48-4.15-1.45-5.96-3.94,1.7-7.9,2.54-11.88,2.54v-2.54c2.9-.54,5.8-1.84,8.71-3.9-3.26-2.45-7.15-3.68-11.66-3.68-3.37,0-6.74.73-10.11,2.19-3.37,1.46-5.91,3.44-7.63,5.93l-4.41-3.68c2.44-3.25,5.74-5.83,9.92-7.74,4.17-1.91,8.39-2.87,12.66-2.87,6.27,0,11.84,1.62,16.72,4.87,2.08-2.24,3.76-4.6,5.05-7.09l5.97,4.17c-1.54,2.78-3.64,5.27-6.29,7.47,2.29,3.14,3.44,6.61,3.44,10.4v38.93ZM162.77,158.41c1.33,0,2.45-.46,3.36-1.38.91-.92,1.37-2.05,1.37-3.38s-.46-2.46-1.37-3.38c-.91-.92-2.03-1.38-3.36-1.38s-2.45.46-3.36,1.38c-.91.92-1.37,2.05-1.37,3.38s.46,2.46,1.37,3.38c.91.92,2.03,1.38,3.36,1.38Z"/>
    <path class="cls-1" d="M251.14,151.1c0,3.54-1.22,6.4-3.65,8.58-2.44,2.18-5.39,3.28-8.87,3.28h-29.62v-18.09c0-4.58,1.68-7.83,5.05-9.75-3.37-1.91-5.05-5.16-5.05-9.75v-11.64c0-2.6.93-4.84,2.79-6.71,1.86-1.88,4.09-2.82,6.67-2.82s4.8.94,6.66,2.82c1.86,1.88,2.79,4.12,2.79,6.71s-.93,4.84-2.79,6.71c-1.86,1.88-4.08,2.82-6.66,2.82h-.43v2.22c0,2.46.67,4.4,2.02,5.82s3.16,2.14,5.46,2.14v3.36c-2.29,0-4.11.71-5.46,2.14-1.34,1.43-2.02,3.37-2.02,5.82v11.97h18.38c3.8,0,5.7-1.66,5.7-4.98v-46.24h9.03v45.59ZM218.45,118.5c1.33,0,2.45-.47,3.36-1.41.91-.94,1.37-2.06,1.37-3.36s-.46-2.46-1.37-3.38c-.91-.92-2.03-1.38-3.36-1.38s-2.45.46-3.36,1.38c-.91.92-1.37,2.05-1.37,3.38s.46,2.42,1.37,3.36c.91.94,2.03,1.41,3.36,1.41Z"/>
    <path class="cls-1" d="M297.42,162.96h-9.03v-39.04c0-9.02-3.98-13.54-11.93-13.54-5.23,0-9.66,2.71-13.28,8.12l-4.41-3.68c5.12-7.08,11.18-10.61,18.17-10.61,6.16,0,11.12,1.77,14.86,5.31,3.74,3.54,5.62,8.38,5.62,14.51v38.93Z"/>
    <path class="cls-1" d="M361.65,162.96h-8.98c-6.24-12.13-14.94-18.86-26.12-20.2v9.42c0,7.33-3.57,10.99-10.7,10.99-2.83,0-5.21-.97-7.12-2.92-1.92-1.95-2.88-4.53-2.88-7.74,0-3.5,1.03-6.54,3.09-9.12,2.06-2.58,4.92-4.38,8.57-5.39v-14.73h-.43c-2.58,0-4.8-.94-6.66-2.82-1.86-1.88-2.8-4.12-2.8-6.71s.93-4.84,2.8-6.71c1.86-1.88,4.08-2.82,6.66-2.82s4.8.94,6.67,2.82c1.86,1.88,2.79,4.12,2.79,6.71v24.26c9.96,1.08,18.67,6.08,26.12,15v-47.49h8.98v57.45ZM317.52,153.32v-10.56c-2.08.54-3.75,1.77-5.03,3.68-1.27,1.91-1.91,3.93-1.91,6.07,0,1.81.36,3.24,1.07,4.3.72,1.07,1.65,1.6,2.79,1.6,2.04,0,3.06-1.7,3.06-5.09ZM317.09,118.5c1.33,0,2.45-.47,3.36-1.41.91-.94,1.37-2.06,1.37-3.36s-.46-2.46-1.37-3.38-2.03-1.38-3.36-1.38-2.45.46-3.36,1.38-1.37,2.05-1.37,3.38.46,2.42,1.37,3.36c.91.94,2.03,1.41,3.36,1.41Z"/>
  </g>
  <g>
    <path class="cls-1" d="M173.1,394.28c1.35,0,2.5.27,3.47.82.97.55,1.7,1.33,2.19,2.35.5,1.01.74,2.2.74,3.57,0,1.01-.14,1.93-.41,2.76-.27.83-.68,1.54-1.22,2.15-.54.61-1.21,1.07-2,1.39-.79.32-1.7.48-2.72.48s-1.93-.16-2.73-.5c-.8-.33-1.47-.8-2.01-1.4-.54-.6-.94-1.32-1.22-2.17-.27-.84-.41-1.76-.41-2.74s.14-1.93.43-2.77.7-1.55,1.24-2.14c.54-.59,1.2-1.04,1.98-1.35.78-.31,1.66-.47,2.66-.47ZM176.84,401c0-.96-.15-1.79-.46-2.49s-.75-1.23-1.32-1.59c-.57-.36-1.22-.54-1.96-.54-.53,0-1.01.1-1.46.3-.45.2-.83.49-1.15.87-.32.38-.58.87-.76,1.46-.19.59-.28,1.26-.28,1.99s.09,1.42.28,2.02c.19.6.45,1.1.79,1.49.34.4.73.69,1.17.89.44.2.92.29,1.45.29.67,0,1.29-.17,1.86-.51s1.01-.86,1.35-1.57c.33-.71.5-1.58.5-2.61Z"/>
    <path class="cls-1" d="M185.29,401.98h-.92v4.2c0,.55-.12.96-.36,1.22-.24.26-.56.39-.95.39-.42,0-.74-.14-.97-.41-.23-.27-.35-.68-.35-1.2v-10.06c0-.57.13-.98.38-1.24.25-.26.66-.38,1.23-.38h4.28c.59,0,1.1.03,1.51.08.42.05.8.15,1.13.31.41.17.77.42,1.08.74.31.32.55.69.71,1.12.16.43.24.88.24,1.35,0,.98-.27,1.75-.82,2.34-.55.58-1.37,1-2.48,1.24.47.25.91.62,1.34,1.11.43.49.81,1.01,1.14,1.56.33.55.59,1.05.78,1.49s.28.75.28.91-.05.34-.16.51c-.11.17-.26.3-.45.4-.19.1-.41.15-.65.15-.3,0-.54-.07-.74-.21-.2-.14-.37-.32-.52-.53-.15-.21-.34-.53-.59-.95l-1.05-1.77c-.38-.65-.72-1.14-1.01-1.48-.3-.34-.6-.57-.91-.7-.31-.13-.69-.19-1.16-.19ZM186.79,396.49h-2.43v3.6h2.36c.63,0,1.16-.05,1.59-.17.43-.11.76-.3.99-.56.23-.26.34-.63.34-1.09,0-.36-.09-.68-.27-.96s-.44-.48-.76-.62c-.31-.13-.91-.2-1.82-.2Z"/>
    <path class="cls-1" d="M194.91,406.19v-10.3c0-.54.12-.94.36-1.2s.55-.4.94-.4.72.13.96.4c.24.26.37.67.37,1.21v10.3c0,.54-.12.95-.37,1.21-.25.27-.57.4-.96.4s-.69-.14-.93-.41c-.24-.27-.37-.67-.37-1.21Z"/>
    <path class="cls-1" d="M212.34,402.26v2.51c0,.33-.03.6-.1.8-.06.2-.18.38-.36.54s-.4.32-.67.46c-.79.43-1.54.74-2.27.94s-1.52.29-2.37.29c-1,0-1.91-.16-2.73-.46-.82-.31-1.52-.76-2.1-1.35-.58-.59-1.02-1.3-1.33-2.14-.31-.84-.47-1.77-.47-2.81s.15-1.95.45-2.79.74-1.56,1.33-2.15c.58-.59,1.3-1.04,2.13-1.35.84-.31,1.79-.47,2.85-.47.87,0,1.65.12,2.32.35.67.24,1.22.53,1.64.89s.74.73.95,1.13c.21.4.32.75.32,1.06,0,.33-.12.62-.37.85-.24.23-.54.35-.88.35-.19,0-.37-.04-.54-.13-.17-.09-.32-.21-.44-.37-.32-.51-.6-.9-.82-1.16-.22-.26-.53-.48-.91-.66-.38-.18-.87-.27-1.46-.27s-1.15.11-1.63.32c-.48.21-.89.52-1.23.92-.34.4-.6.89-.78,1.48-.18.58-.27,1.23-.27,1.94,0,1.53.35,2.72,1.05,3.54.7.83,1.67,1.24,2.93,1.24.61,0,1.18-.08,1.71-.24.53-.16,1.08-.39,1.62-.69v-2.12h-2.04c-.49,0-.86-.07-1.11-.22-.25-.15-.38-.4-.38-.76,0-.29.11-.53.31-.72.21-.19.49-.28.86-.28h2.98c.37,0,.68.03.93.1.25.07.46.21.62.44.16.23.23.57.23,1.02Z"/>
    <path class="cls-1" d="M214.95,406.19v-10.3c0-.54.12-.94.36-1.2s.55-.4.94-.4.72.13.96.4c.24.26.37.67.37,1.21v10.3c0,.54-.12.95-.37,1.21-.25.27-.57.4-.96.4s-.69-.14-.93-.41c-.24-.27-.37-.67-.37-1.21Z"/>
    <path class="cls-1" d="M223.94,395.86l5.06,7.71v-7.78c0-.51.11-.88.32-1.14.21-.25.51-.38.87-.38s.68.13.89.38.33.63.33,1.14v10.29c0,1.15-.47,1.72-1.42,1.72-.24,0-.45-.03-.64-.1-.19-.07-.37-.18-.53-.33-.17-.15-.32-.32-.46-.52-.14-.2-.28-.4-.43-.61l-4.93-7.62v7.66c0,.5-.11.88-.35,1.13-.23.26-.53.38-.89.38s-.67-.13-.89-.39-.34-.64-.34-1.13v-10.09c0-.43.05-.76.14-1.01.11-.27.3-.49.56-.66.26-.17.54-.25.84-.25.24,0,.44.04.61.12s.32.18.44.31c.13.13.26.3.39.51.13.21.27.43.41.65Z"/>
    <path class="cls-1" d="M242.37,406.1l-.62-1.64h-5.28l-.62,1.68c-.24.65-.45,1.1-.62,1.32-.17.23-.45.34-.84.34-.33,0-.62-.12-.88-.37-.25-.24-.38-.52-.38-.83,0-.18.03-.36.09-.55.06-.19.16-.46.29-.79l3.32-8.49c.09-.24.21-.54.34-.88.13-.34.27-.63.43-.85.15-.23.35-.41.59-.55.25-.14.55-.21.91-.21s.67.07.92.21c.24.14.44.32.59.54.15.22.28.46.38.71.1.25.23.59.39,1.01l3.39,8.44c.27.64.4,1.11.4,1.4s-.13.58-.38.83c-.25.25-.55.38-.91.38-.21,0-.38-.04-.53-.11-.15-.07-.27-.18-.37-.3-.1-.13-.21-.32-.32-.59-.12-.27-.21-.5-.3-.7ZM237.16,402.47h3.88l-1.96-5.4-1.92,5.4Z"/>
    <path class="cls-1" d="M249.68,395.88v9.52h5.33c.43,0,.75.1.98.31s.34.47.34.78-.11.58-.34.78c-.22.2-.55.3-.98.3h-6.35c-.57,0-.98-.13-1.23-.38-.25-.26-.38-.67-.38-1.24v-10.07c0-.54.12-.94.36-1.2.24-.27.55-.4.94-.4s.72.13.96.4c.24.26.37.67.37,1.21Z"/>
    <path class="cls-1" d="M271.03,396.68h-2.87v9.5c0,.55-.12.95-.36,1.22s-.55.4-.94.4-.71-.13-.95-.4c-.25-.27-.37-.67-.37-1.21v-9.5h-2.87c-.45,0-.78-.1-1-.3-.22-.2-.33-.46-.33-.79s.11-.61.34-.8c.23-.2.56-.29.99-.29h8.36c.45,0,.79.1,1.01.3.22.2.33.47.33.79s-.11.59-.34.79c-.22.2-.56.3-1.01.3Z"/>
    <path class="cls-1" d="M276.58,395.88v3.75h5.68v-3.75c0-.54.12-.94.36-1.2.24-.27.55-.4.94-.4s.72.13.96.4c.25.26.37.67.37,1.21v10.3c0,.54-.12.95-.37,1.21-.25.27-.57.4-.96.4s-.71-.14-.95-.41c-.24-.27-.35-.67-.35-1.21v-4.4h-5.68v4.4c0,.54-.12.95-.37,1.21-.25.27-.57.4-.96.4s-.71-.14-.95-.41-.35-.67-.35-1.21v-10.3c0-.54.12-.94.35-1.2.23-.27.55-.4.95-.4s.72.13.96.4c.24.26.37.67.37,1.21Z"/>
    <path class="cls-1" d="M296.02,406.1l-.62-1.64h-5.28l-.62,1.68c-.24.65-.45,1.1-.62,1.32-.17.23-.45.34-.84.34-.33,0-.62-.12-.88-.37-.25-.24-.38-.52-.38-.83,0-.18.03-.36.09-.55.06-.19.16-.46.29-.79l3.32-8.49c.09-.24.21-.54.34-.88.13-.34.27-.63.43-.85.15-.23.35-.41.59-.55.25-.14.55-.21.91-.21s.67.07.92.21c.24.14.44.32.59.54.15.22.28.46.38.71.1.25.23.59.39,1.01l3.39,8.44c.27.64.4,1.11.4,1.4s-.13.58-.38.83c-.25.25-.55.38-.91.38-.21,0-.38-.04-.53-.11-.15-.07-.27-.18-.37-.3-.1-.13-.21-.32-.32-.59-.12-.27-.21-.5-.3-.7ZM290.81,402.47h3.88l-1.96-5.4-1.92,5.4Z"/>
    <path class="cls-1" d="M300.86,406.19v-10.3c0-.54.12-.94.36-1.2s.55-.4.94-.4.72.13.96.4c.24.26.37.67.37,1.21v10.3c0,.54-.12.95-.37,1.21-.25.27-.57.4-.96.4s-.69-.14-.93-.41c-.24-.27-.37-.67-.37-1.21Z"/>
    <path class="cls-1" d="M319.4,396.68h-2.87v9.5c0,.55-.12.95-.36,1.22s-.55.4-.94.4-.71-.13-.95-.4c-.25-.27-.37-.67-.37-1.21v-9.5h-2.87c-.45,0-.78-.1-1-.3-.22-.2-.33-.46-.33-.79s.11-.61.34-.8c.23-.2.56-.29.99-.29h8.36c.45,0,.79.1,1.01.3.22.2.33.47.33.79s-.11.59-.34.79c-.22.2-.56.3-1.01.3Z"/>
    <path class="cls-1" d="M330.86,396.54h-5.92v3.21h5.46c.4,0,.7.09.9.27s.3.42.3.72-.1.54-.29.73c-.19.19-.5.28-.9.28h-5.46v3.72h6.13c.41,0,.72.1.93.29.21.19.31.45.31.77s-.11.56-.31.75c-.21.19-.52.29-.93.29h-7.15c-.57,0-.98-.13-1.24-.38-.25-.26-.38-.67-.38-1.24v-9.83c0-.38.06-.69.17-.93.11-.24.29-.42.53-.53s.54-.16.92-.16h6.94c.42,0,.73.09.93.28s.31.43.31.74-.1.56-.31.75-.52.28-.93.28Z"/>
    <path class="cls-1" d="M342.71,406.1l-.62-1.64h-5.28l-.62,1.68c-.24.65-.45,1.1-.62,1.32-.17.23-.45.34-.84.34-.33,0-.62-.12-.88-.37-.25-.24-.38-.52-.38-.83,0-.18.03-.36.09-.55.06-.19.16-.46.29-.79l3.32-8.49c.09-.24.21-.54.34-.88.13-.34.27-.63.43-.85.15-.23.35-.41.59-.55.25-.14.55-.21.91-.21s.67.07.92.21c.24.14.44.32.59.54.15.22.28.46.38.71.1.25.23.59.39,1.01l3.39,8.44c.27.64.4,1.11.4,1.4s-.13.58-.38.83c-.25.25-.55.38-.91.38-.21,0-.38-.04-.53-.11-.15-.07-.27-.18-.37-.3-.1-.13-.21-.32-.32-.59-.12-.27-.21-.5-.3-.7ZM337.5,402.47h3.88l-1.96-5.4-1.92,5.4Z"/>
  </g>
  <path class="cls-1" d="M233.36,216.83s-30.94-14.19-40.38,17.7c-9.44,31.89-22.08,36.14-22.08,36.14,0,0,18.59-3.51,21.79-13.9,0,0,7.99,24.58-4.65,27.21-12.64,2.63-13.8,15.8.44,17.12,15.39,1.32,33.11-25.6,55.77-24.73,22.66.88-5.37,25.75,1.16,27.51,6.54,1.76,26.43,3.51,31.23-19.17,4.79-22.68,27.74-42.43,36.31-43.01,8.57-.59,7.7-4.61,4.65-5.12s-11.47-1.1-13.8-6.36c-2.32-5.27,22.8.48,29.34-20.81,6.54-21.29-12.64-35-24.94-23.15-12.31,11.85-17.43,8.41-17.65,2.82s6.83-.22,8.82-2.38-3.81-9.96-10.93-4.82c-7.12,5.14-3.96,15.53,1.31,18.57s12.51.46,14.52-2.18,12.2-7.41,15.74-2.19c3.54,5.21-13.4,22.22-27.78,10.92s-28.7-12.4-39.16,3.84c-10.46,16.24-20.53,9.93-25.22,20.35-4.68,10.42,8.44,20.9,16.67,16.68,8.22-4.22,3.38-12.07,3.38-12.07,0,0-8.06,11.03-10.95,3.62s12.58-20.57,21.73-10.53c9.15,10.04.87,26.34-4.36,28.26l-2.56-7.74s-6.32,13.55-16.28,17.72c-9.97,4.17-13.13-7.52-12.47-13.17s3.54-8.07,3.54-8.07c0,0-9.67,2.98-12.24-2.85-2.57-5.82-.12-22.52,19.05-26.21Z"/>
  <path class="cls-2" d="M278.67,209.59s5.61-2.14,11.9,2.8,2.89,6.12-.87,6.12-10.43-2.66-11.03-8.92Z"/>
  <path class="cls-1" d="M234.3,282.74s-.22,11.27,3.27,15.51.29,11.56-10.02,11.56-13.29-21.65,6.75-27.07Z"/>
  <path class="cls-1" d="M287.96,272.35s-8.93,12.8-1.82,26.41c7.12,13.61,22.58,4.97,23.16.44s-15.98-9.07-21.35-26.85Z"/>
</svg>