<?xml version="1.0" encoding="UTF-8"?>
<svg id="Layer_1" data-name="Layer 1" xmlns="http://www.w3.org/2000/svg" viewBox="0 0 512 512">
  <defs>
    <style>
      .cls-1 {
        fill: #f15b29;
        font-family: Algerian, Algerian;
        font-size: 108.56px;
      }

      .cls-2 {
        fill: #1b72ba;
      }

      .cls-3 {
        fill: #fff;
      }

      .cls-4 {
        fill: #ed1c24;
      }

      .cls-5 {
        fill: none;
        stroke: #f15b29;
        stroke-miterlimit: 10;
      }

      .cls-6 {
        fill: #069f4a;
      }
    </style>
  </defs>
  <g>
    <circle class="cls-3" cx="256" cy="197.68" r="151.67"/>
    <path class="cls-2" d="M272.18,329.92c-5.3.65-10.71.98-16.18.98-73.59,0-133.25-59.63-133.25-133.22,0-3.87.17-7.68.5-11.47,23.28,38.79,65.77,64.76,114.32,64.76,10.97,0,21.62-1.32,31.83-3.84-23.7,13.83-36.32,37.64-28.89,57.8,4.71,12.87,16.63,21.62,31.66,24.99Z"/>
    <path class="cls-2" d="M304.58,292.14c0,10.91-8.83,19.75-19.74,19.75s-19.77-8.84-19.77-19.75,8.86-19.77,19.77-19.77,19.74,8.86,19.74,19.77Z"/>
    <path class="cls-2" d="M284.83,311.89c-10.91,0-19.77-8.84-19.77-19.75s8.86-19.77,19.77-19.77,19.74,8.86,19.74,19.77-8.83,19.75-19.74,19.75Z"/>
    <path class="cls-2" d="M304.58,292.14c0,10.91-8.83,19.75-19.74,19.75s-19.77-8.84-19.77-19.75,8.86-19.77,19.77-19.77,19.74,8.86,19.74,19.77Z"/>
    <g>
      <path class="cls-6" d="M361.82,116.73c3.24,4.24,6.27,8.74,9.04,13.46,37.28,63.45,16.09,145.09-47.36,182.38-3.34,1.96-6.71,3.75-10.15,5.38,21.65-39.72,22.52-89.51-2.08-131.37-5.56-9.45-12.09-17.98-19.44-25.5,23.93,13.43,50.85,12.25,64.47-4.38,8.71-10.58,10.22-25.29,5.5-39.96Z"/>
      <path class="cls-6" d="M312.83,107.94c9.41-5.53,21.5-2.39,27.03,7.02,5.53,9.41,2.4,21.52-7.01,27.05-9.41,5.53-21.54,2.38-27.06-7.03-5.53-9.41-2.36-21.51,7.05-27.04Z"/>
      <path class="cls-6" d="M339.86,114.96c5.53,9.41,2.4,21.52-7.01,27.05-9.41,5.53-21.54,2.38-27.06-7.03-5.53-9.41-2.36-21.51,7.05-27.04s21.5-2.39,27.03,7.02Z"/>
      <path class="cls-6" d="M312.83,107.94c9.41-5.53,21.5-2.39,27.03,7.02,5.53,9.41,2.4,21.52-7.01,27.05-9.41,5.53-21.54,2.38-27.06-7.03-5.53-9.41-2.36-21.51,7.05-27.04Z"/>
    </g>
    <g>
      <path class="cls-4" d="M135.58,140.67c2.29-4.82,4.9-9.58,7.82-14.2,39.34-62.2,121.62-80.75,183.82-41.41,3.27,2.07,6.41,4.25,9.42,6.56-45.23-1.06-89.89,20.97-115.84,62.01-5.86,9.27-10.44,18.98-13.77,28.96.98-27.42-12.4-50.82-33.41-55.31-13.4-2.9-27.17,2.5-38.05,13.41Z"/>
      <path class="cls-4" d="M150.2,188.24c-9.22-5.83-11.97-18.02-6.13-27.24,5.83-9.22,18.04-11.99,27.26-6.16,9.22,5.83,11.97,18.06,6.14,27.28-5.83,9.22-18.04,11.95-27.27,6.12Z"/>
      <path class="cls-4" d="M144.06,161c5.83-9.22,18.04-11.99,27.26-6.16,9.22,5.83,11.97,18.06,6.14,27.28-5.83,9.22-18.04,11.95-27.27,6.12-9.22-5.83-11.97-18.02-6.13-27.24Z"/>
      <path class="cls-4" d="M150.2,188.24c-9.22-5.83-11.97-18.02-6.13-27.24,5.83-9.22,18.04-11.99,27.26-6.16,9.22,5.83,11.97,18.06,6.14,27.28-5.83,9.22-18.04,11.95-27.27,6.12Z"/>
    </g>
    <circle class="cls-5" cx="256" cy="197.68" r="151.67"/>
  </g>
  <text class="cls-1" transform="translate(127.39 437.85) scale(1.31 1)"><tspan x="0" y="0">SMS</tspan></text>
</svg>