<?xml version="1.0" encoding="UTF-8"?>
<svg id="Layer_1" data-name="Layer 1" xmlns="http://www.w3.org/2000/svg" viewBox="0 0 512 512">
  <defs>
    <style>
      .cls-1 {
        fill: #231f20;
      }

      .cls-2 {
        fill: #ed2224;
      }
    </style>
  </defs>
  <g>
    <path class="cls-1" d="M200.64,199.05h40.28l-2.66,10.69h-13.51l-8.11,32.59h-13.25l8.11-32.59h-13.51l2.66-10.69Z"/>
    <path class="cls-1" d="M236.32,242.33l10.77-43.28h22.08c4.1,0,7.14.35,9.13,1.06,1.99.71,3.41,2.02,4.26,3.94.85,1.92.93,4.26.24,7.01-.6,2.4-1.62,4.47-3.07,6.21-1.45,1.74-3.19,3.15-5.24,4.24-1.3.69-3,1.26-5.08,1.71,1.45.53,2.46,1.06,3.05,1.59.4.36.92,1.11,1.55,2.28.64,1.16,1.03,2.06,1.19,2.69l3.3,12.54h-14.97l-3.79-13.22c-.47-1.71-.99-2.82-1.57-3.34-.79-.67-1.79-1-3-1h-1.17l-4.37,17.56h-13.31ZM256.04,216.59h5.59c.61,0,1.82-.2,3.66-.59.92-.18,1.75-.63,2.49-1.36.74-.73,1.22-1.56,1.46-2.51.35-1.4.18-2.47-.52-3.22s-2.25-1.12-4.66-1.12h-5.82l-2.19,8.8Z"/>
    <path class="cls-1" d="M320.4,199.05h13.22l-6.42,25.78c-.64,2.56-1.63,4.97-2.99,7.24-1.36,2.27-3.09,4.26-5.2,5.96-2.11,1.7-4.18,2.9-6.2,3.58-2.81.96-6.02,1.45-9.63,1.45-2.09,0-4.33-.15-6.72-.44-2.39-.3-4.31-.88-5.75-1.76-1.44-.88-2.65-2.12-3.62-3.73-.97-1.61-1.5-3.27-1.58-4.99-.13-2.75.06-5.19.59-7.32l6.42-25.78h13.22l-6.57,26.4c-.59,2.36-.4,4.2.57,5.53.97,1.33,2.6,1.99,4.9,1.99s4.23-.65,5.85-1.96c1.62-1.31,2.73-3.16,3.33-5.56l6.57-26.4Z"/>
    <path class="cls-1" d="M332.87,228.01l12.8-.8c-.24,2.07-.08,3.64.49,4.72.93,1.75,2.66,2.63,5.2,2.63,1.89,0,3.46-.45,4.71-1.34,1.25-.9,2.02-1.93,2.31-3.12.28-1.12.04-2.12-.71-3.01-.75-.89-2.81-1.72-6.16-2.51-5.48-1.32-9.19-3.07-11.12-5.26-1.95-2.18-2.51-4.97-1.66-8.35.55-2.22,1.71-4.32,3.48-6.3,1.77-1.98,4.08-3.53,6.92-4.66,2.84-1.13,6.5-1.7,10.97-1.7,5.48,0,9.4,1.03,11.77,3.08,2.36,2.06,3.26,5.33,2.69,9.82l-12.68.74c.15-1.95-.19-3.37-1.03-4.25s-2.2-1.33-4.07-1.33c-1.54,0-2.78.33-3.73.99-.94.66-1.53,1.46-1.77,2.41-.17.69,0,1.31.5,1.86.48.57,1.83,1.1,4.05,1.59,5.48,1.26,9.31,2.53,11.5,3.82,2.18,1.29,3.61,2.89,4.28,4.8.67,1.91.71,4.04.12,6.41-.69,2.77-2.09,5.33-4.19,7.68-2.1,2.34-4.67,4.12-7.7,5.33-3.03,1.21-6.62,1.82-10.78,1.82-7.29,0-11.99-1.42-14.09-4.25-2.1-2.83-2.79-6.44-2.08-10.8Z"/>
    <path class="cls-1" d="M385.51,199.05h17.43l.17,26.33,13.23-26.33h17.42l-10.77,43.28h-10.85l8.21-33-16.57,33h-9.82l-.13-33-8.21,33h-10.85l10.77-43.28Z"/>
    <path class="cls-1" d="M442.72,199.05h13.28l-10.77,43.28h-13.28l10.77-43.28Z"/>
  </g>
  <g>
    <path class="cls-1" d="M154.5,292.27l3.07-12.33h28.04l-6.29,25.27c-6.29,3.69-11.66,6.2-16.12,7.54-4.46,1.33-9.52,2-15.18,2-6.97,0-12.35-1.2-16.15-3.6-3.8-2.4-6.31-5.97-7.55-10.71-1.24-4.74-1.09-10.19.44-16.33,1.61-6.47,4.33-12.09,8.17-16.88,3.83-4.78,8.61-8.42,14.33-10.9,4.45-1.91,10.05-2.87,16.78-2.87s11.2.59,14.12,1.78c2.92,1.19,5.14,3.03,6.64,5.52,1.5,2.49,2.31,5.65,2.43,9.48l-18.29,3.15c-.16-2.24-.96-3.95-2.39-5.13-1.43-1.19-3.48-1.78-6.15-1.78-3.98,0-7.5,1.39-10.56,4.18s-5.34,7.2-6.84,13.24c-1.6,6.41-1.54,11,.17,13.75,1.7,2.75,4.69,4.12,8.97,4.12,2.03,0,4.04-.3,6.03-.89s4.35-1.6,7.08-3.03l1.39-5.58h-12.14Z"/>
    <path class="cls-1" d="M188.22,313.73l14.75-59.26h30.24c5.61,0,9.77.48,12.5,1.45,2.72.97,4.67,2.77,5.83,5.4s1.27,5.83.33,9.6c-.82,3.29-2.22,6.12-4.2,8.51-1.98,2.39-4.38,4.32-7.18,5.8-1.78.94-4.1,1.72-6.96,2.34,1.98.73,3.37,1.46,4.18,2.18.55.49,1.26,1.52,2.13,3.12.87,1.59,1.41,2.82,1.62,3.68l4.52,17.17h-20.5l-5.19-18.11c-.64-2.34-1.36-3.87-2.15-4.57-1.08-.92-2.45-1.37-4.11-1.37h-1.6l-5.99,24.05h-18.23ZM215.22,278.48h7.65c.83,0,2.5-.27,5.01-.81,1.26-.24,2.4-.86,3.41-1.86,1.01-1,1.68-2.14,2-3.44.48-1.91.24-3.38-.71-4.41-.95-1.02-3.08-1.54-6.39-1.54h-7.97l-3,12.05Z"/>
    <path class="cls-1" d="M255.47,284.14c2.41-9.68,6.95-17.21,13.64-22.6,6.68-5.39,14.79-8.09,24.33-8.09s16.65,2.65,20.62,7.94c3.97,5.3,4.77,12.71,2.39,22.25-1.72,6.93-4.29,12.61-7.7,17.04-3.41,4.43-7.61,7.88-12.59,10.35-4.98,2.47-10.73,3.7-17.24,3.7s-11.84-1.06-15.65-3.19c-3.81-2.13-6.49-5.5-8.04-10.11-1.55-4.61-1.46-10.38.26-17.3ZM273.59,284.22c-1.49,5.98-1.46,10.28.1,12.9,1.55,2.61,4.22,3.92,8.02,3.92s7.23-1.28,10.01-3.84c2.77-2.56,4.99-7.16,6.63-13.79,1.39-5.58,1.29-9.66-.3-12.23-1.59-2.57-4.29-3.86-8.11-3.86s-6.92,1.31-9.79,3.92c-2.87,2.61-5.05,6.94-6.55,12.98Z"/>
    <path class="cls-1" d="M371.69,254.47h18.11l-8.79,35.31c-.87,3.5-2.23,6.81-4.09,9.92-1.86,3.11-4.23,5.83-7.12,8.16-2.89,2.33-5.72,3.97-8.49,4.91-3.85,1.32-8.25,1.98-13.19,1.98-2.86,0-5.93-.2-9.2-.61-3.28-.41-5.9-1.21-7.87-2.4-1.97-1.2-3.62-2.9-4.96-5.11-1.33-2.21-2.06-4.48-2.17-6.83-.18-3.77.09-7.11.81-10.02l8.79-35.31h18.11l-9,36.15c-.8,3.23-.55,5.76.78,7.57s3.56,2.73,6.71,2.73,5.8-.89,8.02-2.69c2.22-1.79,3.74-4.33,4.56-7.61l9-36.15Z"/>
    <path class="cls-1" d="M401.73,254.47h30.16c6.57,0,11.1,1.58,13.58,4.73s3.01,7.64,1.56,13.46c-1.49,5.98-4.44,10.66-8.84,14.03-4.4,3.37-10.27,5.05-17.58,5.05h-9.93l-5.47,21.99h-18.23l14.75-59.26ZM413.67,279.73h4.45c3.5,0,6.11-.61,7.83-1.84,1.72-1.23,2.82-2.8,3.3-4.71.46-1.86.24-3.44-.67-4.73s-3.06-1.94-6.45-1.94h-5.17l-3.29,13.22Z"/>
  </g>
  <polygon class="cls-2" points="57.78 255.82 121.1 255.82 108.9 309.59 57.78 255.82"/>
  <polygon class="cls-2" points="134.38 197.26 123.4 245.65 56 245.14 134.38 197.26"/>
  <polygon class="cls-2" points="135.18 245.65 143.72 198.31 190.37 245.9 190.11 246.14 135.18 245.65"/>
</svg>