<?xml version="1.0" encoding="UTF-8"?>
<svg id="Layer_1" xmlns="http://www.w3.org/2000/svg" version="1.1" viewBox="0 0 32 32">
  <!-- Generator: Adobe Illustrator 30.3.0, SVG Export Plug-In . SVG Version: 2.1.3 Build 182)  -->
  <defs>
    <style>
      .st0 {
        fill: #fff;
      }

      .st1 {
        fill: blue;
      }
    </style>
  </defs>
  <rect id="rect1" class="st1" x="1" y="1" width="30" height="30" rx="2.7" ry="2.7"/>
  <path id="path302-4" class="st0" d="M12.3,23.3c-.3,0-.6-.1-.8-.3-.2-.2-3.8-3.8-3.9-3.9-.2-.3-.3-.6-.3-1,0-.4.1-.7.3-1,0,0,.4-.4.7-.7l.6-.6,1.8,1.8,1.8,1.8.6-.6.6-.6-1.3-1.3c-1-1-1.3-1.3-1.3-1.4-.4-.6-.4-1.3,0-1.8,0-.1,4.9-5,4.9-5s4.9,4.8,4.9,5c.3.5.4,1,.2,1.6-.1.3-.2.4-1.5,1.7l-1.3,1.3.6.6.6.6,1.8-1.8,1.8-1.8.6.6c.4.3.7.7.7.7.1.1.2.4.3.6,0,.3,0,.8,0,1.1-.1.3-.2.3-2.1,2.3-1,1-1.9,1.9-2,2-.6.4-1.4.4-1.9,0,0,0-.7-.6-1.4-1.3l-1.3-1.3-1.3,1.3c-1,1-1.3,1.3-1.4,1.3-.3.2-.7.3-1.1.2h0ZM16.6,15.1l.6-.6-.6-.6-.6-.6-.6.6-.6.6.6.6c.3.3.6.6.6.6s.3-.3.6-.6h0Z"/>
</svg>