<?xml version="1.0" encoding="UTF-8"?>
<svg id="Layer_1" xmlns="http://www.w3.org/2000/svg" version="1.1" viewBox="0 0 200 200">
  <!-- Generator: Adobe Illustrator 30.3.0, SVG Export Plug-In . SVG Version: 2.1.3 Build 182)  -->
  <path d="M65,82c0-8.7-7.1-15.9-15.9-15.9s-15.9,7.1-15.9,15.9,7.1,15.9,15.9,15.9,15.9-7.1,15.9-15.9ZM132.5,136.8c3.3,1.9,5,4.6,6.2,7.7s1.1,4.6,1.1,7v48.4h27v-59.4c-.4-5.2-2.2-9.7-4.4-14.3-2-4.1-4.6-7.2-8.2-9.9-6.6-5-14.1-7.2-22.6-6.9s-20.6,5.2-27.7,13.8l-.2-12.2h-25.4v88.9h26.9v-45.9c0-2.7.3-5.4,1.1-7.9s2.5-5.8,5.1-7.8c5.9-4.7,14.6-5.3,21.1-1.5v.2-.2ZM63.1,111h-27.7v89h27.7v-89Z"/>
</svg>