<?xml version="1.0" encoding="UTF-8"?>
<svg id="Layer_1" xmlns="http://www.w3.org/2000/svg" version="1.1" xmlns:inkscape="http://www.inkscape.org/namespaces/inkscape" xmlns:sodipodi="http://sodipodi.sourceforge.net/DTD/sodipodi-0.dtd" xmlns:svg="http://www.w3.org/2000/svg" viewBox="0 0 480 64">
  <!-- Generator: Adobe Illustrator 30.3.0, SVG Export Plug-In . SVG Version: 2.1.3 Build 182)  -->
  <defs>
    <style>
      .st0 {
        fill: #fff;
      }

      .st1 {
        isolation: isolate;
      }
    </style>
  </defs>
  <g id="svg1" inkscape:export-filename="logo.png" inkscape:version="1.3 (0e150ed6c4, 2023-07-21)" sodipodi:docname="logo.svg">
    <sodipodi:namedview id="namedview1" bordercolor="#eeeeee" borderopacity="1" inkscape:current-layer="layer1" inkscape:cx="501.42856" inkscape:cy="127.40259" inkscape:deskcolor="#484848" inkscape:document-units="px" inkscape:pagecheckerboard="0" inkscape:pageopacity="0" inkscape:showpageshadow="0" inkscape:window-height="1351" inkscape:window-maximized="1" inkscape:window-width="2560" inkscape:window-x="-9" inkscape:window-y="-9" inkscape:zoom="0.42777779" pagecolor="#505050"/>
    <g id="g10">
      <path id="path302" class="st0" d="M41.4,64c-1.3,0-2.6-.6-3.7-1.4-.9-.7-16.7-16.6-17.1-17.2-.9-1.3-1.2-2.6-1.2-4.1s.5-3.1,1.4-4.3c.2-.2,1.6-1.7,3.1-3.2l2.8-2.8,7.7,7.7,7.7,7.7,2.6-2.6,2.6-2.6-5.5-5.5c-4.2-4.2-5.6-5.6-5.9-6.1-1.6-2.5-1.5-5.6,0-8,.4-.5,21.4-21.6,21.6-21.6s21.2,21.1,21.5,21.6c1.4,2,1.7,4.6.8,6.8-.5,1.3-.7,1.5-6.5,7.3l-5.5,5.5,2.6,2.6,2.6,2.6,7.7-7.7,7.7-7.7,2.8,2.8c1.5,1.5,2.9,3,3.1,3.2.5.6,1,1.8,1.2,2.6.4,1.4.2,3.3-.4,4.6s-.7,1.4-9.1,9.9c-4.5,4.5-8.4,8.3-8.7,8.6-2.4,1.9-5.9,2-8.5.2-.2-.2-2.9-2.7-5.9-5.8l-5.5-5.5-5.5,5.5c-4.2,4.2-5.7,5.6-6.1,5.8-1.5.9-2.9,1.2-4.6,1.1h.1ZM60.2,28.3l2.6-2.6-2.6-2.6-2.6-2.6-2.6,2.6-2.6,2.6,2.6,2.6c1.4,1.4,2.6,2.6,2.6,2.6,0,0,1.2-1.2,2.6-2.6Z" sodipodi:nodetypes="sssssscccccsscssssccccccscssssscsssscccccsss"/>
      <g id="g8">
        <g id="text5" class="st1">
          <g class="st1">
            <path class="st0" d="M117.6,46c-1.7-.7-3.1-1.7-4.1-3.1-1-1.4-1.6-3-1.6-4.9h7.6c0,1.1.5,1.9,1.1,2.5s1.5.9,2.5.9,1.9-.2,2.5-.7.9-1.2.9-2-.2-1.3-.7-1.8-1.1-.9-1.8-1.2c-.7-.3-1.7-.7-3-1-1.9-.6-3.4-1.2-4.6-1.8s-2.2-1.4-3.1-2.6c-.9-1.1-1.3-2.6-1.3-4.5,0-2.7,1-4.9,3-6.4s4.5-2.3,7.7-2.3,5.8.8,7.8,2.3,3,3.7,3.2,6.4h-7.7c0-.9-.4-1.7-1-2.2s-1.5-.8-2.5-.8-1.6.2-2.1.7-.8,1.1-.8,2,.4,1.7,1.3,2.2,2.3,1.1,4.2,1.7c1.9.6,3.4,1.3,4.6,1.8,1.2.6,2.2,1.4,3.1,2.5.9,1.1,1.3,2.5,1.3,4.3s-.4,3.2-1.3,4.5c-.8,1.4-2.1,2.4-3.7,3.3-1.6.8-3.5,1.2-5.7,1.2s-4.1-.3-5.8-1Z"/>
            <path class="st0" d="M145.5,23.1v5.9h9.6v5.5h-9.6v6.4h10.8v5.7h-17.9v-29.3h17.9v5.7h-10.8Z"/>
            <path class="st0" d="M182.1,31.5c-.8,1.4-2,2.5-3.6,3.4s-3.6,1.3-6,1.3h-4.4v10.5h-7.1v-29.3h11.6c2.3,0,4.3.4,5.9,1.2,1.6.8,2.8,1.9,3.6,3.3s1.2,3,1.2,4.9-.4,3.2-1.2,4.7ZM175,29.6c.7-.6,1-1.5,1-2.7s-.3-2.1-1-2.7-1.7-1-3-1h-3.9v7.3h3.9c1.4,0,2.4-.3,3-1h0Z"/>
            <path class="st0" d="M208.1,17.4v5.7h-7.8v23.6h-7.1v-23.6h-7.8v-5.7h22.7Z"/>
            <path class="st0" d="M218.8,17.4v29.3h-7.1v-29.3s7.1,0,7.1,0Z"/>
            <path class="st0" d="M242.2,41.5h-10.9l-1.8,5.2h-7.5l10.6-29.3h8.3l10.6,29.3h-7.6l-1.8-5.2h0ZM240.4,36l-3.6-10.7-3.6,10.7h7.2Z"/>
            <path class="st0" d="M280.9,46.7h-7.1l-11.9-18.1v18.1h-7.1v-29.3h7.1l11.9,18.2v-18.2h7.1v29.3Z"/>
            <path class="st0" d="M314,17.4v5.7h-11.9v6.2h8.9v5.5h-8.9v11.8h-7.1v-29.3h19.1-.1Z"/>
            <path class="st0" d="M336,41.5h-10.9l-1.8,5.2h-7.5l10.6-29.3h8.3l10.6,29.3h-7.6l-1.8-5.2h0ZM334.1,36l-3.6-10.7-3.6,10.7h7.2Z"/>
            <path class="st0" d="M366.9,17.4v19.9c0,3.1-.9,5.5-2.6,7.1-1.7,1.7-4.1,2.5-7,2.5s-5.6-.9-7.4-2.6c-1.9-1.8-2.8-4.2-2.8-7.5h7.1c0,1.2.3,2.1.8,2.8s1.2.9,2.2.9,1.5-.3,2-.8c.5-.6.7-1.4.7-2.4v-19.9h7.1-.1Z"/>
            <path class="st0" d="M390.9,41.5h-10.9l-1.8,5.2h-7.5l10.6-29.3h8.3l10.6,29.3h-7.6l-1.8-5.2h0ZM389,36l-3.6-10.7-3.6,10.7h7.2Z"/>
            <path class="st0" d="M418.3,46.7l-6.1-11.1h-1.7v11.1h-7.1v-29.3h12c2.3,0,4.3.4,5.9,1.2,1.6.8,2.8,1.9,3.7,3.3.8,1.4,1.2,3,1.2,4.7s-.5,3.7-1.6,5.2-2.7,2.6-4.9,3.3l6.8,11.6h-8.2ZM410.5,30.6h4.4c1.3,0,2.3-.3,2.9-1,.7-.6,1-1.5,1-2.7s-.3-2-1-2.6-1.6-1-2.9-1h-4.4v7.3Z"/>
            <path class="st0" d="M444.3,46c-1.7-.7-3.1-1.7-4.1-3.1-1-1.4-1.6-3-1.6-4.9h7.6c.1,1.1.5,1.9,1.1,2.5s1.5.9,2.5.9,1.9-.2,2.5-.7.9-1.2.9-2-.2-1.3-.7-1.8-1.1-.9-1.8-1.2c-.7-.3-1.7-.7-3-1-1.9-.6-3.4-1.2-4.6-1.8s-2.2-1.4-3.1-2.6c-.9-1.1-1.3-2.6-1.3-4.5,0-2.7,1-4.9,3-6.4s4.5-2.3,7.7-2.3,5.8.8,7.8,2.3,3,3.7,3.2,6.4h-7.7c0-.9-.4-1.7-1-2.2s-1.5-.8-2.5-.8-1.6.2-2.1.7-.8,1.1-.8,2,.4,1.7,1.3,2.2,2.3,1.1,4.2,1.7c1.9.6,3.4,1.3,4.6,1.8,1.2.6,2.2,1.4,3.1,2.5.9,1.1,1.3,2.5,1.3,4.3s-.4,3.2-1.3,4.5c-.8,1.4-2.1,2.4-3.7,3.3-1.6.8-3.5,1.2-5.7,1.2s-4.1-.3-5.8-1Z"/>
          </g>
        </g>
      </g>
    </g>
  </g>
</svg>